ChironHeiHKVF-weight1000-Master.ufo
<glyph name="uni36A3" format="2">
  <advance height="1000" width="1000"/>
  <unicode hex="36A3"/>
  <outline>
    <contour>
      <point x="735" y="718" type="line"/>
      <point x="651" y="550"/>
      <point x="422" y="513"/>
      <point x="127" y="509" type="curve"/>
      <point x="145" y="479"/>
      <point x="169" y="422"/>
      <point x="173" y="388" type="curve"/>
      <point x="490" y="412"/>
      <point x="742" y="467"/>
      <point x="890" y="702" type="curve"/>
    </contour>
    <contour>
      <point x="173" y="777" type="line"/>
      <point x="150" y="657" type="line"/>
      <point x="992" y="657" type="line"/>
      <point x="1015" y="777" type="line"/>
    </contour>
    <contour>
      <point x="222" y="562" type="line"/>
      <point x="459" y="510"/>
      <point x="687" y="439"/>
      <point x="823" y="383" type="curve"/>
      <point x="940" y="494" type="line"/>
      <point x="794" y="545"/>
      <point x="549" y="613"/>
      <point x="323" y="659" type="curve"/>
    </contour>
    <contour>
      <point x="222" y="562" type="curve"/>
      <point x="382" y="562" type="line"/>
      <point x="448" y="625"/>
      <point x="548" y="733"/>
      <point x="615" y="830" type="curve"/>
      <point x="486" y="866" type="line"/>
      <point x="417" y="763"/>
      <point x="308" y="641"/>
    </contour>
    <contour>
      <point x="653" y="276" type="line"/>
      <point x="554" y="94"/>
      <point x="317" y="42"/>
      <point x="13" y="30" type="curve"/>
      <point x="31" y="0"/>
      <point x="56" y="-59"/>
      <point x="62" y="-92" type="curve"/>
      <point x="383" y="-61"/>
      <point x="644" y="9"/>
      <point x="800" y="250" type="curve"/>
    </contour>
    <contour>
      <point x="71" y="352" type="line"/>
      <point x="48" y="232" type="line"/>
      <point x="926" y="232" type="line"/>
      <point x="949" y="352" type="line"/>
    </contour>
    <contour>
      <point x="134" y="121" type="line"/>
      <point x="384" y="60"/>
      <point x="623" y="-22"/>
      <point x="762" y="-85" type="curve"/>
      <point x="890" y="23" type="line"/>
      <point x="737" y="81"/>
      <point x="481" y="160"/>
      <point x="243" y="216" type="curve"/>
    </contour>
    <contour>
      <point x="134" y="121" type="curve"/>
      <point x="294" y="121" type="line"/>
      <point x="364" y="187"/>
      <point x="469" y="302"/>
      <point x="541" y="406" type="curve"/>
      <point x="414" y="442" type="line"/>
      <point x="341" y="333"/>
      <point x="225" y="204"/>
    </contour>
  </outline>
</glyph>
<glyph name="uni3AD7" format="2">
  <advance height="1000" width="1000"/>
  <unicode hex="3AD7"/>
  <outline>
    <contour>
      <point x="184" y="414" type="line"/>
      <point x="163" y="300" type="line"/>
      <point x="704" y="300" type="line"/>
      <point x="725" y="414" type="line"/>
    </contour>
    <contour>
      <point x="31" y="217" type="line"/>
      <point x="9" y="99" type="line"/>
      <point x="910" y="99" type="line"/>
      <point x="932" y="217" type="line"/>
    </contour>
    <contour>
      <point x="423" y="257" type="line"/>
      <point x="384" y="51" type="line" smooth="yes"/>
      <point x="381" y="37"/>
      <point x="374" y="34"/>
      <point x="355" y="34" type="curve"/>
      <point x="336" y="33"/>
      <point x="258" y="33"/>
      <point x="207" y="36" type="curve"/>
      <point x="221" y="2"/>
      <point x="236" y="-52"/>
      <point x="238" y="-91" type="curve"/>
      <point x="318" y="-91"/>
      <point x="383" y="-90"/>
      <point x="438" y="-72" type="curve" smooth="yes"/>
      <point x="494" y="-53"/>
      <point x="517" y="-21"/>
      <point x="530" y="46" type="curve" smooth="yes"/>
      <point x="570" y="257" type="line"/>
    </contour>
    <contour>
      <point x="694" y="414" type="line"/>
      <point x="690" y="389" type="line"/>
      <point x="637" y="346"/>
      <point x="524" y="288"/>
      <point x="423" y="257" type="curve"/>
      <point x="438" y="238"/>
      <point x="464" y="202"/>
      <point x="476" y="179" type="curve"/>
      <point x="609" y="219"/>
      <point x="737" y="282"/>
      <point x="837" y="349" type="curve"/>
      <point x="763" y="420" type="line"/>
      <point x="731" y="414" type="line"/>
    </contour>
    <contour>
      <point x="332" y="588" type="line"/>
      <point x="765" y="588" type="line"/>
      <point x="759" y="558" type="line"/>
      <point x="326" y="558" type="line"/>
    </contour>
    <contour>
      <point x="356" y="712" type="line"/>
      <point x="789" y="712" type="line"/>
      <point x="783" y="682" type="line"/>
      <point x="350" y="682" type="line"/>
    </contour>
    <contour>
      <point x="232" y="817" type="line"/>
      <point x="164" y="453" type="line"/>
      <point x="891" y="453" type="line"/>
      <point x="959" y="817" type="line"/>
    </contour>
  </outline>
</glyph>
<glyph name="uni4E86" format="2">
  <advance height="1000" width="1000"/>
  <unicode hex="4E86"/>
  <outline>
    <contour>
      <point x="464" y="500" type="line"/>
      <point x="382" y="69" type="line" smooth="yes"/>
      <point x="379" y="52"/>
      <point x="370" y="47"/>
      <point x="348" y="47" type="curve" smooth="yes"/>
      <point x="325" y="47"/>
      <point x="240" y="47"/>
      <point x="176" y="50" type="curve"/>
      <point x="192" y="11"/>
      <point x="207" y="-54"/>
      <point x="207" y="-97" type="curve"/>
      <point x="299" y="-98"/>
      <point x="375" y="-95"/>
      <point x="435" y="-73" type="curve" smooth="yes"/>
      <point x="495" y="-52"/>
      <point x="521" y="-13"/>
      <point x="535" y="65" type="curve" smooth="yes"/>
      <point x="618" y="500" type="line"/>
    </contour>
    <contour>
      <point x="181" y="790" type="line"/>
      <point x="154" y="646" type="line"/>
      <point x="839" y="646" type="line"/>
      <point x="866" y="790" type="line"/>
    </contour>
    <contour>
      <point x="823" y="790" type="line"/>
      <point x="817" y="754" type="line"/>
      <point x="752" y="682"/>
      <point x="595" y="565"/>
      <point x="464" y="500" type="curve"/>
      <point x="488" y="475"/>
      <point x="525" y="426"/>
      <point x="541" y="395" type="curve"/>
      <point x="698" y="472"/>
      <point x="871" y="598"/>
      <point x="998" y="711" type="curve"/>
      <point x="899" y="798" type="line"/>
      <point x="864" y="790" type="line"/>
    </contour>
  </outline>
</glyph>
<glyph name="uni50DD" format="2">
  <advance height="1000" width="1000"/>
  <unicode hex="50DD"/>
  <outline>
    <contour>
      <point x="475" y="828" type="line"/>
      <point x="456" y="725" type="line"/>
      <point x="889" y="725" type="line"/>
      <point x="884" y="699" type="line"/>
      <point x="451" y="699" type="line"/>
      <point x="432" y="596" type="line"/>
      <point x="998" y="596" type="line"/>
      <point x="1041" y="828" type="line"/>
    </contour>
    <contour>
      <point x="409" y="828" type="line"/>
      <point x="351" y="521" type="line" smooth="yes"/>
      <point x="322" y="364"/>
      <point x="273" y="145"/>
      <point x="148" y="-3" type="curve"/>
      <point x="179" y="-15"/>
      <point x="230" y="-48"/>
      <point x="251" y="-69" type="curve"/>
      <point x="383" y="91"/>
      <point x="448" y="348"/>
      <point x="480" y="521" type="curve" smooth="yes"/>
      <point x="538" y="828" type="line"/>
    </contour>
    <contour>
      <point x="552" y="571" type="line"/>
      <point x="537" y="490" type="line"/>
      <point x="871" y="490" type="line"/>
      <point x="886" y="571" type="line"/>
    </contour>
    <contour>
      <point x="489" y="462" type="line"/>
      <point x="472" y="373" type="line"/>
      <point x="963" y="373" type="line"/>
      <point x="980" y="462" type="line"/>
    </contour>
    <contour>
      <point x="838" y="571" type="line"/>
      <point x="835" y="553" type="line"/>
      <point x="801" y="528"/>
      <point x="733" y="495"/>
      <point x="680" y="475" type="curve"/>
      <point x="690" y="462"/>
      <point x="710" y="434"/>
      <point x="719" y="417" type="curve"/>
      <point x="794" y="443"/>
      <point x="877" y="479"/>
      <point x="945" y="516" type="curve"/>
      <point x="892" y="577" type="line"/>
      <point x="867" y="571" type="line"/>
    </contour>
    <contour>
      <point x="363" y="122" type="curve"/>
      <point x="364" y="25" type="line"/>
      <point x="440" y="32"/>
      <point x="534" y="41"/>
      <point x="625" y="50" type="curve"/>
      <point x="641" y="142" type="line"/>
      <point x="537" y="134"/>
      <point x="436" y="126"/>
    </contour>
    <contour>
      <point x="680" y="475" type="line"/>
      <point x="658" y="360" type="line" smooth="yes"/>
      <point x="656" y="350"/>
      <point x="652" y="347"/>
      <point x="640" y="347" type="curve"/>
      <point x="629" y="346"/>
      <point x="586" y="346"/>
      <point x="556" y="348" type="curve"/>
      <point x="563" y="323"/>
      <point x="571" y="287"/>
      <point x="572" y="259" type="curve"/>
      <point x="633" y="259"/>
      <point x="679" y="259"/>
      <point x="717" y="271" type="curve" smooth="yes"/>
      <point x="756" y="284"/>
      <point x="770" y="306"/>
      <point x="779" y="355" type="curve" smooth="yes"/>
      <point x="802" y="475" type="line"/>
    </contour>
    <contour>
      <point x="433" y="281" type="line"/>
      <point x="417" y="194" type="line"/>
      <point x="607" y="194" type="line"/>
      <point x="623" y="281" type="line"/>
    </contour>
    <contour>
      <point x="571" y="281" type="line"/>
      <point x="568" y="263" type="line"/>
      <point x="546" y="238"/>
      <point x="504" y="200"/>
      <point x="471" y="177" type="curve"/>
      <point x="483" y="164"/>
      <point x="505" y="135"/>
      <point x="513" y="117" type="curve"/>
      <point x="567" y="147"/>
      <point x="628" y="191"/>
      <point x="677" y="231" type="curve"/>
      <point x="623" y="287" type="line"/>
      <point x="599" y="281" type="line"/>
    </contour>
    <contour>
      <point x="471" y="177" type="line"/>
      <point x="441" y="16" type="line"/>
      <point x="440" y="8"/>
      <point x="436" y="5"/>
      <point x="427" y="5" type="curve" smooth="yes"/>
      <point x="419" y="5"/>
      <point x="393" y="5"/>
      <point x="371" y="6" type="curve"/>
      <point x="378" y="-21"/>
      <point x="383" y="-58"/>
      <point x="382" y="-86" type="curve"/>
      <point x="430" y="-87"/>
      <point x="467" y="-86"/>
      <point x="499" y="-72" type="curve" smooth="yes"/>
      <point x="533" y="-57"/>
      <point x="544" y="-33"/>
      <point x="552" y="13" type="curve" smooth="yes"/>
      <point x="583" y="177" type="line"/>
    </contour>
    <contour>
      <point x="691" y="281" type="line"/>
      <point x="675" y="194" type="line"/>
      <point x="878" y="194" type="line"/>
      <point x="894" y="281" type="line"/>
    </contour>
    <contour>
      <point x="651" y="131" type="line"/>
      <point x="633" y="37" type="line"/>
      <point x="922" y="37" type="line"/>
      <point x="940" y="131" type="line"/>
    </contour>
    <contour>
      <point x="859" y="281" type="line"/>
      <point x="856" y="263" type="line"/>
      <point x="833" y="238"/>
      <point x="787" y="200"/>
      <point x="750" y="177" type="curve"/>
      <point x="762" y="164"/>
      <point x="783" y="134"/>
      <point x="793" y="116" type="curve"/>
      <point x="850" y="146"/>
      <point x="915" y="189"/>
      <point x="966" y="230" type="curve"/>
      <point x="911" y="287" type="line"/>
      <point x="887" y="281" type="line"/>
    </contour>
    <contour>
      <point x="750" y="177" type="line"/>
      <point x="719" y="12" type="line"/>
      <point x="718" y="3"/>
      <point x="714" y="1"/>
      <point x="704" y="1" type="curve" smooth="yes"/>
      <point x="695" y="1"/>
      <point x="664" y="1"/>
      <point x="639" y="2" type="curve"/>
      <point x="647" y="-26"/>
      <point x="653" y="-66"/>
      <point x="651" y="-96" type="curve"/>
      <point x="704" y="-96"/>
      <point x="744" y="-96"/>
      <point x="779" y="-81" type="curve" smooth="yes"/>
      <point x="815" y="-65"/>
      <point x="826" y="-40"/>
      <point x="836" y="9" type="curve" smooth="yes"/>
      <point x="867" y="177" type="line"/>
    </contour>
    <contour>
      <point x="285" y="853" type="line"/>
      <point x="223" y="721"/>
      <point x="135" y="589"/>
      <point x="49" y="502" type="curve"/>
      <point x="63" y="464"/>
      <point x="78" y="378"/>
      <point x="81" y="343" type="curve"/>
      <point x="200" y="460"/>
      <point x="322" y="647"/>
      <point x="407" y="814" type="curve"/>
    </contour>
    <contour>
      <point x="153" y="543" type="line"/>
      <point x="32" y="-95" type="line"/>
      <point x="158" y="-95" type="line"/>
      <point x="302" y="665" type="line"/>
      <point x="300" y="667" type="line"/>
    </contour>
  </outline>
</glyph>
<glyph name="uni52D0" format="2">
  <advance height="1000" width="1000"/>
  <unicode hex="52D0"/>
  <outline>
    <contour>
      <point x="190" y="815" type="line"/>
      <point x="168" y="699" type="line"/>
      <point x="511" y="699" type="line"/>
      <point x="533" y="815" type="line"/>
    </contour>
    <contour>
      <point x="110" y="624" type="line"/>
      <point x="87" y="503" type="line"/>
      <point x="569" y="503" type="line"/>
      <point x="592" y="624" type="line"/>
    </contour>
    <contour>
      <point x="306" y="658" type="line"/>
      <point x="271" y="471" type="line" smooth="yes"/>
      <point x="269" y="459"/>
      <point x="263" y="457"/>
      <point x="248" y="456" type="curve"/>
      <point x="234" y="456"/>
      <point x="178" y="456"/>
      <point x="138" y="458" type="curve"/>
      <point x="152" y="427"/>
      <point x="167" y="377"/>
      <point x="170" y="341" type="curve"/>
      <point x="234" y="341"/>
      <point x="285" y="343"/>
      <point x="332" y="361" type="curve" smooth="yes"/>
      <point x="380" y="379"/>
      <point x="397" y="408"/>
      <point x="408" y="467" type="curve" smooth="yes"/>
      <point x="444" y="658" type="line"/>
    </contour>
    <contour>
      <point x="476" y="815" type="line"/>
      <point x="471" y="791" type="line"/>
      <point x="439" y="750"/>
      <point x="372" y="691"/>
      <point x="306" y="658" type="curve"/>
      <point x="321" y="642"/>
      <point x="348" y="608"/>
      <point x="358" y="586" type="curve"/>
      <point x="457" y="627"/>
      <point x="545" y="694"/>
      <point x="612" y="761" type="curve"/>
      <point x="542" y="821" type="line"/>
      <point x="511" y="815" type="line"/>
    </contour>
    <contour>
      <point x="-18" y="68" type="curve"/>
      <point x="-32" y="-64" type="line"/>
      <point x="104" y="-55"/>
      <point x="293" y="-43"/>
      <point x="470" y="-29" type="curve"/>
      <point x="493" y="97" type="line"/>
      <point x="313" y="86"/>
      <point x="115" y="74"/>
    </contour>
    <contour>
      <point x="66" y="331" type="line"/>
      <point x="10" y="39" type="line"/>
      <point x="113" y="44" type="line"/>
      <point x="168" y="331" type="line"/>
    </contour>
    <contour>
      <point x="181" y="261" type="line"/>
      <point x="137" y="24" type="line"/>
      <point x="220" y="31" type="line"/>
      <point x="263" y="261" type="line"/>
    </contour>
    <contour>
      <point x="288" y="261" type="line"/>
      <point x="246" y="37" type="line"/>
      <point x="329" y="43" type="line"/>
      <point x="370" y="261" type="line"/>
    </contour>
    <contour>
      <point x="409" y="331" type="line"/>
      <point x="358" y="64" type="line"/>
      <point x="465" y="73" type="line"/>
      <point x="514" y="331" type="line"/>
    </contour>
    <contour>
      <point x="106" y="331" type="line"/>
      <point x="85" y="222" type="line"/>
      <point x="432" y="222" type="line"/>
      <point x="453" y="331" type="line"/>
    </contour>
    <contour>
      <point x="608" y="616" type="line"/>
      <point x="584" y="485" type="line"/>
      <point x="909" y="485" type="line"/>
      <point x="933" y="616" type="line"/>
    </contour>
    <contour>
      <point x="869" y="616" type="line"/>
      <point x="864" y="587" type="line" smooth="yes"/>
      <point x="789" y="216"/>
      <point x="758" y="83"/>
      <point x="733" y="55" type="curve" smooth="yes"/>
      <point x="721" y="41"/>
      <point x="712" y="37"/>
      <point x="697" y="37" type="curve" smooth="yes"/>
      <point x="678" y="37"/>
      <point x="648" y="37"/>
      <point x="614" y="41" type="curve"/>
      <point x="628" y="3"/>
      <point x="633" y="-54"/>
      <point x="627" y="-93" type="curve"/>
      <point x="673" y="-94"/>
      <point x="716" y="-94"/>
      <point x="748" y="-87" type="curve" smooth="yes"/>
      <point x="782" y="-80"/>
      <point x="807" y="-68"/>
      <point x="838" y="-31" type="curve" smooth="yes"/>
      <point x="877" y="14"/>
      <point x="910" y="160"/>
      <point x="992" y="556" type="curve" smooth="yes"/>
      <point x="996" y="573"/>
      <point x="1004" y="616"/>
      <point x="1004" y="616" type="curve"/>
    </contour>
    <contour>
      <point x="729" y="841" type="line"/>
      <point x="655" y="455"/>
      <point x="613" y="174"/>
      <point x="430" y="-2" type="curve"/>
      <point x="460" y="-23"/>
      <point x="495" y="-68"/>
      <point x="509" y="-100" type="curve"/>
      <point x="716" y="101"/>
      <point x="780" y="425"/>
      <point x="861" y="841" type="curve"/>
    </contour>
  </outline>
</glyph>
<glyph name="uni539A" format="2">
  <advance height="1000" width="1000"/>
  <unicode hex="539A"/>
  <outline>
    <contour>
      <point x="202" y="181" type="line"/>
      <point x="181" y="71" type="line"/>
      <point x="915" y="71" type="line"/>
      <point x="936" y="181" type="line"/>
    </contour>
    <contour>
      <point x="295" y="340" type="line"/>
      <point x="277" y="245" type="line"/>
      <point x="755" y="245" type="line"/>
      <point x="773" y="340" type="line"/>
    </contour>
    <contour>
      <point x="468" y="476" type="line"/>
      <point x="764" y="476" type="line"/>
      <point x="759" y="449" type="line"/>
      <point x="463" y="449" type="line"/>
    </contour>
    <contour>
      <point x="488" y="581" type="line"/>
      <point x="784" y="581" type="line"/>
      <point x="779" y="555" type="line"/>
      <point x="483" y="555" type="line"/>
    </contour>
    <contour>
      <point x="367" y="666" type="line"/>
      <point x="310" y="364" type="line"/>
      <point x="887" y="364" type="line"/>
      <point x="944" y="666" type="line"/>
    </contour>
    <contour>
      <point x="498" y="211" type="line"/>
      <point x="466" y="43" type="line" smooth="yes"/>
      <point x="464" y="30"/>
      <point x="457" y="27"/>
      <point x="440" y="27" type="curve"/>
      <point x="424" y="26"/>
      <point x="353" y="26"/>
      <point x="306" y="29" type="curve"/>
      <point x="318" y="-3"/>
      <point x="330" y="-52"/>
      <point x="332" y="-87" type="curve"/>
      <point x="409" y="-88"/>
      <point x="471" y="-87"/>
      <point x="523" y="-71" type="curve" smooth="yes"/>
      <point x="574" y="-54"/>
      <point x="595" y="-24"/>
      <point x="607" y="38" type="curve" smooth="yes"/>
      <point x="640" y="211" type="line"/>
    </contour>
    <contour>
      <point x="751" y="340" type="line"/>
      <point x="747" y="315" type="line"/>
      <point x="697" y="284"/>
      <point x="586" y="236"/>
      <point x="498" y="211" type="curve"/>
      <point x="512" y="194"/>
      <point x="537" y="157"/>
      <point x="547" y="136" type="curve"/>
      <point x="664" y="169"/>
      <point x="786" y="219"/>
      <point x="888" y="268" type="curve"/>
      <point x="818" y="346" type="line"/>
      <point x="787" y="340" type="line"/>
    </contour>
    <contour>
      <point x="282" y="823" type="line"/>
      <point x="257" y="692" type="line"/>
      <point x="1027" y="692" type="line"/>
      <point x="1052" y="823" type="line"/>
    </contour>
    <contour>
      <point x="197" y="823" type="line"/>
      <point x="137" y="508" type="line" smooth="yes"/>
      <point x="107" y="350"/>
      <point x="59" y="125"/>
      <point x="-52" y="-25" type="curve"/>
      <point x="-18" y="-38"/>
      <point x="39" y="-73"/>
      <point x="63" y="-96" type="curve"/>
      <point x="183" y="68"/>
      <point x="247" y="333"/>
      <point x="280" y="508" type="curve" smooth="yes"/>
      <point x="340" y="823" type="line"/>
    </contour>
  </outline>
</glyph>
<glyph name="uni54F1" format="2">
  <advance height="1000" width="1000"/>
  <unicode hex="54F1"/>
  <outline>
    <contour>
      <point x="707" y="855" type="line"/>
      <point x="645" y="531" type="line"/>
      <point x="788" y="531" type="line"/>
      <point x="850" y="855" type="line"/>
    </contour>
    <contour>
      <point x="492" y="429" type="line"/>
      <point x="470" y="313" type="line"/>
      <point x="790" y="313" type="line"/>
      <point x="812" y="429" type="line"/>
    </contour>
    <contour>
      <point x="762" y="429" type="line"/>
      <point x="757" y="404" type="line"/>
      <point x="725" y="371"/>
      <point x="655" y="315"/>
      <point x="599" y="284" type="curve"/>
      <point x="612" y="267"/>
      <point x="640" y="230"/>
      <point x="651" y="207" type="curve"/>
      <point x="738" y="248"/>
      <point x="829" y="307"/>
      <point x="904" y="358" type="curve"/>
      <point x="832" y="436" type="line"/>
      <point x="800" y="429" type="line"/>
    </contour>
    <contour>
      <point x="599" y="284" type="line"/>
      <point x="554" y="45" type="line"/>
      <point x="551" y="33"/>
      <point x="546" y="30"/>
      <point x="532" y="30" type="curve" smooth="yes"/>
      <point x="518" y="30"/>
      <point x="464" y="30"/>
      <point x="427" y="32" type="curve"/>
      <point x="437" y="-4"/>
      <point x="445" y="-58"/>
      <point x="444" y="-97" type="curve"/>
      <point x="514" y="-97"/>
      <point x="570" y="-96"/>
      <point x="617" y="-77" type="curve" smooth="yes"/>
      <point x="666" y="-57"/>
      <point x="685" y="-23"/>
      <point x="697" y="40" type="curve" smooth="yes"/>
      <point x="743" y="284" type="line"/>
    </contour>
    <contour>
      <point x="382" y="240" type="line"/>
      <point x="358" y="113" type="line"/>
      <point x="930" y="113" type="line"/>
      <point x="954" y="240" type="line"/>
    </contour>
    <contour>
      <point x="447" y="590" type="line"/>
      <point x="409" y="392" type="line"/>
      <point x="535" y="392" type="line"/>
      <point x="550" y="469" type="line"/>
      <point x="860" y="469" type="line"/>
      <point x="845" y="392" type="line"/>
      <point x="978" y="392" type="line"/>
      <point x="1016" y="590" type="line"/>
    </contour>
    <contour>
      <point x="486" y="777" type="line"/>
      <point x="462" y="653" type="line"/>
      <point x="1007" y="653" type="line"/>
      <point x="1031" y="777" type="line"/>
    </contour>
    <contour>
      <point x="221" y="773" type="line"/>
      <point x="196" y="640" type="line"/>
      <point x="291" y="640" type="line"/>
      <point x="226" y="298" type="line"/>
      <point x="131" y="298" type="line"/>
      <point x="106" y="165" type="line"/>
      <point x="331" y="165" type="line"/>
      <point x="446" y="773" type="line"/>
    </contour>
    <contour>
      <point x="145" y="773" type="line"/>
      <point x="14" y="80" type="line"/>
      <point x="143" y="80" type="line"/>
      <point x="274" y="773" type="line"/>
    </contour>
  </outline>
</glyph>
<glyph name="uni56DD" format="2">
  <advance height="1000" width="1000"/>
  <unicode hex="56DD"/>
  <outline>
    <contour>
      <point x="360" y="623" type="line"/>
      <point x="338" y="508" type="line"/>
      <point x="681" y="508" type="line"/>
      <point x="703" y="623" type="line"/>
    </contour>
    <contour>
      <point x="271" y="422" type="line"/>
      <point x="248" y="301" type="line"/>
      <point x="744" y="301" type="line"/>
      <point x="767" y="422" type="line"/>
    </contour>
    <contour>
      <point x="479" y="470" type="line"/>
      <point x="434" y="235" type="line" smooth="yes"/>
      <point x="432" y="224"/>
      <point x="427" y="221"/>
      <point x="413" y="220" type="curve"/>
      <point x="398" y="220"/>
      <point x="344" y="220"/>
      <point x="304" y="222" type="curve"/>
      <point x="316" y="189"/>
      <point x="328" y="137"/>
      <point x="328" y="101" type="curve"/>
      <point x="395" y="100"/>
      <point x="448" y="102"/>
      <point x="495" y="120" type="curve" smooth="yes"/>
      <point x="541" y="139"/>
      <point x="559" y="171"/>
      <point x="571" y="231" type="curve" smooth="yes"/>
      <point x="616" y="470" type="line"/>
    </contour>
    <contour>
      <point x="651" y="623" type="line"/>
      <point x="646" y="599" type="line"/>
      <point x="613" y="560"/>
      <point x="543" y="503"/>
      <point x="479" y="470" type="curve"/>
      <point x="493" y="454"/>
      <point x="519" y="419"/>
      <point x="530" y="398" type="curve"/>
      <point x="626" y="438"/>
      <point x="717" y="503"/>
      <point x="787" y="565" type="curve"/>
      <point x="717" y="629" type="line"/>
      <point x="686" y="623" type="line"/>
    </contour>
    <contour>
      <point x="162" y="810" type="line"/>
      <point x="-8" y="-89" type="line"/>
      <point x="137" y="-89" type="line"/>
      <point x="281" y="671" type="line"/>
      <point x="849" y="671" type="line"/>
      <point x="707" y="-80" type="line"/>
      <point x="860" y="-80" type="line"/>
      <point x="1028" y="810" type="line"/>
    </contour>
    <contour>
      <point x="107" y="82" type="line"/>
      <point x="81" y="-57" type="line"/>
      <point x="770" y="-57" type="line"/>
      <point x="796" y="82" type="line"/>
    </contour>
  </outline>
</glyph>
<glyph name="uni58DE" format="2">
  <advance height="1000" width="1000"/>
  <unicode hex="58DE"/>
  <outline>
    <contour>
      <point x="361" y="-92" type="curve"/>
      <point x="383" y="-84"/>
      <point x="420" y="-77"/>
      <point x="594" y="-38" type="curve"/>
      <point x="594" y="-38"/>
      <point x="613" y="72"/>
      <point x="613" y="72" type="curve"/>
      <point x="613" y="72"/>
      <point x="415" y="36"/>
      <point x="415" y="36" type="curve"/>
      <point x="415" y="36"/>
      <point x="365" y="0"/>
      <point x="365" y="0" type="curve"/>
      <point x="365" y="0"/>
      <point x="361" y="-92"/>
    </contour>
    <contour>
      <point x="361" y="-92" type="curve"/>
      <point x="361" y="-92"/>
      <point x="487" y="11"/>
      <point x="487" y="11" type="curve"/>
      <point x="487" y="11"/>
      <point x="517" y="167"/>
      <point x="517" y="167" type="curve"/>
      <point x="517" y="167"/>
      <point x="392" y="167"/>
      <point x="392" y="167" type="curve"/>
      <point x="392" y="167"/>
      <point x="377" y="90"/>
      <point x="377" y="90" type="curve"/>
      <point x="369" y="45"/>
      <point x="348" y="19"/>
      <point x="326" y="5" type="curve"/>
      <point x="326" y="5"/>
      <point x="361" y="-92"/>
    </contour>
    <contour>
      <point x="652" y="838" type="curve"/>
      <point x="657" y="808"/>
      <point x="658" y="766"/>
      <point x="655" y="741" type="curve"/>
      <point x="655" y="741"/>
      <point x="812" y="769"/>
      <point x="812" y="769" type="curve"/>
      <point x="814" y="795"/>
      <point x="809" y="834"/>
      <point x="801" y="863" type="curve"/>
      <point x="801" y="863"/>
      <point x="652" y="838"/>
    </contour>
    <contour>
      <point x="411" y="802" type="curve"/>
      <point x="411" y="802"/>
      <point x="390" y="691"/>
      <point x="390" y="691" type="curve"/>
      <point x="390" y="691"/>
      <point x="1030" y="691"/>
      <point x="1030" y="691" type="curve"/>
      <point x="1030" y="691"/>
      <point x="1051" y="802"/>
      <point x="1051" y="802" type="curve"/>
      <point x="1051" y="802"/>
      <point x="411" y="802"/>
    </contour>
    <contour>
      <point x="374" y="427" type="curve"/>
      <point x="374" y="427"/>
      <point x="358" y="345"/>
      <point x="358" y="345" type="curve"/>
      <point x="358" y="345"/>
      <point x="552" y="345"/>
      <point x="552" y="345" type="curve"/>
      <point x="552" y="345"/>
      <point x="568" y="427"/>
      <point x="568" y="427" type="curve"/>
      <point x="568" y="427"/>
      <point x="374" y="427"/>
    </contour>
    <contour>
      <point x="755" y="427" type="curve"/>
      <point x="755" y="427"/>
      <point x="739" y="345"/>
      <point x="739" y="345" type="curve"/>
      <point x="739" y="345"/>
      <point x="938" y="345"/>
      <point x="938" y="345" type="curve"/>
      <point x="938" y="345"/>
      <point x="954" y="427"/>
      <point x="954" y="427" type="curve"/>
      <point x="954" y="427"/>
      <point x="755" y="427"/>
    </contour>
    <contour>
      <point x="341" y="323" type="curve"/>
      <point x="341" y="323"/>
      <point x="326" y="241"/>
      <point x="326" y="241" type="curve"/>
      <point x="326" y="241"/>
      <point x="534" y="241"/>
      <point x="534" y="241" type="curve"/>
      <point x="534" y="241"/>
      <point x="549" y="323"/>
      <point x="549" y="323" type="curve"/>
      <point x="549" y="323"/>
      <point x="341" y="323"/>
    </contour>
    <contour>
      <point x="735" y="323" type="curve"/>
      <point x="735" y="323"/>
      <point x="720" y="241"/>
      <point x="720" y="241" type="curve"/>
      <point x="720" y="241"/>
      <point x="932" y="241"/>
      <point x="932" y="241" type="curve"/>
      <point x="932" y="241"/>
      <point x="947" y="323"/>
      <point x="947" y="323" type="curve"/>
      <point x="947" y="323"/>
      <point x="735" y="323"/>
    </contour>
    <contour>
      <point x="596" y="433" type="curve"/>
      <point x="596" y="433"/>
      <point x="563" y="257"/>
      <point x="563" y="257" type="curve"/>
      <point x="563" y="257"/>
      <point x="693" y="257"/>
      <point x="693" y="257" type="curve"/>
      <point x="693" y="257"/>
      <point x="726" y="433"/>
      <point x="726" y="433" type="curve"/>
      <point x="726" y="433"/>
      <point x="596" y="433"/>
    </contour>
    <contour>
      <point x="655" y="252" type="curve"/>
      <point x="655" y="252"/>
      <point x="538" y="228"/>
      <point x="538" y="228" type="curve"/>
      <point x="573" y="69"/>
      <point x="657" y="-38"/>
      <point x="825" y="-88" type="curve"/>
      <point x="850" y="-52"/>
      <point x="898" y="2"/>
      <point x="932" y="29" type="curve"/>
      <point x="777" y="61"/>
      <point x="685" y="140"/>
    </contour>
    <contour>
      <point x="855" y="249" type="curve"/>
      <point x="803" y="213"/>
      <point x="718" y="165"/>
      <point x="659" y="139" type="curve"/>
      <point x="659" y="139"/>
      <point x="723" y="65"/>
      <point x="723" y="65" type="curve"/>
      <point x="784" y="89"/>
      <point x="866" y="127"/>
      <point x="936" y="167" type="curve"/>
      <point x="936" y="167"/>
      <point x="855" y="249"/>
    </contour>
    <contour>
      <point x="806" y="582" type="curve"/>
      <point x="806" y="582"/>
      <point x="845" y="582"/>
      <point x="845" y="582" type="curve"/>
      <point x="845" y="582"/>
      <point x="836" y="536"/>
      <point x="836" y="536" type="curve"/>
      <point x="836" y="536"/>
      <point x="797" y="536"/>
      <point x="797" y="536" type="curve"/>
      <point x="797" y="536"/>
      <point x="806" y="582"/>
    </contour>
    <contour>
      <point x="670" y="582" type="curve"/>
      <point x="670" y="582"/>
      <point x="708" y="582"/>
      <point x="708" y="582" type="curve"/>
      <point x="708" y="582"/>
      <point x="699" y="536"/>
      <point x="699" y="536" type="curve"/>
      <point x="699" y="536"/>
      <point x="661" y="536"/>
      <point x="661" y="536" type="curve"/>
      <point x="661" y="536"/>
      <point x="670" y="582"/>
    </contour>
    <contour>
      <point x="533" y="582" type="curve"/>
      <point x="533" y="582"/>
      <point x="571" y="582"/>
      <point x="571" y="582" type="curve"/>
      <point x="571" y="582"/>
      <point x="562" y="536"/>
      <point x="562" y="536" type="curve"/>
      <point x="562" y="536"/>
      <point x="524" y="536"/>
      <point x="524" y="536" type="curve"/>
      <point x="524" y="536"/>
      <point x="533" y="582"/>
    </contour>
    <contour>
      <point x="425" y="664" type="curve"/>
      <point x="425" y="664"/>
      <point x="386" y="454"/>
      <point x="386" y="454" type="curve"/>
      <point x="386" y="454"/>
      <point x="952" y="454"/>
      <point x="952" y="454" type="curve"/>
      <point x="952" y="454"/>
      <point x="991" y="664"/>
      <point x="991" y="664" type="curve"/>
      <point x="991" y="664"/>
      <point x="425" y="664"/>
    </contour>
    <contour>
      <point x="591" y="279" type="curve"/>
      <point x="516" y="230"/>
      <point x="400" y="191"/>
      <point x="242" y="168" type="curve"/>
      <point x="262" y="145"/>
      <point x="288" y="94"/>
      <point x="296" y="63" type="curve"/>
      <point x="471" y="104"/>
      <point x="599" y="152"/>
      <point x="710" y="236" type="curve"/>
      <point x="710" y="236"/>
      <point x="591" y="279"/>
    </contour>
    <contour>
      <point x="102" y="643" type="curve"/>
      <point x="102" y="643"/>
      <point x="76" y="506"/>
      <point x="76" y="506" type="curve"/>
      <point x="76" y="506"/>
      <point x="360" y="506"/>
      <point x="360" y="506" type="curve"/>
      <point x="360" y="506"/>
      <point x="386" y="643"/>
      <point x="386" y="643" type="curve"/>
      <point x="386" y="643"/>
      <point x="102" y="643"/>
    </contour>
    <contour>
      <point x="222" y="839" type="curve"/>
      <point x="222" y="839"/>
      <point x="102" y="204"/>
      <point x="102" y="204" type="curve"/>
      <point x="102" y="204"/>
      <point x="233" y="204"/>
      <point x="233" y="204" type="curve"/>
      <point x="233" y="204"/>
      <point x="353" y="839"/>
      <point x="353" y="839" type="curve"/>
      <point x="353" y="839"/>
      <point x="222" y="839"/>
    </contour>
    <contour>
      <point x="-2" y="219" type="curve"/>
      <point x="-2" y="219"/>
      <point x="9" y="77"/>
      <point x="9" y="77" type="curve"/>
      <point x="106" y="118"/>
      <point x="223" y="167"/>
      <point x="329" y="214" type="curve"/>
      <point x="329" y="214"/>
      <point x="319" y="341"/>
      <point x="319" y="341" type="curve"/>
      <point x="204" y="294"/>
      <point x="79" y="245"/>
    </contour>
  </outline>
</glyph>
<glyph name="uni5B58" format="2">
  <advance height="1000" width="1000"/>
  <unicode hex="5B58"/>
  <outline>
    <contour>
      <point x="349" y="280" type="line"/>
      <point x="323" y="145" type="line"/>
      <point x="931" y="145" type="line"/>
      <point x="957" y="280" type="line"/>
    </contour>
    <contour>
      <point x="470" y="528" type="line"/>
      <point x="445" y="398" type="line"/>
      <point x="810" y="398" type="line"/>
      <point x="835" y="528" type="line"/>
    </contour>
    <contour>
      <point x="602" y="342" type="line"/>
      <point x="548" y="56" type="line"/>
      <point x="545" y="44"/>
      <point x="540" y="41"/>
      <point x="524" y="40" type="curve"/>
      <point x="509" y="40"/>
      <point x="449" y="40"/>
      <point x="409" y="43" type="curve"/>
      <point x="419" y="3"/>
      <point x="425" y="-55"/>
      <point x="422" y="-96" type="curve"/>
      <point x="499" y="-97"/>
      <point x="560" y="-95"/>
      <point x="611" y="-75" type="curve" smooth="yes"/>
      <point x="663" y="-54"/>
      <point x="681" y="-17"/>
      <point x="694" y="52" type="curve" smooth="yes"/>
      <point x="749" y="342" type="line"/>
    </contour>
    <contour>
      <point x="800" y="528" type="line"/>
      <point x="795" y="501" type="line"/>
      <point x="756" y="457"/>
      <point x="670" y="383"/>
      <point x="602" y="342" type="curve"/>
      <point x="618" y="322"/>
      <point x="648" y="283"/>
      <point x="661" y="258" type="curve"/>
      <point x="757" y="310"/>
      <point x="863" y="391"/>
      <point x="944" y="461" type="curve"/>
      <point x="867" y="536" type="line"/>
      <point x="836" y="528" type="line"/>
    </contour>
    <contour>
      <point x="128" y="725" type="line"/>
      <point x="102" y="586" type="line"/>
      <point x="1003" y="586" type="line"/>
      <point x="1029" y="725" type="line"/>
    </contour>
    <contour>
      <point x="461" y="856" type="line"/>
      <point x="373" y="654"/>
      <point x="215" y="428"/>
      <point x="10" y="314" type="curve"/>
      <point x="26" y="278"/>
      <point x="44" y="213"/>
      <point x="52" y="173" type="curve"/>
      <point x="305" y="321"/>
      <point x="481" y="570"/>
      <point x="605" y="820" type="curve"/>
    </contour>
    <contour>
      <point x="180" y="433" type="line"/>
      <point x="80" y="-94" type="line"/>
      <point x="227" y="-94" type="line"/>
      <point x="327" y="433" type="line"/>
    </contour>
  </outline>
</glyph>
<glyph name="uni5B5B" format="2">
  <advance height="1000" width="1000"/>
  <unicode hex="5B5B"/>
  <outline>
    <contour>
      <point x="47" y="243" type="line"/>
      <point x="23" y="119" type="line"/>
      <point x="906" y="119" type="line"/>
      <point x="930" y="243" type="line"/>
    </contour>
    <contour>
      <point x="135" y="780" type="line"/>
      <point x="113" y="659" type="line"/>
      <point x="1014" y="659" type="line"/>
      <point x="1036" y="780" type="line"/>
    </contour>
    <contour>
      <point x="269" y="453" type="line"/>
      <point x="248" y="342" type="line"/>
      <point x="676" y="342" type="line"/>
      <point x="697" y="453" type="line"/>
    </contour>
    <contour>
      <point x="426" y="291" type="line"/>
      <point x="378" y="39" type="line"/>
      <point x="376" y="24"/>
      <point x="368" y="21"/>
      <point x="350" y="20" type="curve"/>
      <point x="332" y="20"/>
      <point x="256" y="19"/>
      <point x="205" y="22" type="curve"/>
      <point x="218" y="-10"/>
      <point x="231" y="-60"/>
      <point x="232" y="-96" type="curve"/>
      <point x="315" y="-96"/>
      <point x="380" y="-95"/>
      <point x="433" y="-78" type="curve" smooth="yes"/>
      <point x="486" y="-61"/>
      <point x="509" y="-31"/>
      <point x="521" y="34" type="curve" smooth="yes"/>
      <point x="570" y="291" type="line"/>
    </contour>
    <contour>
      <point x="649" y="453" type="line"/>
      <point x="644" y="426" type="line"/>
      <point x="602" y="387"/>
      <point x="504" y="325"/>
      <point x="426" y="291" type="curve"/>
      <point x="443" y="271"/>
      <point x="473" y="229"/>
      <point x="485" y="202" type="curve"/>
      <point x="591" y="248"/>
      <point x="706" y="319"/>
      <point x="794" y="383" type="curve"/>
      <point x="717" y="460" type="line"/>
      <point x="686" y="453" type="line"/>
    </contour>
    <contour>
      <point x="529" y="855" type="line"/>
      <point x="471" y="549" type="line"/>
      <point x="615" y="549" type="line"/>
      <point x="673" y="855" type="line"/>
    </contour>
    <contour>
      <point x="137" y="612" type="line"/>
      <point x="94" y="385" type="line"/>
      <point x="233" y="385" type="line"/>
      <point x="253" y="492" type="line"/>
      <point x="814" y="492" type="line"/>
      <point x="794" y="385" type="line"/>
      <point x="940" y="385" type="line"/>
      <point x="983" y="612" type="line"/>
    </contour>
  </outline>
</glyph>
<glyph name="uni5B5F" format="2">
  <advance height="1000" width="1000"/>
  <unicode hex="5B5F"/>
  <outline>
    <contour>
      <point x="-9" y="56" type="line"/>
      <point x="-34" y="-73" type="line"/>
      <point x="885" y="-73" type="line"/>
      <point x="910" y="56" type="line"/>
    </contour>
    <contour>
      <point x="127" y="599" type="line"/>
      <point x="104" y="477" type="line"/>
      <point x="951" y="477" type="line"/>
      <point x="974" y="599" type="line"/>
    </contour>
    <contour>
      <point x="126" y="288" type="line"/>
      <point x="71" y="-3" type="line"/>
      <point x="206" y="-3" type="line"/>
      <point x="239" y="168" type="line"/>
      <point x="307" y="168" type="line"/>
      <point x="274" y="-3" type="line"/>
      <point x="406" y="-3" type="line"/>
      <point x="439" y="168" type="line"/>
      <point x="508" y="168" type="line"/>
      <point x="475" y="-3" type="line"/>
      <point x="607" y="-3" type="line"/>
      <point x="640" y="168" type="line"/>
      <point x="710" y="168" type="line"/>
      <point x="677" y="-3" type="line"/>
      <point x="819" y="-3" type="line"/>
      <point x="874" y="288" type="line"/>
    </contour>
    <contour>
      <point x="296" y="826" type="line"/>
      <point x="273" y="702" type="line"/>
      <point x="773" y="702" type="line"/>
      <point x="796" y="826" type="line"/>
    </contour>
    <contour>
      <point x="785" y="826" type="line"/>
      <point x="780" y="800" type="line"/>
      <point x="728" y="756"/>
      <point x="603" y="691"/>
      <point x="501" y="656" type="curve"/>
      <point x="519" y="635"/>
      <point x="547" y="593"/>
      <point x="559" y="567" type="curve"/>
      <point x="682" y="614"/>
      <point x="822" y="688"/>
      <point x="924" y="760" type="curve"/>
      <point x="847" y="833" type="line"/>
      <point x="818" y="826" type="line"/>
    </contour>
    <contour>
      <point x="501" y="656" type="line"/>
      <point x="461" y="445" type="line" smooth="yes"/>
      <point x="459" y="432"/>
      <point x="452" y="429"/>
      <point x="434" y="428" type="curve"/>
      <point x="418" y="428"/>
      <point x="350" y="428"/>
      <point x="306" y="430" type="curve"/>
      <point x="323" y="398"/>
      <point x="345" y="343"/>
      <point x="350" y="304" type="curve"/>
      <point x="416" y="304"/>
      <point x="473" y="305"/>
      <point x="526" y="325" type="curve" smooth="yes"/>
      <point x="581" y="345"/>
      <point x="603" y="375"/>
      <point x="615" y="440" type="curve" smooth="yes"/>
      <point x="656" y="656" type="line"/>
    </contour>
  </outline>
</glyph>
<glyph name="uni5B63" format="2">
  <advance height="1000" width="1000"/>
  <unicode hex="5B63"/>
  <outline>
    <contour>
      <point x="32" y="212" type="line"/>
      <point x="9" y="88" type="line"/>
      <point x="905" y="88" type="line"/>
      <point x="928" y="212" type="line"/>
    </contour>
    <contour>
      <point x="248" y="391" type="line"/>
      <point x="227" y="280" type="line"/>
      <point x="660" y="280" type="line"/>
      <point x="681" y="391" type="line"/>
    </contour>
    <contour>
      <point x="418" y="258" type="line"/>
      <point x="378" y="47" type="line" smooth="yes"/>
      <point x="375" y="34"/>
      <point x="369" y="31"/>
      <point x="350" y="30" type="curve"/>
      <point x="332" y="30"/>
      <point x="255" y="30"/>
      <point x="202" y="33" type="curve"/>
      <point x="216" y="-2"/>
      <point x="228" y="-55"/>
      <point x="228" y="-93" type="curve"/>
      <point x="310" y="-93"/>
      <point x="376" y="-93"/>
      <point x="431" y="-75" type="curve" smooth="yes"/>
      <point x="485" y="-56"/>
      <point x="507" y="-24"/>
      <point x="520" y="42" type="curve" smooth="yes"/>
      <point x="561" y="258" type="line"/>
    </contour>
    <contour>
      <point x="629" y="391" type="line"/>
      <point x="624" y="366" type="line"/>
      <point x="584" y="334"/>
      <point x="491" y="285"/>
      <point x="418" y="258" type="curve"/>
      <point x="432" y="239"/>
      <point x="460" y="200"/>
      <point x="471" y="176" type="curve"/>
      <point x="573" y="213"/>
      <point x="682" y="268"/>
      <point x="769" y="320" type="curve"/>
      <point x="697" y="398" type="line"/>
      <point x="666" y="391" type="line"/>
    </contour>
    <contour>
      <point x="119" y="656" type="line"/>
      <point x="96" y="535" type="line"/>
      <point x="988" y="535" type="line"/>
      <point x="1011" y="656" type="line"/>
    </contour>
    <contour>
      <point x="508" y="755" type="line"/>
      <point x="443" y="413" type="line"/>
      <point x="586" y="413" type="line"/>
      <point x="651" y="755" type="line"/>
    </contour>
    <contour>
      <point x="428" y="612" type="line"/>
      <point x="340" y="529"/>
      <point x="183" y="452"/>
      <point x="38" y="413" type="curve"/>
      <point x="62" y="386"/>
      <point x="92" y="335"/>
      <point x="106" y="303" type="curve"/>
      <point x="260" y="354"/>
      <point x="421" y="451"/>
      <point x="532" y="564" type="curve"/>
    </contour>
    <contour>
      <point x="680" y="609" type="curve"/>
      <point x="560" y="562" type="line"/>
      <point x="627" y="451"/>
      <point x="749" y="357"/>
      <point x="885" y="309" type="curve"/>
      <point x="912" y="343"/>
      <point x="962" y="396"/>
      <point x="997" y="423" type="curve"/>
      <point x="864" y="458"/>
      <point x="737" y="529"/>
    </contour>
    <contour>
      <point x="841" y="856" type="line"/>
      <point x="687" y="822"/>
      <point x="430" y="805"/>
      <point x="205" y="802" type="curve"/>
      <point x="212" y="773"/>
      <point x="218" y="720"/>
      <point x="215" y="688" type="curve"/>
      <point x="450" y="690"/>
      <point x="728" y="707"/>
      <point x="941" y="755" type="curve"/>
    </contour>
  </outline>
</glyph>
<glyph name="uni5B66" format="2">
  <advance height="1000" width="1000"/>
  <unicode hex="5B66"/>
  <outline>
    <contour>
      <point x="273" y="511" type="line"/>
      <point x="249" y="386" type="line"/>
      <point x="691" y="386" type="line"/>
      <point x="715" y="511" type="line"/>
    </contour>
    <contour>
      <point x="45" y="288" type="line"/>
      <point x="20" y="155" type="line"/>
      <point x="921" y="155" type="line"/>
      <point x="946" y="288" type="line"/>
    </contour>
    <contour>
      <point x="428" y="346" type="line"/>
      <point x="375" y="66" type="line" smooth="yes"/>
      <point x="373" y="53"/>
      <point x="366" y="49"/>
      <point x="346" y="49" type="curve"/>
      <point x="326" y="48"/>
      <point x="247" y="48"/>
      <point x="192" y="51" type="curve"/>
      <point x="207" y="14"/>
      <point x="222" y="-48"/>
      <point x="223" y="-89" type="curve"/>
      <point x="305" y="-89"/>
      <point x="373" y="-87"/>
      <point x="430" y="-66" type="curve" smooth="yes"/>
      <point x="486" y="-46"/>
      <point x="510" y="-9"/>
      <point x="524" y="62" type="curve" smooth="yes"/>
      <point x="577" y="346" type="line"/>
    </contour>
    <contour>
      <point x="667" y="511" type="line"/>
      <point x="662" y="485" type="line"/>
      <point x="618" y="442"/>
      <point x="517" y="380"/>
      <point x="428" y="346" type="curve"/>
      <point x="445" y="325"/>
      <point x="474" y="285"/>
      <point x="486" y="260" type="curve"/>
      <point x="604" y="304"/>
      <point x="723" y="375"/>
      <point x="813" y="445" type="curve"/>
      <point x="735" y="518" type="line"/>
      <point x="704" y="511" type="line"/>
    </contour>
    <contour>
      <point x="131" y="700" type="line"/>
      <point x="87" y="468" type="line"/>
      <point x="223" y="468" type="line"/>
      <point x="243" y="573" type="line"/>
      <point x="849" y="573" type="line"/>
      <point x="829" y="468" type="line"/>
      <point x="972" y="468" type="line"/>
      <point x="1016" y="700" type="line"/>
    </contour>
    <contour>
      <point x="833" y="848" type="line"/>
      <point x="801" y="792"/>
      <point x="746" y="718"/>
      <point x="700" y="669" type="curve"/>
      <point x="808" y="628" type="line"/>
      <point x="855" y="671"/>
      <point x="918" y="738"/>
      <point x="977" y="804" type="curve"/>
    </contour>
    <contour>
      <point x="234" y="791" type="line"/>
      <point x="259" y="750"/>
      <point x="284" y="694"/>
      <point x="290" y="657" type="curve"/>
      <point x="434" y="718" type="line"/>
      <point x="425" y="756"/>
      <point x="396" y="808"/>
      <point x="369" y="846" type="curve"/>
    </contour>
    <contour>
      <point x="495" y="817" type="line"/>
      <point x="515" y="772"/>
      <point x="533" y="711"/>
      <point x="536" y="672" type="curve"/>
      <point x="684" y="725" type="line"/>
      <point x="679" y="765"/>
      <point x="657" y="823"/>
      <point x="633" y="865" type="curve"/>
    </contour>
  </outline>
</glyph>
<glyph name="uni5B68" format="2">
  <advance height="1000" width="1000"/>
  <unicode hex="5B68"/>
  <outline>
    <contour>
      <point x="148" y="667" type="line"/>
      <point x="127" y="553" type="line"/>
      <point x="974" y="553" type="line"/>
      <point x="995" y="667" type="line"/>
    </contour>
    <contour>
      <point x="472" y="232" type="line"/>
      <point x="450" y="116" type="line"/>
      <point x="923" y="116" type="line"/>
      <point x="945" y="232" type="line"/>
    </contour>
    <contour>
      <point x="300" y="833" type="line"/>
      <point x="279" y="719" type="line"/>
      <point x="784" y="719" type="line"/>
      <point x="805" y="833" type="line"/>
    </contour>
    <contour>
      <point x="518" y="700" type="line"/>
      <point x="487" y="537" type="line" smooth="yes"/>
      <point x="485" y="524"/>
      <point x="478" y="521"/>
      <point x="461" y="520" type="curve"/>
      <point x="447" y="520"/>
      <point x="378" y="519"/>
      <point x="335" y="522" type="curve"/>
      <point x="346" y="493"/>
      <point x="358" y="450"/>
      <point x="360" y="416" type="curve"/>
      <point x="437" y="416"/>
      <point x="496" y="416"/>
      <point x="545" y="431" type="curve" smooth="yes"/>
      <point x="595" y="446"/>
      <point x="615" y="472"/>
      <point x="626" y="531" type="curve" smooth="yes"/>
      <point x="658" y="700" type="line"/>
    </contour>
    <contour>
      <point x="764" y="833" type="line"/>
      <point x="760" y="807" type="line"/>
      <point x="712" y="776"/>
      <point x="602" y="726"/>
      <point x="518" y="700" type="curve"/>
      <point x="532" y="683"/>
      <point x="558" y="645"/>
      <point x="569" y="623" type="curve"/>
      <point x="686" y="658"/>
      <point x="806" y="708"/>
      <point x="909" y="755" type="curve"/>
      <point x="838" y="840" type="line"/>
      <point x="803" y="833" type="line"/>
    </contour>
    <contour>
      <point x="101" y="432" type="line"/>
      <point x="79" y="316" type="line"/>
      <point x="381" y="316" type="line"/>
      <point x="403" y="432" type="line"/>
    </contour>
    <contour>
      <point x="206" y="291" type="line"/>
      <point x="160" y="47" type="line" smooth="yes"/>
      <point x="158" y="36"/>
      <point x="153" y="33"/>
      <point x="139" y="33" type="curve"/>
      <point x="125" y="32"/>
      <point x="75" y="32"/>
      <point x="37" y="34" type="curve"/>
      <point x="48" y="0"/>
      <point x="57" y="-51"/>
      <point x="56" y="-88" type="curve"/>
      <point x="123" y="-88"/>
      <point x="176" y="-86"/>
      <point x="220" y="-68" type="curve" smooth="yes"/>
      <point x="266" y="-49"/>
      <point x="283" y="-16"/>
      <point x="294" y="43" type="curve" smooth="yes"/>
      <point x="341" y="291" type="line"/>
    </contour>
    <contour>
      <point x="385" y="432" type="line"/>
      <point x="380" y="409" type="line"/>
      <point x="345" y="375"/>
      <point x="267" y="321"/>
      <point x="206" y="291" type="curve"/>
      <point x="220" y="274"/>
      <point x="246" y="239"/>
      <point x="256" y="217" type="curve"/>
      <point x="342" y="256"/>
      <point x="439" y="316"/>
      <point x="514" y="369" type="curve"/>
      <point x="447" y="439" type="line"/>
      <point x="418" y="432" type="line"/>
    </contour>
    <contour>
      <point x="548" y="427" type="line"/>
      <point x="526" y="311" type="line"/>
      <point x="828" y="311" type="line"/>
      <point x="850" y="427" type="line"/>
    </contour>
    <contour>
      <point x="645" y="290" type="line"/>
      <point x="600" y="51" type="line"/>
      <point x="597" y="39"/>
      <point x="592" y="36"/>
      <point x="578" y="36" type="curve" smooth="yes"/>
      <point x="564" y="36"/>
      <point x="510" y="36"/>
      <point x="470" y="38" type="curve"/>
      <point x="482" y="4"/>
      <point x="491" y="-48"/>
      <point x="490" y="-85" type="curve"/>
      <point x="559" y="-85"/>
      <point x="613" y="-84"/>
      <point x="659" y="-66" type="curve" smooth="yes"/>
      <point x="706" y="-47"/>
      <point x="723" y="-14"/>
      <point x="735" y="47" type="curve" smooth="yes"/>
      <point x="781" y="290" type="line"/>
    </contour>
    <contour>
      <point x="827" y="427" type="line"/>
      <point x="822" y="403" type="line"/>
      <point x="786" y="371"/>
      <point x="707" y="319"/>
      <point x="645" y="290" type="curve"/>
      <point x="660" y="273"/>
      <point x="686" y="236"/>
      <point x="695" y="214" type="curve"/>
      <point x="785" y="252"/>
      <point x="882" y="310"/>
      <point x="958" y="362" type="curve"/>
      <point x="891" y="434" type="line"/>
      <point x="861" y="427" type="line"/>
    </contour>
    <contour>
      <point x="2" y="213" type="curve"/>
      <point x="-11" y="89" type="line"/>
      <point x="109" y="99"/>
      <point x="273" y="111"/>
      <point x="427" y="125" type="curve"/>
      <point x="448" y="241" type="line"/>
      <point x="288" y="230"/>
      <point x="117" y="219"/>
    </contour>
  </outline>
</glyph>
<glyph name="uni5B71" format="2">
  <advance height="1000" width="1000"/>
  <unicode hex="5B71"/>
  <outline>
    <contour>
      <point x="192" y="818" type="line"/>
      <point x="136" y="522" type="line" smooth="yes"/>
      <point x="106" y="366"/>
      <point x="58" y="139"/>
      <point x="-48" y="-13" type="curve"/>
      <point x="-14" y="-26"/>
      <point x="45" y="-61"/>
      <point x="70" y="-84" type="curve"/>
      <point x="184" y="82"/>
      <point x="248" y="348"/>
      <point x="281" y="522" type="curve" smooth="yes"/>
      <point x="337" y="818" type="line"/>
    </contour>
    <contour>
      <point x="310" y="818" type="line"/>
      <point x="290" y="715" type="line"/>
      <point x="852" y="715" type="line"/>
      <point x="847" y="688" type="line"/>
      <point x="285" y="688" type="line"/>
      <point x="266" y="585" type="line"/>
      <point x="969" y="585" type="line"/>
      <point x="1013" y="818" type="line"/>
    </contour>
    <contour>
      <point x="431" y="563" type="line"/>
      <point x="416" y="480" type="line"/>
      <point x="763" y="480" type="line"/>
      <point x="778" y="563" type="line"/>
    </contour>
    <contour>
      <point x="313" y="442" type="line"/>
      <point x="295" y="348" type="line"/>
      <point x="930" y="348" type="line"/>
      <point x="948" y="442" type="line"/>
    </contour>
    <contour>
      <point x="533" y="139" type="line"/>
      <point x="514" y="39" type="line"/>
      <point x="911" y="39" type="line"/>
      <point x="930" y="139" type="line"/>
    </contour>
    <contour>
      <point x="572" y="467" type="line"/>
      <point x="549" y="343" type="line" smooth="yes"/>
      <point x="547" y="333"/>
      <point x="542" y="330"/>
      <point x="532" y="330" type="curve" smooth="yes"/>
      <point x="524" y="330"/>
      <point x="491" y="330"/>
      <point x="469" y="332" type="curve"/>
      <point x="475" y="309"/>
      <point x="484" y="279"/>
      <point x="486" y="253" type="curve"/>
      <point x="540" y="252"/>
      <point x="582" y="253"/>
      <point x="616" y="263" type="curve" smooth="yes"/>
      <point x="651" y="274"/>
      <point x="664" y="291"/>
      <point x="673" y="337" type="curve" smooth="yes"/>
      <point x="697" y="467" type="line"/>
    </contour>
    <contour>
      <point x="185" y="132" type="curve"/>
      <point x="175" y="28" type="line"/>
      <point x="268" y="37"/>
      <point x="385" y="47"/>
      <point x="499" y="59" type="curve"/>
      <point x="515" y="155" type="line"/>
      <point x="394" y="146"/>
      <point x="270" y="137"/>
    </contour>
    <contour>
      <point x="760" y="563" type="line"/>
      <point x="757" y="546" type="line"/>
      <point x="715" y="520"/>
      <point x="634" y="487"/>
      <point x="572" y="467" type="curve"/>
      <point x="582" y="456"/>
      <point x="600" y="431"/>
      <point x="608" y="416" type="curve"/>
      <point x="688" y="441"/>
      <point x="781" y="476"/>
      <point x="856" y="514" type="curve"/>
      <point x="807" y="568" type="line"/>
      <point x="785" y="563" type="line"/>
    </contour>
    <contour>
      <point x="251" y="284" type="line"/>
      <point x="235" y="199" type="line"/>
      <point x="452" y="199" type="line"/>
      <point x="468" y="284" type="line"/>
    </contour>
    <contour>
      <point x="306" y="176" type="line"/>
      <point x="276" y="16" type="line" smooth="yes"/>
      <point x="274" y="7"/>
      <point x="270" y="5"/>
      <point x="261" y="4" type="curve"/>
      <point x="252" y="4"/>
      <point x="221" y="4"/>
      <point x="197" y="6" type="curve"/>
      <point x="205" y="-20"/>
      <point x="212" y="-56"/>
      <point x="212" y="-86" type="curve"/>
      <point x="265" y="-86"/>
      <point x="306" y="-85"/>
      <point x="341" y="-72" type="curve" smooth="yes"/>
      <point x="378" y="-59"/>
      <point x="390" y="-37"/>
      <point x="399" y="12" type="curve" smooth="yes"/>
      <point x="430" y="176" type="line"/>
    </contour>
    <contour>
      <point x="442" y="284" type="line"/>
      <point x="438" y="266" type="line"/>
      <point x="409" y="239"/>
      <point x="352" y="199"/>
      <point x="306" y="176" type="curve"/>
      <point x="318" y="163"/>
      <point x="338" y="134"/>
      <point x="347" y="117" type="curve"/>
      <point x="413" y="147"/>
      <point x="487" y="191"/>
      <point x="546" y="234" type="curve"/>
      <point x="493" y="290" type="line"/>
      <point x="469" y="284" type="line"/>
    </contour>
    <contour>
      <point x="603" y="284" type="line"/>
      <point x="587" y="199" type="line"/>
      <point x="813" y="199" type="line"/>
      <point x="829" y="284" type="line"/>
    </contour>
    <contour>
      <point x="673" y="176" type="line"/>
      <point x="642" y="13" type="line"/>
      <point x="641" y="3"/>
      <point x="636" y="0"/>
      <point x="625" y="0" type="curve" smooth="yes"/>
      <point x="615" y="0"/>
      <point x="577" y="0"/>
      <point x="549" y="1" type="curve"/>
      <point x="558" y="-26"/>
      <point x="565" y="-65"/>
      <point x="565" y="-95" type="curve"/>
      <point x="623" y="-95"/>
      <point x="669" y="-95"/>
      <point x="707" y="-81" type="curve" smooth="yes"/>
      <point x="746" y="-67"/>
      <point x="760" y="-43"/>
      <point x="770" y="8" type="curve" smooth="yes"/>
      <point x="801" y="176" type="line"/>
    </contour>
    <contour>
      <point x="818" y="284" type="line"/>
      <point x="814" y="265" type="line"/>
      <point x="784" y="238"/>
      <point x="722" y="199"/>
      <point x="673" y="176" type="curve"/>
      <point x="686" y="162"/>
      <point x="707" y="132"/>
      <point x="716" y="114" type="curve"/>
      <point x="785" y="144"/>
      <point x="864" y="189"/>
      <point x="927" y="231" type="curve"/>
      <point x="871" y="290" type="line"/>
      <point x="846" y="284" type="line"/>
    </contour>
  </outline>
</glyph>
<glyph name="uni5B89" format="2">
  <advance height="1000" width="1000"/>
  <unicode hex="5B89"/>
  <outline>
    <contour>
      <point x="151" y="751" type="line"/>
      <point x="106" y="515" type="line"/>
      <point x="254" y="515" type="line"/>
      <point x="274" y="617" type="line"/>
      <point x="836" y="617" type="line"/>
      <point x="816" y="515" type="line"/>
      <point x="972" y="515" type="line"/>
      <point x="1017" y="751" type="line"/>
    </contour>
    <contour>
      <point x="644" y="388" type="line"/>
      <point x="530" y="165"/>
      <point x="309" y="74"/>
      <point x="-3" y="39" type="curve"/>
      <point x="18" y="6"/>
      <point x="48" y="-60"/>
      <point x="56" y="-96" type="curve"/>
      <point x="387" y="-40"/>
      <point x="633" y="76"/>
      <point x="796" y="353" type="curve"/>
    </contour>
    <contour>
      <point x="81" y="468" type="line"/>
      <point x="56" y="331" type="line"/>
      <point x="952" y="331" type="line"/>
      <point x="977" y="468" type="line"/>
    </contour>
    <contour>
      <point x="472" y="824" type="line"/>
      <point x="483" y="780"/>
      <point x="497" y="721"/>
      <point x="501" y="685" type="curve"/>
      <point x="670" y="726" type="line"/>
      <point x="664" y="761"/>
      <point x="646" y="818"/>
      <point x="632" y="860" type="curve"/>
    </contour>
    <contour>
      <point x="138" y="203" type="line"/>
      <point x="351" y="126"/>
      <point x="632" y="-7"/>
      <point x="757" y="-103" type="curve"/>
      <point x="898" y="20" type="line"/>
      <point x="757" y="116"/>
      <point x="465" y="239"/>
      <point x="263" y="305" type="curve"/>
    </contour>
    <contour>
      <point x="138" y="203" type="curve"/>
      <point x="317" y="190" type="line"/>
      <point x="400" y="284"/>
      <point x="517" y="434"/>
      <point x="597" y="572" type="curve"/>
      <point x="438" y="605" type="line"/>
      <point x="362" y="468"/>
      <point x="237" y="307"/>
    </contour>
  </outline>
</glyph>
<glyph name="uni5FAC" format="2">
  <advance height="1000" width="1000"/>
  <unicode hex="5FAC"/>
  <outline>
    <contour>
      <point x="657" y="844" type="curve"/>
      <point x="660" y="800"/>
      <point x="657" y="743"/>
      <point x="652" y="708" type="curve"/>
      <point x="652" y="708"/>
      <point x="805" y="728"/>
      <point x="805" y="728" type="curve"/>
      <point x="809" y="764"/>
      <point x="808" y="819"/>
      <point x="801" y="861" type="curve"/>
      <point x="801" y="861"/>
      <point x="657" y="844"/>
    </contour>
    <contour>
      <point x="584" y="435" type="curve"/>
      <point x="587" y="403"/>
      <point x="586" y="360"/>
      <point x="583" y="334" type="curve"/>
      <point x="583" y="334"/>
      <point x="729" y="356"/>
      <point x="729" y="356" type="curve"/>
      <point x="732" y="382"/>
      <point x="729" y="423"/>
      <point x="723" y="453" type="curve"/>
      <point x="723" y="453"/>
      <point x="584" y="435"/>
    </contour>
    <contour>
      <point x="273" y="632" type="curve"/>
      <point x="210" y="537"/>
      <point x="114" y="444"/>
      <point x="24" y="386" type="curve"/>
      <point x="42" y="354"/>
      <point x="66" y="282"/>
      <point x="74" y="252" type="curve"/>
      <point x="186" y="332"/>
      <point x="309" y="463"/>
      <point x="393" y="587" type="curve"/>
      <point x="393" y="587"/>
      <point x="273" y="632"/>
    </contour>
    <contour>
      <point x="296" y="855" type="curve"/>
      <point x="248" y="793"/>
      <point x="158" y="712"/>
      <point x="83" y="664" type="curve"/>
      <point x="101" y="637"/>
      <point x="128" y="585"/>
      <point x="140" y="555" type="curve"/>
      <point x="232" y="617"/>
      <point x="340" y="714"/>
      <point x="419" y="803" type="curve"/>
      <point x="419" y="803"/>
      <point x="296" y="855"/>
    </contour>
    <contour>
      <point x="155" y="400" type="curve"/>
      <point x="155" y="400"/>
      <point x="61" y="-96"/>
      <point x="61" y="-96" type="curve"/>
      <point x="61" y="-96"/>
      <point x="192" y="-96"/>
      <point x="192" y="-96" type="curve"/>
      <point x="192" y="-96"/>
      <point x="310" y="530"/>
      <point x="310" y="530" type="curve"/>
      <point x="310" y="530"/>
      <point x="310" y="531"/>
      <point x="310" y="531" type="curve"/>
      <point x="310" y="531"/>
      <point x="155" y="400"/>
    </contour>
    <contour>
      <point x="434" y="770" type="curve"/>
      <point x="434" y="770"/>
      <point x="412" y="657"/>
      <point x="412" y="657" type="curve"/>
      <point x="412" y="657"/>
      <point x="1016" y="657"/>
      <point x="1016" y="657" type="curve"/>
      <point x="1016" y="657"/>
      <point x="1038" y="770"/>
      <point x="1038" y="770" type="curve"/>
      <point x="1038" y="770"/>
      <point x="434" y="770"/>
    </contour>
    <contour>
      <point x="497" y="661" type="curve"/>
      <point x="506" y="630"/>
      <point x="511" y="587"/>
      <point x="509" y="561" type="curve"/>
      <point x="509" y="561"/>
      <point x="648" y="582"/>
      <point x="648" y="582" type="curve"/>
      <point x="649" y="611"/>
      <point x="641" y="651"/>
      <point x="630" y="681" type="curve"/>
      <point x="630" y="681"/>
      <point x="497" y="661"/>
    </contour>
    <contour>
      <point x="794" y="687" type="curve"/>
      <point x="783" y="655"/>
      <point x="763" y="612"/>
      <point x="745" y="579" type="curve"/>
      <point x="745" y="579"/>
      <point x="875" y="563"/>
      <point x="875" y="563" type="curve"/>
      <point x="893" y="590"/>
      <point x="915" y="627"/>
      <point x="942" y="672" type="curve"/>
      <point x="942" y="672"/>
      <point x="794" y="687"/>
    </contour>
    <contour>
      <point x="379" y="586" type="curve"/>
      <point x="379" y="586"/>
      <point x="345" y="405"/>
      <point x="345" y="405" type="curve"/>
      <point x="345" y="405"/>
      <point x="474" y="405"/>
      <point x="474" y="405" type="curve"/>
      <point x="474" y="405"/>
      <point x="488" y="479"/>
      <point x="488" y="479" type="curve"/>
      <point x="488" y="479"/>
      <point x="855" y="479"/>
      <point x="855" y="479" type="curve"/>
      <point x="855" y="479"/>
      <point x="841" y="405"/>
      <point x="841" y="405" type="curve"/>
      <point x="841" y="405"/>
      <point x="977" y="405"/>
      <point x="977" y="405" type="curve"/>
      <point x="977" y="405"/>
      <point x="1011" y="586"/>
      <point x="1011" y="586" type="curve"/>
      <point x="1011" y="586"/>
      <point x="379" y="586"/>
    </contour>
    <contour>
      <point x="333" y="378" type="curve"/>
      <point x="333" y="378"/>
      <point x="312" y="265"/>
      <point x="312" y="265" type="curve"/>
      <point x="312" y="265"/>
      <point x="956" y="265"/>
      <point x="956" y="265" type="curve"/>
      <point x="956" y="265"/>
      <point x="977" y="378"/>
      <point x="977" y="378" type="curve"/>
      <point x="977" y="378"/>
      <point x="333" y="378"/>
    </contour>
    <contour>
      <point x="541" y="223" type="curve"/>
      <point x="541" y="223"/>
      <point x="476" y="112"/>
      <point x="476" y="112" type="curve"/>
      <point x="476" y="112"/>
      <point x="764" y="112"/>
      <point x="764" y="112" type="curve"/>
      <point x="764" y="112"/>
      <point x="785" y="223"/>
      <point x="785" y="223" type="curve"/>
      <point x="785" y="223"/>
      <point x="541" y="223"/>
    </contour>
    <contour>
      <point x="754" y="223" type="curve"/>
      <point x="754" y="223"/>
      <point x="751" y="207"/>
      <point x="751" y="207" type="curve"/>
      <point x="722" y="93"/>
      <point x="701" y="43"/>
      <point x="684" y="29" type="curve" smooth="yes"/>
      <point x="674" y="21"/>
      <point x="664" y="19"/>
      <point x="649" y="19" type="curve" smooth="yes"/>
      <point x="631" y="19"/>
      <point x="593" y="20"/>
      <point x="555" y="24" type="curve"/>
      <point x="568" y="-8"/>
      <point x="573" y="-57"/>
      <point x="569" y="-92" type="curve"/>
      <point x="619" y="-94"/>
      <point x="666" y="-93"/>
      <point x="696" y="-90" type="curve" smooth="yes"/>
      <point x="729" y="-86"/>
      <point x="758" y="-78"/>
      <point x="787" y="-53" type="curve" smooth="yes"/>
      <point x="818" y="-25"/>
      <point x="846" y="40"/>
      <point x="882" y="175" type="curve" smooth="yes"/>
      <point x="887" y="191"/>
      <point x="895" y="223"/>
      <point x="895" y="223" type="curve"/>
      <point x="895" y="223"/>
      <point x="754" y="223"/>
    </contour>
    <contour>
      <point x="506" y="311" type="curve"/>
      <point x="469" y="169"/>
      <point x="433" y="69"/>
      <point x="234" y="11" type="curve"/>
      <point x="258" y="-15"/>
      <point x="284" y="-66"/>
      <point x="291" y="-99" type="curve"/>
      <point x="532" y="-20"/>
      <point x="595" y="120"/>
      <point x="645" y="311" type="curve"/>
      <point x="645" y="311"/>
      <point x="506" y="311"/>
    </contour>
  </outline>
</glyph>
<glyph name="uni60B8" format="2">
  <advance height="1000" width="1000"/>
  <unicode hex="60B8"/>
  <outline>
    <contour>
      <point x="932" y="855" type="line"/>
      <point x="817" y="829"/>
      <point x="637" y="814"/>
      <point x="478" y="810" type="curve"/>
      <point x="487" y="781"/>
      <point x="493" y="731"/>
      <point x="491" y="700" type="curve"/>
      <point x="656" y="701"/>
      <point x="855" y="715"/>
      <point x="1008" y="751" type="curve"/>
    </contour>
    <contour>
      <point x="435" y="676" type="line"/>
      <point x="412" y="557" type="line"/>
      <point x="1007" y="557" type="line"/>
      <point x="1030" y="676" type="line"/>
    </contour>
    <contour>
      <point x="668" y="753" type="line"/>
      <point x="599" y="386" type="line"/>
      <point x="738" y="386" type="line"/>
      <point x="811" y="771" type="line"/>
    </contour>
    <contour>
      <point x="823" y="619" type="curve"/>
      <point x="718" y="587" type="line"/>
      <point x="748" y="481"/>
      <point x="813" y="384"/>
      <point x="900" y="333" type="curve"/>
      <point x="927" y="368"/>
      <point x="979" y="419"/>
      <point x="1014" y="446" type="curve"/>
      <point x="928" y="480"/>
      <point x="854" y="547"/>
    </contour>
    <contour>
      <point x="449" y="366" type="line"/>
      <point x="428" y="253" type="line"/>
      <point x="757" y="253" type="line"/>
      <point x="778" y="366" type="line"/>
    </contour>
    <contour>
      <point x="751" y="366" type="line"/>
      <point x="747" y="343" type="line"/>
      <point x="712" y="308"/>
      <point x="633" y="255"/>
      <point x="569" y="225" type="curve"/>
      <point x="586" y="205"/>
      <point x="613" y="166"/>
      <point x="624" y="140" type="curve"/>
      <point x="710" y="182"/>
      <point x="809" y="247"/>
      <point x="881" y="308" type="curve"/>
      <point x="809" y="373" type="line"/>
      <point x="782" y="366" type="line"/>
    </contour>
    <contour>
      <point x="569" y="225" type="line"/>
      <point x="533" y="37" type="line" smooth="yes"/>
      <point x="531" y="26"/>
      <point x="525" y="23"/>
      <point x="512" y="23" type="curve" smooth="yes"/>
      <point x="498" y="23"/>
      <point x="446" y="23"/>
      <point x="410" y="25" type="curve"/>
      <point x="419" y="-9"/>
      <point x="427" y="-58"/>
      <point x="425" y="-94" type="curve"/>
      <point x="494" y="-95"/>
      <point x="549" y="-94"/>
      <point x="594" y="-77" type="curve" smooth="yes"/>
      <point x="642" y="-59"/>
      <point x="659" y="-27"/>
      <point x="670" y="33" type="curve" smooth="yes"/>
      <point x="707" y="225" type="line"/>
    </contour>
    <contour>
      <point x="316" y="199" type="line"/>
      <point x="293" y="81" type="line"/>
      <point x="915" y="81" type="line"/>
      <point x="938" y="199" type="line"/>
    </contour>
    <contour>
      <point x="604" y="622" type="line"/>
      <point x="545" y="543"/>
      <point x="444" y="471"/>
      <point x="340" y="436" type="curve"/>
      <point x="363" y="412"/>
      <point x="393" y="364"/>
      <point x="405" y="333" type="curve"/>
      <point x="523" y="384"/>
      <point x="629" y="480"/>
      <point x="701" y="589" type="curve"/>
    </contour>
    <contour>
      <point x="245" y="855" type="line"/>
      <point x="65" y="-95" type="line"/>
      <point x="198" y="-95" type="line"/>
      <point x="378" y="855" type="line"/>
    </contour>
    <contour>
      <point x="115" y="654" type="line"/>
      <point x="94" y="571"/>
      <point x="59" y="458"/>
      <point x="26" y="389" type="curve"/>
      <point x="124" y="353" type="line"/>
      <point x="158" y="432"/>
      <point x="195" y="554"/>
      <point x="213" y="642" type="curve"/>
    </contour>
    <contour>
      <point x="315" y="664" type="line"/>
      <point x="321" y="594"/>
      <point x="326" y="503"/>
      <point x="324" y="448" type="curve"/>
      <point x="430" y="484" type="line"/>
      <point x="430" y="536"/>
      <point x="423" y="625"/>
      <point x="415" y="693" type="curve"/>
    </contour>
  </outline>
</glyph>
<glyph name="uni60F8" format="2">
  <advance height="1000" width="1000"/>
  <unicode hex="60F8"/>
  <outline>
    <contour>
      <point x="566" y="859" type="line"/>
      <point x="522" y="784"/>
      <point x="453" y="707"/>
      <point x="383" y="657" type="curve"/>
      <point x="413" y="638"/>
      <point x="460" y="598"/>
      <point x="480" y="574" type="curve"/>
      <point x="553" y="633"/>
      <point x="637" y="730"/>
      <point x="693" y="822" type="curve"/>
    </contour>
    <contour>
      <point x="589" y="789" type="line"/>
      <point x="515" y="680" type="line"/>
      <point x="943" y="680" type="line"/>
      <point x="963" y="789" type="line"/>
    </contour>
    <contour>
      <point x="566" y="499" type="line"/>
      <point x="658" y="499" type="line"/>
      <point x="655" y="479" type="line"/>
      <point x="563" y="479" type="line"/>
    </contour>
    <contour>
      <point x="583" y="589" type="line"/>
      <point x="675" y="589" type="line"/>
      <point x="672" y="569" type="line"/>
      <point x="580" y="569" type="line"/>
    </contour>
    <contour>
      <point x="491" y="663" type="line"/>
      <point x="443" y="405" type="line"/>
      <point x="752" y="405" type="line"/>
      <point x="800" y="663" type="line"/>
    </contour>
    <contour>
      <point x="302" y="175" type="line"/>
      <point x="281" y="62" type="line"/>
      <point x="916" y="62" type="line"/>
      <point x="937" y="175" type="line"/>
    </contour>
    <contour>
      <point x="904" y="789" type="line"/>
      <point x="900" y="768" type="line" smooth="yes"/>
      <point x="856" y="576"/>
      <point x="831" y="504"/>
      <point x="814" y="486" type="curve" smooth="yes"/>
      <point x="803" y="475"/>
      <point x="794" y="473"/>
      <point x="781" y="473" type="curve" smooth="yes"/>
      <point x="766" y="473"/>
      <point x="742" y="473"/>
      <point x="714" y="477" type="curve"/>
      <point x="727" y="444"/>
      <point x="731" y="392"/>
      <point x="726" y="356" type="curve"/>
      <point x="770" y="354"/>
      <point x="809" y="355"/>
      <point x="836" y="360" type="curve" smooth="yes"/>
      <point x="866" y="365"/>
      <point x="892" y="375"/>
      <point x="919" y="402" type="curve" smooth="yes"/>
      <point x="951" y="435"/>
      <point x="982" y="525"/>
      <point x="1032" y="738" type="curve"/>
      <point x="1038" y="755"/>
      <point x="1045" y="789"/>
      <point x="1045" y="789" type="curve"/>
    </contour>
    <contour>
      <point x="403" y="344" type="line"/>
      <point x="382" y="235" type="line"/>
      <point x="797" y="235" type="line"/>
      <point x="818" y="344" type="line"/>
    </contour>
    <contour>
      <point x="572" y="195" type="line"/>
      <point x="541" y="33" type="line" smooth="yes"/>
      <point x="539" y="22"/>
      <point x="534" y="19"/>
      <point x="520" y="19" type="curve" smooth="yes"/>
      <point x="506" y="19"/>
      <point x="451" y="19"/>
      <point x="412" y="21" type="curve"/>
      <point x="422" y="-12"/>
      <point x="430" y="-60"/>
      <point x="429" y="-95" type="curve"/>
      <point x="499" y="-95"/>
      <point x="554" y="-95"/>
      <point x="600" y="-78" type="curve" smooth="yes"/>
      <point x="647" y="-61"/>
      <point x="665" y="-31"/>
      <point x="676" y="29" type="curve" smooth="yes"/>
      <point x="708" y="195" type="line"/>
    </contour>
    <contour>
      <point x="787" y="344" type="line"/>
      <point x="782" y="318" type="line"/>
      <point x="740" y="283"/>
      <point x="647" y="226"/>
      <point x="572" y="195" type="curve"/>
      <point x="587" y="176"/>
      <point x="615" y="137"/>
      <point x="626" y="113" type="curve"/>
      <point x="729" y="154"/>
      <point x="840" y="217"/>
      <point x="929" y="274" type="curve"/>
      <point x="855" y="351" type="line"/>
      <point x="824" y="344" type="line"/>
    </contour>
    <contour>
      <point x="247" y="855" type="line"/>
      <point x="67" y="-95" type="line"/>
      <point x="209" y="-95" type="line"/>
      <point x="389" y="855" type="line"/>
    </contour>
    <contour>
      <point x="114" y="658" type="line"/>
      <point x="95" y="570"/>
      <point x="59" y="456"/>
      <point x="23" y="389" type="curve"/>
      <point x="121" y="349" type="line"/>
      <point x="161" y="429"/>
      <point x="198" y="551"/>
      <point x="216" y="645" type="curve"/>
    </contour>
    <contour>
      <point x="309" y="668" type="line"/>
      <point x="323" y="599"/>
      <point x="339" y="507"/>
      <point x="342" y="452" type="curve"/>
      <point x="452" y="499" type="line"/>
      <point x="446" y="551"/>
      <point x="427" y="640"/>
      <point x="411" y="707" type="curve"/>
    </contour>
  </outline>
</glyph>
<glyph name="uni62F5" format="2">
  <advance height="1000" width="1000"/>
  <unicode hex="62F5"/>
  <outline>
    <contour>
      <point x="443" y="721" type="line"/>
      <point x="417" y="583" type="line"/>
      <point x="1007" y="583" type="line"/>
      <point x="1033" y="721" type="line"/>
    </contour>
    <contour>
      <point x="559" y="276" type="line"/>
      <point x="536" y="154" type="line"/>
      <point x="928" y="154" type="line"/>
      <point x="951" y="276" type="line"/>
    </contour>
    <contour>
      <point x="648" y="514" type="line"/>
      <point x="626" y="395" type="line"/>
      <point x="883" y="395" type="line"/>
      <point x="905" y="514" type="line"/>
    </contour>
    <contour>
      <point x="713" y="356" type="line"/>
      <point x="655" y="46" type="line" smooth="yes"/>
      <point x="653" y="35"/>
      <point x="648" y="33"/>
      <point x="636" y="33" type="curve" smooth="yes"/>
      <point x="624" y="33"/>
      <point x="585" y="33"/>
      <point x="552" y="34" type="curve"/>
      <point x="562" y="-2"/>
      <point x="568" y="-56"/>
      <point x="565" y="-94" type="curve"/>
      <point x="627" y="-94"/>
      <point x="675" y="-92"/>
      <point x="716" y="-72" type="curve" smooth="yes"/>
      <point x="759" y="-51"/>
      <point x="774" y="-16"/>
      <point x="785" y="43" type="curve" smooth="yes"/>
      <point x="844" y="356" type="line"/>
    </contour>
    <contour>
      <point x="645" y="856" type="line"/>
      <point x="554" y="639"/>
      <point x="423" y="436"/>
      <point x="274" y="315" type="curve"/>
      <point x="300" y="292"/>
      <point x="347" y="239"/>
      <point x="365" y="212" type="curve"/>
      <point x="524" y="354"/>
      <point x="672" y="584"/>
      <point x="780" y="827" type="curve"/>
    </contour>
    <contour>
      <point x="435" y="468" type="line"/>
      <point x="329" y="-95" type="line"/>
      <point x="462" y="-95" type="line"/>
      <point x="568" y="468" type="line"/>
    </contour>
    <contour>
      <point x="861" y="514" type="line"/>
      <point x="857" y="492" type="line"/>
      <point x="828" y="452"/>
      <point x="766" y="391"/>
      <point x="713" y="356" type="curve"/>
      <point x="733" y="336"/>
      <point x="761" y="296"/>
      <point x="774" y="270" type="curve"/>
      <point x="844" y="318"/>
      <point x="927" y="394"/>
      <point x="987" y="464" type="curve"/>
      <point x="914" y="521" type="line"/>
      <point x="890" y="514" type="line"/>
    </contour>
    <contour>
      <point x="33" y="361" type="curve"/>
      <point x="40" y="222" type="line"/>
      <point x="133" y="253"/>
      <point x="244" y="289"/>
      <point x="345" y="325" type="curve"/>
      <point x="345" y="453" type="line"/>
      <point x="232" y="417"/>
      <point x="113" y="381"/>
    </contour>
    <contour>
      <point x="109" y="672" type="line"/>
      <point x="84" y="539" type="line"/>
      <point x="377" y="539" type="line"/>
      <point x="402" y="672" type="line"/>
    </contour>
    <contour>
      <point x="234" y="854" type="line"/>
      <point x="87" y="72" type="line" smooth="yes"/>
      <point x="84" y="59"/>
      <point x="79" y="55"/>
      <point x="67" y="55" type="curve" smooth="yes"/>
      <point x="55" y="55"/>
      <point x="22" y="55"/>
      <point x="-9" y="56" type="curve"/>
      <point x="0" y="18"/>
      <point x="5" y="-42"/>
      <point x="1" y="-78" type="curve"/>
      <point x="66" y="-78"/>
      <point x="114" y="-73"/>
      <point x="153" y="-50" type="curve" smooth="yes"/>
      <point x="191" y="-28"/>
      <point x="207" y="8"/>
      <point x="218" y="71" type="curve" smooth="yes"/>
      <point x="366" y="854" type="line"/>
    </contour>
  </outline>
</glyph>
<glyph name="uni65CC" format="2">
  <advance height="1000" width="1000"/>
  <unicode hex="65CC"/>
  <outline>
    <contour>
      <point x="231" y="813" type="curve"/>
      <point x="250" y="768"/>
      <point x="273" y="705"/>
      <point x="280" y="666" type="curve"/>
      <point x="280" y="666"/>
      <point x="412" y="729"/>
      <point x="412" y="729" type="curve"/>
      <point x="402" y="768"/>
      <point x="375" y="827"/>
      <point x="354" y="869" type="curve"/>
      <point x="354" y="869"/>
      <point x="231" y="813"/>
    </contour>
    <contour>
      <point x="109" y="704" type="curve"/>
      <point x="109" y="704"/>
      <point x="84" y="570"/>
      <point x="84" y="570" type="curve"/>
      <point x="84" y="570"/>
      <point x="485" y="570"/>
      <point x="485" y="570" type="curve"/>
      <point x="485" y="570"/>
      <point x="510" y="704"/>
      <point x="510" y="704" type="curve"/>
      <point x="510" y="704"/>
      <point x="109" y="704"/>
    </contour>
    <contour>
      <point x="571" y="485" type="curve"/>
      <point x="571" y="485"/>
      <point x="547" y="358"/>
      <point x="547" y="358" type="curve"/>
      <point x="547" y="358"/>
      <point x="957" y="358"/>
      <point x="957" y="358" type="curve"/>
      <point x="957" y="358"/>
      <point x="981" y="485"/>
      <point x="981" y="485" type="curve"/>
      <point x="981" y="485"/>
      <point x="571" y="485"/>
    </contour>
    <contour>
      <point x="494" y="268" type="curve"/>
      <point x="494" y="268"/>
      <point x="470" y="142"/>
      <point x="470" y="142" type="curve"/>
      <point x="470" y="142"/>
      <point x="898" y="142"/>
      <point x="898" y="142" type="curve"/>
      <point x="898" y="142"/>
      <point x="922" y="268"/>
      <point x="922" y="268" type="curve"/>
      <point x="922" y="268"/>
      <point x="494" y="268"/>
    </contour>
    <contour>
      <point x="225" y="494" type="curve"/>
      <point x="225" y="494"/>
      <point x="201" y="363"/>
      <point x="201" y="363" type="curve"/>
      <point x="201" y="363"/>
      <point x="355" y="363"/>
      <point x="355" y="363" type="curve"/>
      <point x="355" y="363"/>
      <point x="379" y="494"/>
      <point x="379" y="494" type="curve"/>
      <point x="379" y="494"/>
      <point x="225" y="494"/>
    </contour>
    <contour>
      <point x="702" y="586" type="curve"/>
      <point x="702" y="586"/>
      <point x="589" y="-13"/>
      <point x="589" y="-13" type="curve"/>
      <point x="589" y="-13"/>
      <point x="730" y="-13"/>
      <point x="730" y="-13" type="curve"/>
      <point x="730" y="-13"/>
      <point x="843" y="586"/>
      <point x="843" y="586" type="curve"/>
      <point x="843" y="586"/>
      <point x="702" y="586"/>
    </contour>
    <contour>
      <point x="329" y="494" type="curve"/>
      <point x="329" y="494"/>
      <point x="324" y="468"/>
      <point x="324" y="468" type="curve"/>
      <point x="265" y="170"/>
      <point x="243" y="70"/>
      <point x="226" y="47" type="curve"/>
      <point x="216" y="35"/>
      <point x="207" y="31"/>
      <point x="195" y="31" type="curve" smooth="yes"/>
      <point x="180" y="31"/>
      <point x="159" y="32"/>
      <point x="134" y="35" type="curve"/>
      <point x="146" y="0"/>
      <point x="150" y="-55"/>
      <point x="144" y="-93" type="curve"/>
      <point x="184" y="-94"/>
      <point x="221" y="-93"/>
      <point x="248" y="-87" type="curve" smooth="yes"/>
      <point x="277" y="-81"/>
      <point x="299" y="-70"/>
      <point x="326" y="-39" type="curve" smooth="yes"/>
      <point x="358" y="-1"/>
      <point x="385" y="122"/>
      <point x="449" y="440" type="curve" smooth="yes"/>
      <point x="452" y="456"/>
      <point x="459" y="494"/>
      <point x="459" y="494" type="curve"/>
      <point x="459" y="494"/>
      <point x="329" y="494"/>
    </contour>
    <contour>
      <point x="616" y="738" type="curve"/>
      <point x="616" y="738"/>
      <point x="592" y="607"/>
      <point x="592" y="607" type="curve"/>
      <point x="592" y="607"/>
      <point x="1020" y="607"/>
      <point x="1020" y="607" type="curve"/>
      <point x="1020" y="607"/>
      <point x="1044" y="738"/>
      <point x="1044" y="738" type="curve"/>
      <point x="1044" y="738"/>
      <point x="616" y="738"/>
    </contour>
    <contour>
      <point x="393" y="48" type="curve"/>
      <point x="393" y="48"/>
      <point x="369" y="-81"/>
      <point x="369" y="-81" type="curve"/>
      <point x="369" y="-81"/>
      <point x="901" y="-81"/>
      <point x="901" y="-81" type="curve"/>
      <point x="901" y="-81"/>
      <point x="925" y="48"/>
      <point x="925" y="48" type="curve"/>
      <point x="925" y="48"/>
      <point x="393" y="48"/>
    </contour>
    <contour>
      <point x="618" y="856" type="curve"/>
      <point x="574" y="743"/>
      <point x="506" y="633"/>
      <point x="423" y="568" type="curve"/>
      <point x="455" y="551"/>
      <point x="511" y="514"/>
      <point x="535" y="491" type="curve"/>
      <point x="618" y="569"/>
      <point x="699" y="695"/>
      <point x="755" y="830" type="curve"/>
      <point x="755" y="830"/>
      <point x="618" y="856"/>
    </contour>
    <contour>
      <point x="557" y="575" type="curve"/>
      <point x="524" y="488"/>
      <point x="474" y="397"/>
      <point x="418" y="340" type="curve"/>
      <point x="448" y="327"/>
      <point x="501" y="297"/>
      <point x="524" y="277" type="curve"/>
      <point x="582" y="342"/>
      <point x="641" y="446"/>
      <point x="683" y="549" type="curve"/>
      <point x="683" y="549"/>
      <point x="557" y="575"/>
    </contour>
    <contour>
      <point x="191" y="623" type="curve"/>
      <point x="191" y="623"/>
      <point x="150" y="409"/>
      <point x="150" y="409" type="curve"/>
      <point x="126" y="283"/>
      <point x="83" y="127"/>
      <point x="-48" y="-9" type="curve"/>
      <point x="-17" y="-32"/>
      <point x="23" y="-69"/>
      <point x="42" y="-98" type="curve"/>
      <point x="193" y="56"/>
      <point x="246" y="246"/>
      <point x="277" y="407" type="curve"/>
      <point x="277" y="407"/>
      <point x="318" y="623"/>
      <point x="318" y="623" type="curve"/>
      <point x="318" y="623"/>
      <point x="191" y="623"/>
    </contour>
  </outline>
</glyph>
<glyph name="uni65D0" format="2">
  <advance height="1000" width="1000"/>
  <unicode hex="65D0"/>
  <outline>
    <contour>
      <point x="231" y="813" type="curve"/>
      <point x="250" y="768"/>
      <point x="273" y="705"/>
      <point x="280" y="666" type="curve"/>
      <point x="280" y="666"/>
      <point x="412" y="729"/>
      <point x="412" y="729" type="curve"/>
      <point x="402" y="768"/>
      <point x="375" y="827"/>
      <point x="354" y="869" type="curve"/>
      <point x="354" y="869"/>
      <point x="231" y="813"/>
    </contour>
    <contour>
      <point x="100" y="705" type="curve"/>
      <point x="100" y="705"/>
      <point x="76" y="576"/>
      <point x="76" y="576" type="curve"/>
      <point x="76" y="576"/>
      <point x="477" y="576"/>
      <point x="477" y="576" type="curve"/>
      <point x="477" y="576"/>
      <point x="501" y="705"/>
      <point x="501" y="705" type="curve"/>
      <point x="501" y="705"/>
      <point x="100" y="705"/>
    </contour>
    <contour>
      <point x="226" y="484" type="curve"/>
      <point x="226" y="484"/>
      <point x="202" y="357"/>
      <point x="202" y="357" type="curve"/>
      <point x="202" y="357"/>
      <point x="347" y="357"/>
      <point x="347" y="357" type="curve"/>
      <point x="347" y="357"/>
      <point x="371" y="484"/>
      <point x="371" y="484" type="curve"/>
      <point x="371" y="484"/>
      <point x="226" y="484"/>
    </contour>
    <contour>
      <point x="176" y="623" type="curve"/>
      <point x="127" y="380"/>
      <point x="82" y="149"/>
      <point x="-46" y="3" type="curve"/>
      <point x="-15" y="-20"/>
      <point x="19" y="-63"/>
      <point x="35" y="-97" type="curve"/>
      <point x="188" y="77"/>
      <point x="251" y="343"/>
      <point x="308" y="623" type="curve"/>
      <point x="308" y="623"/>
      <point x="176" y="623"/>
    </contour>
    <contour>
      <point x="320" y="484" type="curve"/>
      <point x="320" y="484"/>
      <point x="316" y="459"/>
      <point x="316" y="459" type="curve"/>
      <point x="257" y="166"/>
      <point x="236" y="67"/>
      <point x="219" y="45" type="curve" smooth="yes"/>
      <point x="208" y="32"/>
      <point x="199" y="29"/>
      <point x="188" y="29" type="curve" smooth="yes"/>
      <point x="173" y="29"/>
      <point x="152" y="29"/>
      <point x="127" y="32" type="curve"/>
      <point x="140" y="-2"/>
      <point x="143" y="-55"/>
      <point x="137" y="-93" type="curve"/>
      <point x="177" y="-94"/>
      <point x="213" y="-93"/>
      <point x="240" y="-87" type="curve" smooth="yes"/>
      <point x="269" y="-81"/>
      <point x="291" y="-70"/>
      <point x="316" y="-40" type="curve" smooth="yes"/>
      <point x="347" y="-3"/>
      <point x="374" y="118"/>
      <point x="437" y="431" type="curve" smooth="yes"/>
      <point x="441" y="447"/>
      <point x="448" y="484"/>
      <point x="448" y="484" type="curve"/>
      <point x="448" y="484"/>
      <point x="320" y="484"/>
    </contour>
    <contour>
      <point x="616" y="758" type="curve"/>
      <point x="616" y="758"/>
      <point x="594" y="640"/>
      <point x="594" y="640" type="curve"/>
      <point x="594" y="640"/>
      <point x="1031" y="640"/>
      <point x="1031" y="640" type="curve"/>
      <point x="1031" y="640"/>
      <point x="1053" y="758"/>
      <point x="1053" y="758" type="curve"/>
      <point x="1053" y="758"/>
      <point x="616" y="758"/>
    </contour>
    <contour>
      <point x="614" y="856" type="curve"/>
      <point x="573" y="757"/>
      <point x="510" y="663"/>
      <point x="435" y="605" type="curve"/>
      <point x="463" y="588"/>
      <point x="512" y="551"/>
      <point x="532" y="530" type="curve"/>
      <point x="611" y="599"/>
      <point x="687" y="711"/>
      <point x="739" y="831" type="curve"/>
      <point x="739" y="831"/>
      <point x="614" y="856"/>
    </contour>
    <contour>
      <point x="610" y="608" type="curve"/>
      <point x="610" y="608"/>
      <point x="551" y="298"/>
      <point x="551" y="298" type="curve"/>
      <point x="528" y="175"/>
      <point x="492" y="63"/>
      <point x="366" y="-16" type="curve"/>
      <point x="393" y="-34"/>
      <point x="434" y="-75"/>
      <point x="451" y="-101" type="curve"/>
      <point x="596" y="-4"/>
      <point x="642" y="143"/>
      <point x="671" y="296" type="curve"/>
      <point x="671" y="296"/>
      <point x="730" y="608"/>
      <point x="730" y="608" type="curve"/>
      <point x="730" y="608"/>
      <point x="610" y="608"/>
    </contour>
    <contour>
      <point x="460" y="479" type="curve"/>
      <point x="474" y="426"/>
      <point x="482" y="354"/>
      <point x="479" y="308" type="curve"/>
      <point x="479" y="308"/>
      <point x="591" y="351"/>
      <point x="591" y="351" type="curve"/>
      <point x="592" y="397"/>
      <point x="581" y="466"/>
      <point x="565" y="518" type="curve"/>
      <point x="565" y="518"/>
      <point x="460" y="479"/>
    </contour>
    <contour>
      <point x="397" y="221" type="curve"/>
      <point x="397" y="221"/>
      <point x="416" y="92"/>
      <point x="416" y="92" type="curve"/>
      <point x="472" y="127"/>
      <point x="526" y="162"/>
      <point x="579" y="198" type="curve"/>
      <point x="579" y="198"/>
      <point x="567" y="296"/>
      <point x="567" y="296" type="curve"/>
      <point x="502" y="266"/>
      <point x="441" y="238"/>
    </contour>
    <contour>
      <point x="762" y="608" type="curve"/>
      <point x="762" y="608"/>
      <point x="660" y="67"/>
      <point x="660" y="67" type="curve"/>
      <point x="637" y="-54"/>
      <point x="651" y="-90"/>
      <point x="740" y="-90" type="curve" smooth="yes"/>
      <point x="757" y="-90"/>
      <point x="781" y="-90"/>
      <point x="799" y="-90" type="curve" smooth="yes"/>
      <point x="868" y="-90"/>
      <point x="907" y="-50"/>
      <point x="941" y="68" type="curve"/>
      <point x="908" y="76"/>
      <point x="864" y="97"/>
      <point x="843" y="117" type="curve"/>
      <point x="827" y="42"/>
      <point x="821" y="25"/>
      <point x="809" y="25" type="curve" smooth="yes"/>
      <point x="804" y="25"/>
      <point x="791" y="25"/>
      <point x="787" y="25" type="curve" smooth="yes"/>
      <point x="776" y="25"/>
      <point x="774" y="29"/>
      <point x="782" y="67" type="curve"/>
      <point x="782" y="67"/>
      <point x="884" y="608"/>
      <point x="884" y="608" type="curve"/>
      <point x="884" y="608"/>
      <point x="762" y="608"/>
    </contour>
    <contour>
      <point x="903" y="547" type="curve"/>
      <point x="880" y="493"/>
      <point x="840" y="417"/>
      <point x="808" y="369" type="curve"/>
      <point x="808" y="369"/>
      <point x="887" y="325"/>
      <point x="887" y="325" type="curve"/>
      <point x="922" y="368"/>
      <point x="966" y="435"/>
      <point x="1014" y="495" type="curve"/>
      <point x="1014" y="495"/>
      <point x="903" y="547"/>
    </contour>
    <contour>
      <point x="765" y="252" type="curve"/>
      <point x="803" y="212"/>
      <point x="850" y="154"/>
      <point x="869" y="115" type="curve"/>
      <point x="869" y="115"/>
      <point x="962" y="199"/>
      <point x="962" y="199" type="curve"/>
      <point x="941" y="236"/>
      <point x="890" y="290"/>
      <point x="851" y="327" type="curve"/>
      <point x="851" y="327"/>
      <point x="765" y="252"/>
    </contour>
  </outline>
</glyph>
<glyph name="uni65DB" format="2">
  <advance height="1000" width="1000"/>
  <unicode hex="65DB"/>
  <outline>
    <contour>
      <point x="220" y="813" type="curve"/>
      <point x="239" y="768"/>
      <point x="262" y="705"/>
      <point x="269" y="666" type="curve"/>
      <point x="269" y="666"/>
      <point x="401" y="729"/>
      <point x="401" y="729" type="curve"/>
      <point x="391" y="768"/>
      <point x="364" y="827"/>
      <point x="343" y="869" type="curve"/>
      <point x="343" y="869"/>
      <point x="220" y="813"/>
    </contour>
    <contour>
      <point x="104" y="709" type="curve"/>
      <point x="104" y="709"/>
      <point x="79" y="575"/>
      <point x="79" y="575" type="curve"/>
      <point x="79" y="575"/>
      <point x="467" y="575"/>
      <point x="467" y="575" type="curve"/>
      <point x="467" y="575"/>
      <point x="492" y="709"/>
      <point x="492" y="709" type="curve"/>
      <point x="492" y="709"/>
      <point x="104" y="709"/>
    </contour>
    <contour>
      <point x="458" y="458" type="curve"/>
      <point x="458" y="458"/>
      <point x="438" y="357"/>
      <point x="438" y="357" type="curve"/>
      <point x="438" y="357"/>
      <point x="974" y="357"/>
      <point x="974" y="357" type="curve"/>
      <point x="974" y="357"/>
      <point x="994" y="458"/>
      <point x="994" y="458" type="curve"/>
      <point x="994" y="458"/>
      <point x="458" y="458"/>
    </contour>
    <contour>
      <point x="494" y="126" type="curve"/>
      <point x="494" y="126"/>
      <point x="478" y="44"/>
      <point x="478" y="44" type="curve"/>
      <point x="478" y="44"/>
      <point x="821" y="44"/>
      <point x="821" y="44" type="curve"/>
      <point x="821" y="44"/>
      <point x="837" y="126"/>
      <point x="837" y="126" type="curve"/>
      <point x="837" y="126"/>
      <point x="494" y="126"/>
    </contour>
    <contour>
      <point x="472" y="13" type="curve"/>
      <point x="472" y="13"/>
      <point x="455" y="-77"/>
      <point x="455" y="-77" type="curve"/>
      <point x="455" y="-77"/>
      <point x="798" y="-77"/>
      <point x="798" y="-77" type="curve"/>
      <point x="798" y="-77"/>
      <point x="815" y="13"/>
      <point x="815" y="13" type="curve"/>
      <point x="815" y="13"/>
      <point x="472" y="13"/>
    </contour>
    <contour>
      <point x="202" y="485" type="curve"/>
      <point x="202" y="485"/>
      <point x="177" y="354"/>
      <point x="177" y="354" type="curve"/>
      <point x="177" y="354"/>
      <point x="331" y="354"/>
      <point x="331" y="354" type="curve"/>
      <point x="331" y="354"/>
      <point x="356" y="485"/>
      <point x="356" y="485" type="curve"/>
      <point x="356" y="485"/>
      <point x="202" y="485"/>
    </contour>
    <contour>
      <point x="683" y="573" type="curve"/>
      <point x="683" y="573"/>
      <point x="623" y="253"/>
      <point x="623" y="253" type="curve"/>
      <point x="623" y="253"/>
      <point x="745" y="253"/>
      <point x="745" y="253" type="curve"/>
      <point x="745" y="253"/>
      <point x="805" y="573"/>
      <point x="805" y="573" type="curve"/>
      <point x="805" y="573"/>
      <point x="683" y="573"/>
    </contour>
    <contour>
      <point x="613" y="179" type="curve"/>
      <point x="613" y="179"/>
      <point x="567" y="-64"/>
      <point x="567" y="-64" type="curve"/>
      <point x="567" y="-64"/>
      <point x="681" y="-64"/>
      <point x="681" y="-64" type="curve"/>
      <point x="681" y="-64"/>
      <point x="727" y="179"/>
      <point x="727" y="179" type="curve"/>
      <point x="727" y="179"/>
      <point x="613" y="179"/>
    </contour>
    <contour>
      <point x="169" y="624" type="curve"/>
      <point x="120" y="382"/>
      <point x="77" y="155"/>
      <point x="-43" y="8" type="curve"/>
      <point x="-12" y="-15"/>
      <point x="23" y="-60"/>
      <point x="39" y="-95" type="curve"/>
      <point x="185" y="80"/>
      <point x="248" y="345"/>
      <point x="305" y="624" type="curve"/>
      <point x="305" y="624"/>
      <point x="169" y="624"/>
    </contour>
    <contour>
      <point x="310" y="485" type="curve"/>
      <point x="310" y="485"/>
      <point x="305" y="459"/>
      <point x="305" y="459" type="curve"/>
      <point x="247" y="165"/>
      <point x="227" y="68"/>
      <point x="211" y="46" type="curve"/>
      <point x="200" y="34"/>
      <point x="193" y="30"/>
      <point x="181" y="30" type="curve" smooth="yes"/>
      <point x="167" y="30"/>
      <point x="147" y="30"/>
      <point x="124" y="33" type="curve"/>
      <point x="136" y="-2"/>
      <point x="139" y="-57"/>
      <point x="134" y="-96" type="curve"/>
      <point x="173" y="-96"/>
      <point x="208" y="-95"/>
      <point x="234" y="-89" type="curve" smooth="yes"/>
      <point x="263" y="-83"/>
      <point x="284" y="-72"/>
      <point x="310" y="-41" type="curve" smooth="yes"/>
      <point x="341" y="-5"/>
      <point x="367" y="118"/>
      <point x="430" y="432" type="curve"/>
      <point x="432" y="447"/>
      <point x="440" y="485"/>
      <point x="440" y="485" type="curve"/>
      <point x="440" y="485"/>
      <point x="310" y="485"/>
    </contour>
    <contour>
      <point x="607" y="772" type="curve"/>
      <point x="607" y="772"/>
      <point x="585" y="654"/>
      <point x="585" y="654" type="curve"/>
      <point x="585" y="654"/>
      <point x="1036" y="654"/>
      <point x="1036" y="654" type="curve"/>
      <point x="1036" y="654"/>
      <point x="1058" y="772"/>
      <point x="1058" y="772" type="curve"/>
      <point x="1058" y="772"/>
      <point x="607" y="772"/>
    </contour>
    <contour>
      <point x="604" y="855" type="curve"/>
      <point x="563" y="754"/>
      <point x="497" y="658"/>
      <point x="419" y="600" type="curve"/>
      <point x="449" y="585"/>
      <point x="499" y="551"/>
      <point x="520" y="531" type="curve"/>
      <point x="599" y="600"/>
      <point x="676" y="710"/>
      <point x="728" y="831" type="curve"/>
      <point x="728" y="831"/>
      <point x="604" y="855"/>
    </contour>
    <contour>
      <point x="906" y="655" type="curve"/>
      <point x="814" y="630"/>
      <point x="658" y="617"/>
      <point x="522" y="612" type="curve"/>
      <point x="529" y="588"/>
      <point x="535" y="547"/>
      <point x="534" y="521" type="curve"/>
      <point x="680" y="523"/>
      <point x="855" y="537"/>
      <point x="985" y="573" type="curve"/>
      <point x="985" y="573"/>
      <point x="906" y="655"/>
    </contour>
    <contour>
      <point x="601" y="389" type="curve"/>
      <point x="551" y="344"/>
      <point x="464" y="303"/>
      <point x="383" y="282" type="curve"/>
      <point x="405" y="259"/>
      <point x="433" y="215"/>
      <point x="445" y="187" type="curve"/>
      <point x="535" y="219"/>
      <point x="631" y="285"/>
      <point x="692" y="352" type="curve"/>
      <point x="692" y="352"/>
      <point x="601" y="389"/>
    </contour>
    <contour>
      <point x="805" y="385" type="curve"/>
      <point x="805" y="385"/>
      <point x="717" y="353"/>
      <point x="717" y="353" type="curve"/>
      <point x="748" y="288"/>
      <point x="815" y="223"/>
      <point x="884" y="190" type="curve"/>
      <point x="908" y="220"/>
      <point x="953" y="263"/>
      <point x="983" y="286" type="curve"/>
      <point x="914" y="305"/>
      <point x="840" y="345"/>
    </contour>
    <contour>
      <point x="504" y="493" type="curve"/>
      <point x="519" y="469"/>
      <point x="531" y="435"/>
      <point x="533" y="412" type="curve"/>
      <point x="533" y="412"/>
      <point x="644" y="467"/>
      <point x="644" y="467" type="curve"/>
      <point x="639" y="489"/>
      <point x="625" y="520"/>
      <point x="608" y="541" type="curve"/>
      <point x="608" y="541"/>
      <point x="504" y="493"/>
    </contour>
    <contour>
      <point x="868" y="554" type="curve"/>
      <point x="853" y="528"/>
      <point x="826" y="491"/>
      <point x="805" y="465" type="curve"/>
      <point x="805" y="465"/>
      <point x="878" y="431"/>
      <point x="878" y="431" type="curve"/>
      <point x="903" y="451"/>
      <point x="936" y="481"/>
      <point x="975" y="514" type="curve"/>
      <point x="975" y="514"/>
      <point x="868" y="554"/>
    </contour>
    <contour>
      <point x="457" y="246" type="curve"/>
      <point x="457" y="246"/>
      <point x="393" y="-96"/>
      <point x="393" y="-96" type="curve"/>
      <point x="393" y="-96"/>
      <point x="517" y="-96"/>
      <point x="517" y="-96" type="curve"/>
      <point x="517" y="-96"/>
      <point x="564" y="156"/>
      <point x="564" y="156" type="curve"/>
      <point x="564" y="156"/>
      <point x="773" y="156"/>
      <point x="773" y="156" type="curve"/>
      <point x="773" y="156"/>
      <point x="726" y="-96"/>
      <point x="726" y="-96" type="curve"/>
      <point x="726" y="-96"/>
      <point x="856" y="-96"/>
      <point x="856" y="-96" type="curve"/>
      <point x="856" y="-96"/>
      <point x="920" y="246"/>
      <point x="920" y="246" type="curve"/>
      <point x="920" y="246"/>
      <point x="457" y="246"/>
    </contour>
  </outline>
</glyph>
<glyph name="uni674E" format="2">
  <advance height="1000" width="1000"/>
  <unicode hex="674E"/>
  <outline>
    <contour>
      <point x="136" y="770" type="line"/>
      <point x="110" y="636" type="line"/>
      <point x="1011" y="636" type="line"/>
      <point x="1037" y="770" type="line"/>
    </contour>
    <contour>
      <point x="524" y="855" type="line"/>
      <point x="449" y="459" type="line"/>
      <point x="597" y="459" type="line"/>
      <point x="672" y="855" type="line"/>
    </contour>
    <contour>
      <point x="440" y="729" type="line"/>
      <point x="355" y="634"/>
      <point x="206" y="551"/>
      <point x="54" y="509" type="curve"/>
      <point x="80" y="481"/>
      <point x="112" y="427"/>
      <point x="125" y="393" type="curve"/>
      <point x="291" y="448"/>
      <point x="445" y="553"/>
      <point x="554" y="682" type="curve"/>
    </contour>
    <contour>
      <point x="700" y="728" type="curve"/>
      <point x="573" y="682" type="line"/>
      <point x="637" y="554"/>
      <point x="753" y="450"/>
      <point x="899" y="396" type="curve"/>
      <point x="927" y="433"/>
      <point x="979" y="489"/>
      <point x="1017" y="517" type="curve"/>
      <point x="875" y="556"/>
      <point x="752" y="635"/>
    </contour>
    <contour>
      <point x="242" y="445" type="line"/>
      <point x="219" y="321" type="line"/>
      <point x="674" y="321" type="line"/>
      <point x="697" y="445" type="line"/>
    </contour>
    <contour>
      <point x="35" y="250" type="line"/>
      <point x="10" y="119" type="line"/>
      <point x="915" y="119" type="line"/>
      <point x="940" y="250" type="line"/>
    </contour>
    <contour>
      <point x="418" y="288" type="line"/>
      <point x="375" y="59" type="line" smooth="yes"/>
      <point x="373" y="46"/>
      <point x="367" y="43"/>
      <point x="347" y="42" type="curve"/>
      <point x="327" y="42"/>
      <point x="250" y="42"/>
      <point x="194" y="45" type="curve"/>
      <point x="210" y="10"/>
      <point x="229" y="-51"/>
      <point x="232" y="-91" type="curve"/>
      <point x="307" y="-91"/>
      <point x="370" y="-89"/>
      <point x="426" y="-69" type="curve" smooth="yes"/>
      <point x="483" y="-48"/>
      <point x="506" y="-13"/>
      <point x="518" y="54" type="curve" smooth="yes"/>
      <point x="562" y="288" type="line"/>
    </contour>
    <contour>
      <point x="670" y="445" type="line"/>
      <point x="665" y="418" type="line"/>
      <point x="616" y="381"/>
      <point x="505" y="320"/>
      <point x="418" y="288" type="curve"/>
      <point x="433" y="269"/>
      <point x="461" y="231"/>
      <point x="472" y="209" type="curve"/>
      <point x="588" y="251"/>
      <point x="712" y="313"/>
      <point x="814" y="370" type="curve"/>
      <point x="740" y="452" type="line"/>
      <point x="708" y="445" type="line"/>
    </contour>
  </outline>
</glyph>
<glyph name="uni682B" format="2">
  <advance height="1000" width="1000"/>
  <unicode hex="682B"/>
  <outline>
    <contour>
      <point x="468" y="724" type="line"/>
      <point x="443" y="593" type="line"/>
      <point x="1024" y="593" type="line"/>
      <point x="1049" y="724" type="line"/>
    </contour>
    <contour>
      <point x="668" y="539" type="line"/>
      <point x="645" y="417" type="line"/>
      <point x="907" y="417" type="line"/>
      <point x="930" y="539" type="line"/>
    </contour>
    <contour>
      <point x="590" y="306" type="line"/>
      <point x="565" y="175" type="line"/>
      <point x="948" y="175" type="line"/>
      <point x="973" y="306" type="line"/>
    </contour>
    <contour>
      <point x="735" y="369" type="line"/>
      <point x="674" y="50" type="line"/>
      <point x="673" y="40"/>
      <point x="668" y="37"/>
      <point x="656" y="37" type="curve" smooth="yes"/>
      <point x="643" y="37"/>
      <point x="603" y="37"/>
      <point x="569" y="38" type="curve"/>
      <point x="581" y="1"/>
      <point x="590" y="-57"/>
      <point x="589" y="-97" type="curve"/>
      <point x="649" y="-97"/>
      <point x="697" y="-94"/>
      <point x="740" y="-73" type="curve" smooth="yes"/>
      <point x="784" y="-51"/>
      <point x="800" y="-14"/>
      <point x="812" y="47" type="curve" smooth="yes"/>
      <point x="873" y="369" type="line"/>
    </contour>
    <contour>
      <point x="877" y="539" type="line"/>
      <point x="872" y="515" type="line"/>
      <point x="845" y="474"/>
      <point x="783" y="408"/>
      <point x="735" y="369" type="curve"/>
      <point x="752" y="350"/>
      <point x="781" y="312"/>
      <point x="793" y="287" type="curve"/>
      <point x="864" y="337"/>
      <point x="946" y="415"/>
      <point x="1007" y="483" type="curve"/>
      <point x="936" y="546" type="line"/>
      <point x="908" y="539" type="line"/>
    </contour>
    <contour>
      <point x="667" y="858" type="line"/>
      <point x="578" y="630"/>
      <point x="451" y="423"/>
      <point x="295" y="300" type="curve"/>
      <point x="318" y="272"/>
      <point x="355" y="211"/>
      <point x="367" y="180" type="curve"/>
      <point x="543" y="330"/>
      <point x="693" y="572"/>
      <point x="800" y="832" type="curve"/>
    </contour>
    <contour>
      <point x="104" y="653" type="line"/>
      <point x="79" y="519" type="line"/>
      <point x="413" y="519" type="line"/>
      <point x="438" y="653" type="line"/>
    </contour>
    <contour>
      <point x="254" y="855" type="line"/>
      <point x="74" y="-95" type="line"/>
      <point x="205" y="-95" type="line"/>
      <point x="385" y="855" type="line"/>
    </contour>
    <contour>
      <point x="195" y="558" type="line"/>
      <point x="152" y="440"/>
      <point x="73" y="292"/>
      <point x="-5" y="207" type="curve"/>
      <point x="9" y="173"/>
      <point x="28" y="117"/>
      <point x="33" y="78" type="curve"/>
      <point x="123" y="182"/>
      <point x="211" y="373"/>
      <point x="268" y="531" type="curve"/>
    </contour>
    <contour>
      <point x="316" y="553" type="curve"/>
      <point x="247" y="499" type="line"/>
      <point x="267" y="462"/>
      <point x="304" y="381"/>
      <point x="318" y="336" type="curve"/>
      <point x="405" y="437" type="line"/>
      <point x="392" y="456"/>
      <point x="333" y="535"/>
    </contour>
    <contour>
      <point x="453" y="413" type="line"/>
      <point x="357" y="-95" type="line"/>
      <point x="485" y="-95" type="line"/>
      <point x="603" y="530" type="line"/>
      <point x="596" y="534" type="line"/>
    </contour>
  </outline>
</glyph>
<glyph name="uni6D0A" format="2">
  <advance height="1000" width="1000"/>
  <unicode hex="6D0A"/>
  <outline>
    <contour>
      <point x="383" y="716" type="line"/>
      <point x="359" y="587" type="line"/>
      <point x="1024" y="587" type="line"/>
      <point x="1048" y="716" type="line"/>
    </contour>
    <contour>
      <point x="526" y="304" type="line"/>
      <point x="504" y="184" type="line"/>
      <point x="939" y="184" type="line"/>
      <point x="961" y="304" type="line"/>
    </contour>
    <contour>
      <point x="593" y="535" type="line"/>
      <point x="571" y="418" type="line"/>
      <point x="856" y="418" type="line"/>
      <point x="878" y="535" type="line"/>
    </contour>
    <contour>
      <point x="697" y="373" type="line"/>
      <point x="638" y="57" type="line" smooth="yes"/>
      <point x="635" y="44"/>
      <point x="630" y="41"/>
      <point x="614" y="41" type="curve" smooth="yes"/>
      <point x="597" y="41"/>
      <point x="536" y="41"/>
      <point x="489" y="43" type="curve"/>
      <point x="500" y="6"/>
      <point x="509" y="-51"/>
      <point x="508" y="-91" type="curve"/>
      <point x="585" y="-91"/>
      <point x="644" y="-89"/>
      <point x="693" y="-69" type="curve" smooth="yes"/>
      <point x="743" y="-48"/>
      <point x="761" y="-12"/>
      <point x="773" y="54" type="curve" smooth="yes"/>
      <point x="833" y="373" type="line"/>
    </contour>
    <contour>
      <point x="611" y="856" type="line"/>
      <point x="524" y="641"/>
      <point x="397" y="451"/>
      <point x="240" y="340" type="curve"/>
      <point x="264" y="313"/>
      <point x="303" y="253"/>
      <point x="315" y="223" type="curve"/>
      <point x="492" y="359"/>
      <point x="639" y="581"/>
      <point x="746" y="829" type="curve"/>
    </contour>
    <contour>
      <point x="394" y="411" type="line"/>
      <point x="298" y="-93" type="line"/>
      <point x="430" y="-93" type="line"/>
      <point x="550" y="542" type="line"/>
      <point x="551" y="543" type="line"/>
    </contour>
    <contour>
      <point x="855" y="535" type="line"/>
      <point x="851" y="512" type="line"/>
      <point x="821" y="471"/>
      <point x="753" y="409"/>
      <point x="697" y="373" type="curve"/>
      <point x="717" y="353"/>
      <point x="745" y="313"/>
      <point x="758" y="287" type="curve"/>
      <point x="831" y="335"/>
      <point x="920" y="413"/>
      <point x="981" y="484" type="curve"/>
      <point x="908" y="542" type="line"/>
      <point x="884" y="535" type="line"/>
    </contour>
    <contour>
      <point x="149" y="735" type="line"/>
      <point x="188" y="694"/>
      <point x="243" y="636"/>
      <point x="266" y="599" type="curve"/>
      <point x="378" y="700" type="line"/>
      <point x="352" y="736"/>
      <point x="293" y="790"/>
      <point x="254" y="826" type="curve"/>
    </contour>
    <contour>
      <point x="46" y="465" type="line"/>
      <point x="92" y="428"/>
      <point x="154" y="373"/>
      <point x="182" y="337" type="curve"/>
      <point x="285" y="447" type="line"/>
      <point x="256" y="480"/>
      <point x="189" y="530"/>
      <point x="143" y="562" type="curve"/>
    </contour>
    <contour>
      <point x="-18" y="16" type="curve"/>
      <point x="92" y="-68" type="line"/>
      <point x="160" y="31"/>
      <point x="227" y="139"/>
      <point x="288" y="244" type="curve"/>
      <point x="192" y="328" type="line"/>
      <point x="122" y="212"/>
      <point x="39" y="92"/>
    </contour>
  </outline>
</glyph>
<glyph name="uni6E24" format="2">
  <advance height="1000" width="1000"/>
  <unicode hex="6E24"/>
  <outline>
    <contour>
      <point x="151" y="771" type="line"/>
      <point x="173" y="723"/>
      <point x="197" y="658"/>
      <point x="205" y="617" type="curve"/>
      <point x="332" y="684" type="line"/>
      <point x="323" y="725"/>
      <point x="294" y="786"/>
      <point x="270" y="831" type="curve"/>
    </contour>
    <contour>
      <point x="51" y="472" type="line"/>
      <point x="84" y="427"/>
      <point x="125" y="365"/>
      <point x="140" y="325" type="curve"/>
      <point x="259" y="406" type="line"/>
      <point x="241" y="445"/>
      <point x="196" y="504"/>
      <point x="162" y="545" type="curve"/>
    </contour>
    <contour>
      <point x="-20" y="-13" type="curve"/>
      <point x="95" y="-74" type="line"/>
      <point x="143" y="23"/>
      <point x="196" y="135"/>
      <point x="240" y="241" type="curve"/>
      <point x="138" y="305" type="line"/>
      <point x="87" y="189"/>
      <point x="24" y="65"/>
    </contour>
    <contour>
      <point x="346" y="780" type="line"/>
      <point x="323" y="656" type="line"/>
      <point x="679" y="656" type="line"/>
      <point x="702" y="780" type="line"/>
    </contour>
    <contour>
      <point x="697" y="646" type="line"/>
      <point x="672" y="511" type="line"/>
      <point x="929" y="511" type="line"/>
      <point x="954" y="646" type="line"/>
    </contour>
    <contour>
      <point x="324" y="453" type="line"/>
      <point x="302" y="340" type="line"/>
      <point x="528" y="340" type="line"/>
      <point x="550" y="453" type="line"/>
    </contour>
    <contour>
      <point x="469" y="856" type="line"/>
      <point x="404" y="514" type="line"/>
      <point x="539" y="514" type="line"/>
      <point x="604" y="856" type="line"/>
    </contour>
    <contour>
      <point x="365" y="295" type="line"/>
      <point x="317" y="41" type="line" smooth="yes"/>
      <point x="315" y="31"/>
      <point x="311" y="28"/>
      <point x="299" y="28" type="curve" smooth="yes"/>
      <point x="287" y="28"/>
      <point x="247" y="28"/>
      <point x="214" y="29" type="curve"/>
      <point x="223" y="-6"/>
      <point x="229" y="-56"/>
      <point x="226" y="-92" type="curve"/>
      <point x="287" y="-93"/>
      <point x="335" y="-91"/>
      <point x="375" y="-72" type="curve" smooth="yes"/>
      <point x="418" y="-53"/>
      <point x="432" y="-19"/>
      <point x="443" y="38" type="curve" smooth="yes"/>
      <point x="492" y="295" type="line"/>
    </contour>
    <contour>
      <point x="236" y="242" type="curve"/>
      <point x="231" y="122" type="line"/>
      <point x="330" y="133"/>
      <point x="459" y="146"/>
      <point x="579" y="161" type="curve"/>
      <point x="597" y="276" type="line"/>
      <point x="467" y="262"/>
      <point x="329" y="249"/>
    </contour>
    <contour>
      <point x="785" y="855" type="line"/>
      <point x="705" y="440"/>
      <point x="666" y="168"/>
      <point x="469" y="-1" type="curve"/>
      <point x="497" y="-22"/>
      <point x="532" y="-69"/>
      <point x="545" y="-101" type="curve"/>
      <point x="766" y="92"/>
      <point x="828" y="411"/>
      <point x="913" y="855" type="curve"/>
    </contour>
    <contour>
      <point x="893" y="646" type="line"/>
      <point x="887" y="615" type="line" smooth="yes"/>
      <point x="806" y="216"/>
      <point x="775" y="85"/>
      <point x="754" y="57" type="curve" smooth="yes"/>
      <point x="743" y="41"/>
      <point x="734" y="37"/>
      <point x="722" y="37" type="curve" smooth="yes"/>
      <point x="707" y="37"/>
      <point x="689" y="37"/>
      <point x="668" y="40" type="curve"/>
      <point x="680" y="4"/>
      <point x="682" y="-51"/>
      <point x="677" y="-88" type="curve"/>
      <point x="715" y="-89"/>
      <point x="747" y="-88"/>
      <point x="774" y="-81" type="curve" smooth="yes"/>
      <point x="804" y="-74"/>
      <point x="825" y="-63"/>
      <point x="853" y="-28" type="curve" smooth="yes"/>
      <point x="888" y="15"/>
      <point x="923" y="168"/>
      <point x="1009" y="588" type="curve" smooth="yes"/>
      <point x="1013" y="604"/>
      <point x="1021" y="646"/>
      <point x="1021" y="646" type="curve"/>
    </contour>
    <contour>
      <point x="295" y="601" type="line"/>
      <point x="263" y="433" type="line"/>
      <point x="386" y="433" type="line"/>
      <point x="396" y="487" type="line"/>
      <point x="530" y="487" type="line"/>
      <point x="520" y="433" type="line"/>
      <point x="650" y="433" type="line"/>
      <point x="682" y="601" type="line"/>
    </contour>
    <contour>
      <point x="496" y="453" type="line"/>
      <point x="491" y="430" type="line"/>
      <point x="465" y="393"/>
      <point x="409" y="331"/>
      <point x="365" y="295" type="curve"/>
      <point x="380" y="279"/>
      <point x="407" y="243"/>
      <point x="418" y="221" type="curve"/>
      <point x="485" y="267"/>
      <point x="563" y="337"/>
      <point x="621" y="397" type="curve"/>
      <point x="555" y="460" type="line"/>
      <point x="527" y="453" type="line"/>
    </contour>
  </outline>
</glyph>
<glyph name="uni6F7A" format="2">
  <advance height="1000" width="1000"/>
  <unicode hex="6F7A"/>
  <outline>
    <contour>
      <point x="474" y="820" type="line"/>
      <point x="455" y="719" type="line"/>
      <point x="888" y="719" type="line"/>
      <point x="883" y="692" type="line"/>
      <point x="450" y="692" type="line"/>
      <point x="431" y="591" type="line"/>
      <point x="997" y="591" type="line"/>
      <point x="1040" y="820" type="line"/>
    </contour>
    <contour>
      <point x="401" y="820" type="line"/>
      <point x="341" y="504" type="line" smooth="yes"/>
      <point x="311" y="345"/>
      <point x="263" y="120"/>
      <point x="148" y="-32" type="curve"/>
      <point x="180" y="-44"/>
      <point x="232" y="-77"/>
      <point x="254" y="-99" type="curve"/>
      <point x="377" y="66"/>
      <point x="441" y="329"/>
      <point x="474" y="504" type="curve" smooth="yes"/>
      <point x="534" y="820" type="line"/>
    </contour>
    <contour>
      <point x="552" y="571" type="line"/>
      <point x="537" y="490" type="line"/>
      <point x="871" y="490" type="line"/>
      <point x="886" y="571" type="line"/>
    </contour>
    <contour>
      <point x="488" y="456" type="line"/>
      <point x="471" y="366" type="line"/>
      <point x="962" y="366" type="line"/>
      <point x="979" y="456" type="line"/>
    </contour>
    <contour>
      <point x="838" y="571" type="line"/>
      <point x="834" y="552" type="line"/>
      <point x="799" y="526"/>
      <point x="730" y="489"/>
      <point x="677" y="467" type="curve"/>
      <point x="689" y="454"/>
      <point x="709" y="426"/>
      <point x="717" y="409" type="curve"/>
      <point x="793" y="437"/>
      <point x="877" y="477"/>
      <point x="946" y="517" type="curve"/>
      <point x="892" y="577" type="line"/>
      <point x="867" y="571" type="line"/>
    </contour>
    <contour>
      <point x="362" y="122" type="curve"/>
      <point x="356" y="23" type="line"/>
      <point x="436" y="30"/>
      <point x="531" y="40"/>
      <point x="624" y="50" type="curve"/>
      <point x="640" y="142" type="line"/>
      <point x="536" y="134"/>
      <point x="435" y="126"/>
    </contour>
    <contour>
      <point x="677" y="467" type="line"/>
      <point x="658" y="365" type="line" smooth="yes"/>
      <point x="656" y="355"/>
      <point x="652" y="352"/>
      <point x="640" y="352" type="curve"/>
      <point x="629" y="351"/>
      <point x="586" y="351"/>
      <point x="556" y="353" type="curve"/>
      <point x="563" y="328"/>
      <point x="571" y="293"/>
      <point x="572" y="264" type="curve"/>
      <point x="632" y="264"/>
      <point x="679" y="264"/>
      <point x="717" y="276" type="curve" smooth="yes"/>
      <point x="756" y="289"/>
      <point x="770" y="311"/>
      <point x="779" y="360" type="curve" smooth="yes"/>
      <point x="799" y="467" type="line"/>
    </contour>
    <contour>
      <point x="433" y="281" type="line"/>
      <point x="416" y="193" type="line"/>
      <point x="606" y="193" type="line"/>
      <point x="623" y="281" type="line"/>
    </contour>
    <contour>
      <point x="571" y="281" type="line"/>
      <point x="568" y="263" type="line"/>
      <point x="545" y="233"/>
      <point x="502" y="188"/>
      <point x="467" y="161" type="curve"/>
      <point x="479" y="147"/>
      <point x="500" y="119"/>
      <point x="509" y="101" type="curve"/>
      <point x="565" y="136"/>
      <point x="627" y="186"/>
      <point x="678" y="231" type="curve"/>
      <point x="623" y="287" type="line"/>
      <point x="599" y="281" type="line"/>
    </contour>
    <contour>
      <point x="467" y="161" type="line"/>
      <point x="439" y="13" type="line"/>
      <point x="438" y="5"/>
      <point x="434" y="2"/>
      <point x="425" y="2" type="curve" smooth="yes"/>
      <point x="417" y="2"/>
      <point x="391" y="2"/>
      <point x="370" y="3" type="curve"/>
      <point x="376" y="-24"/>
      <point x="381" y="-61"/>
      <point x="380" y="-90" type="curve"/>
      <point x="429" y="-90"/>
      <point x="465" y="-90"/>
      <point x="498" y="-75" type="curve" smooth="yes"/>
      <point x="531" y="-61"/>
      <point x="543" y="-37"/>
      <point x="552" y="10" type="curve" smooth="yes"/>
      <point x="580" y="161" type="line"/>
    </contour>
    <contour>
      <point x="691" y="281" type="line"/>
      <point x="674" y="193" type="line"/>
      <point x="877" y="193" type="line"/>
      <point x="894" y="281" type="line"/>
    </contour>
    <contour>
      <point x="652" y="140" type="line"/>
      <point x="635" y="46" type="line"/>
      <point x="924" y="46" type="line"/>
      <point x="941" y="140" type="line"/>
    </contour>
    <contour>
      <point x="848" y="281" type="line"/>
      <point x="845" y="262" type="line"/>
      <point x="821" y="234"/>
      <point x="773" y="191"/>
      <point x="736" y="165" type="curve"/>
      <point x="749" y="151"/>
      <point x="770" y="122"/>
      <point x="779" y="104" type="curve"/>
      <point x="837" y="138"/>
      <point x="903" y="186"/>
      <point x="955" y="230" type="curve"/>
      <point x="900" y="287" type="line"/>
      <point x="876" y="281" type="line"/>
    </contour>
    <contour>
      <point x="736" y="165" type="line"/>
      <point x="708" y="18" type="line"/>
      <point x="707" y="9"/>
      <point x="703" y="6"/>
      <point x="693" y="6" type="curve" smooth="yes"/>
      <point x="684" y="6"/>
      <point x="653" y="6"/>
      <point x="628" y="7" type="curve"/>
      <point x="636" y="-21"/>
      <point x="642" y="-60"/>
      <point x="640" y="-91" type="curve"/>
      <point x="693" y="-91"/>
      <point x="733" y="-90"/>
      <point x="768" y="-76" type="curve" smooth="yes"/>
      <point x="804" y="-60"/>
      <point x="815" y="-35"/>
      <point x="825" y="14" type="curve" smooth="yes"/>
      <point x="853" y="165" type="line"/>
    </contour>
    <contour>
      <point x="129" y="763" type="line"/>
      <point x="176" y="724"/>
      <point x="236" y="666"/>
      <point x="260" y="627" type="curve"/>
      <point x="375" y="728" type="line"/>
      <point x="346" y="766"/>
      <point x="283" y="818"/>
      <point x="235" y="853" type="curve"/>
    </contour>
    <contour>
      <point x="48" y="505" type="line"/>
      <point x="102" y="471"/>
      <point x="173" y="418"/>
      <point x="204" y="382" type="curve"/>
      <point x="309" y="493" type="line"/>
      <point x="275" y="527"/>
      <point x="200" y="575"/>
      <point x="147" y="604" type="curve"/>
    </contour>
    <contour>
      <point x="-32" y="-20" type="curve"/>
      <point x="81" y="-91" type="line"/>
      <point x="145" y="20"/>
      <point x="213" y="146"/>
      <point x="271" y="266" type="curve"/>
      <point x="173" y="339" type="line"/>
      <point x="107" y="207"/>
      <point x="26" y="68"/>
    </contour>
  </outline>
</glyph>
<glyph name="uni731B" format="2">
  <advance height="1000" width="1000"/>
  <unicode hex="731B"/>
  <outline>
    <contour>
      <point x="515" y="820" type="line"/>
      <point x="492" y="700" type="line"/>
      <point x="880" y="700" type="line"/>
      <point x="903" y="820" type="line"/>
    </contour>
    <contour>
      <point x="408" y="616" type="line"/>
      <point x="385" y="494" type="line"/>
      <point x="998" y="494" type="line"/>
      <point x="1021" y="616" type="line"/>
    </contour>
    <contour>
      <point x="274" y="52" type="line"/>
      <point x="250" y="-74" type="line"/>
      <point x="899" y="-74" type="line"/>
      <point x="923" y="52" type="line"/>
    </contour>
    <contour>
      <point x="658" y="659" type="line"/>
      <point x="620" y="459" type="line"/>
      <point x="617" y="447"/>
      <point x="612" y="445"/>
      <point x="597" y="444" type="curve"/>
      <point x="582" y="444"/>
      <point x="526" y="444"/>
      <point x="486" y="446" type="curve"/>
      <point x="500" y="414"/>
      <point x="517" y="362"/>
      <point x="519" y="325" type="curve"/>
      <point x="583" y="325"/>
      <point x="636" y="327"/>
      <point x="683" y="345" type="curve" smooth="yes"/>
      <point x="732" y="364"/>
      <point x="750" y="394"/>
      <point x="762" y="455" type="curve" smooth="yes"/>
      <point x="801" y="659" type="line"/>
    </contour>
    <contour>
      <point x="851" y="820" type="line"/>
      <point x="846" y="795" type="line"/>
      <point x="808" y="756"/>
      <point x="726" y="694"/>
      <point x="658" y="659" type="curve"/>
      <point x="671" y="642"/>
      <point x="698" y="608"/>
      <point x="708" y="587" type="curve"/>
      <point x="806" y="630"/>
      <point x="907" y="696"/>
      <point x="986" y="757" type="curve"/>
      <point x="917" y="827" type="line"/>
      <point x="886" y="820" type="line"/>
    </contour>
    <contour>
      <point x="380" y="313" type="line"/>
      <point x="324" y="15" type="line"/>
      <point x="443" y="15" type="line"/>
      <point x="478" y="199" type="line"/>
      <point x="511" y="199" type="line"/>
      <point x="476" y="15" type="line"/>
      <point x="576" y="15" type="line"/>
      <point x="611" y="199" type="line"/>
      <point x="645" y="199" type="line"/>
      <point x="610" y="15" type="line"/>
      <point x="710" y="15" type="line"/>
      <point x="745" y="199" type="line"/>
      <point x="779" y="199" type="line"/>
      <point x="744" y="15" type="line"/>
      <point x="870" y="15" type="line"/>
      <point x="926" y="313" type="line"/>
    </contour>
    <contour>
      <point x="111" y="776" type="line"/>
      <point x="232" y="641"/>
      <point x="231" y="496"/>
      <point x="195" y="307" type="curve" smooth="yes"/>
      <point x="172" y="187"/>
      <point x="146" y="84"/>
      <point x="122" y="59" type="curve" smooth="yes"/>
      <point x="113" y="49"/>
      <point x="103" y="44"/>
      <point x="90" y="42" type="curve" smooth="yes"/>
      <point x="73" y="40"/>
      <point x="44" y="40"/>
      <point x="3" y="43" type="curve"/>
      <point x="19" y="2"/>
      <point x="20" y="-49"/>
      <point x="11" y="-95" type="curve"/>
      <point x="55" y="-97"/>
      <point x="96" y="-96"/>
      <point x="136" y="-85" type="curve" smooth="yes"/>
      <point x="161" y="-79"/>
      <point x="188" y="-64"/>
      <point x="207" y="-42" type="curve" smooth="yes"/>
      <point x="268" y="25"/>
      <point x="304" y="166"/>
      <point x="330" y="304" type="curve" smooth="yes"/>
      <point x="368" y="505"/>
      <point x="378" y="685"/>
      <point x="226" y="851" type="curve"/>
    </contour>
    <contour>
      <point x="239" y="480" type="line"/>
      <point x="182" y="399"/>
      <point x="81" y="304"/>
      <point x="0" y="257" type="curve"/>
      <point x="27" y="231"/>
      <point x="57" y="184"/>
      <point x="72" y="150" type="curve"/>
      <point x="160" y="215"/>
      <point x="268" y="327"/>
      <point x="331" y="418" type="curve"/>
    </contour>
    <contour>
      <point x="344" y="844" type="line"/>
      <point x="271" y="738"/>
      <point x="162" y="624"/>
      <point x="57" y="558" type="curve"/>
      <point x="84" y="535"/>
      <point x="122" y="492"/>
      <point x="138" y="463" type="curve"/>
      <point x="249" y="539"/>
      <point x="368" y="658"/>
      <point x="459" y="782" type="curve"/>
    </contour>
  </outline>
</glyph>
<glyph name="uni7C7D" format="2">
  <advance height="1000" width="1000"/>
  <unicode hex="7C7D"/>
  <outline>
    <contour>
      <point x="273" y="856" type="line"/>
      <point x="93" y="-94" type="line"/>
      <point x="230" y="-94" type="line"/>
      <point x="410" y="856" type="line"/>
    </contour>
    <contour>
      <point x="71" y="516" type="line"/>
      <point x="45" y="381" type="line"/>
      <point x="442" y="381" type="line"/>
      <point x="468" y="516" type="line"/>
    </contour>
    <contour>
      <point x="189" y="448" type="line"/>
      <point x="144" y="356"/>
      <point x="61" y="232"/>
      <point x="-16" y="160" type="curve"/>
      <point x="-2" y="119"/>
      <point x="18" y="54"/>
      <point x="23" y="9" type="curve"/>
      <point x="116" y="104"/>
      <point x="210" y="274"/>
      <point x="270" y="409" type="curve"/>
    </contour>
    <contour>
      <point x="308" y="382" type="curve"/>
      <point x="228" y="317" type="line"/>
      <point x="257" y="268"/>
      <point x="305" y="173"/>
      <point x="326" y="114" type="curve"/>
      <point x="429" y="231" type="line"/>
      <point x="411" y="256"/>
      <point x="333" y="358"/>
    </contour>
    <contour>
      <point x="114" y="766" type="line"/>
      <point x="123" y="694"/>
      <point x="121" y="598"/>
      <point x="111" y="537" type="curve"/>
      <point x="226" y="565" type="line"/>
      <point x="235" y="627"/>
      <point x="233" y="720"/>
      <point x="222" y="792" type="curve"/>
    </contour>
    <contour>
      <point x="432" y="800" type="line"/>
      <point x="409" y="729"/>
      <point x="367" y="630"/>
      <point x="334" y="566" type="curve"/>
      <point x="424" y="540" type="line"/>
      <point x="461" y="599"/>
      <point x="511" y="691"/>
      <point x="554" y="774" type="curve"/>
    </contour>
    <contour>
      <point x="562" y="798" type="line"/>
      <point x="537" y="667" type="line"/>
      <point x="920" y="667" type="line"/>
      <point x="945" y="798" type="line"/>
    </contour>
    <contour>
      <point x="464" y="434" type="line"/>
      <point x="438" y="296" type="line"/>
      <point x="970" y="296" type="line"/>
      <point x="996" y="434" type="line"/>
    </contour>
    <contour>
      <point x="681" y="571" type="line"/>
      <point x="585" y="64" type="line" smooth="yes"/>
      <point x="582" y="49"/>
      <point x="576" y="45"/>
      <point x="558" y="44" type="curve"/>
      <point x="541" y="44"/>
      <point x="481" y="44"/>
      <point x="437" y="47" type="curve"/>
      <point x="450" y="8"/>
      <point x="459" y="-52"/>
      <point x="458" y="-93" type="curve"/>
      <point x="538" y="-93"/>
      <point x="600" y="-90"/>
      <point x="650" y="-69" type="curve" smooth="yes"/>
      <point x="701" y="-47"/>
      <point x="722" y="-10"/>
      <point x="736" y="61" type="curve" smooth="yes"/>
      <point x="832" y="571" type="line"/>
    </contour>
    <contour>
      <point x="889" y="798" type="line"/>
      <point x="883" y="768" type="line"/>
      <point x="844" y="713"/>
      <point x="759" y="622"/>
      <point x="681" y="571" type="curve"/>
      <point x="698" y="552"/>
      <point x="730" y="514"/>
      <point x="743" y="489" type="curve"/>
      <point x="856" y="549"/>
      <point x="964" y="648"/>
      <point x="1047" y="733" type="curve"/>
      <point x="963" y="805" type="line"/>
      <point x="929" y="798" type="line"/>
    </contour>
  </outline>
</glyph>
<glyph name="uni7DCA" format="2">
  <advance height="1000" width="1000"/>
  <unicode hex="7DCA"/>
  <outline>
    <contour>
      <point x="632" y="818" type="curve"/>
      <point x="632" y="818"/>
      <point x="609" y="700"/>
      <point x="609" y="700" type="curve"/>
      <point x="609" y="700"/>
      <point x="916" y="700"/>
      <point x="916" y="700" type="curve"/>
      <point x="916" y="700"/>
      <point x="939" y="818"/>
      <point x="939" y="818" type="curve"/>
      <point x="939" y="818"/>
      <point x="632" y="818"/>
    </contour>
    <contour>
      <point x="221" y="706" type="curve"/>
      <point x="221" y="706"/>
      <point x="207" y="631"/>
      <point x="207" y="631" type="curve"/>
      <point x="207" y="631"/>
      <point x="433" y="631"/>
      <point x="433" y="631" type="curve"/>
      <point x="433" y="631"/>
      <point x="427" y="599"/>
      <point x="427" y="599" type="curve"/>
      <point x="427" y="599"/>
      <point x="201" y="599"/>
      <point x="201" y="599" type="curve"/>
      <point x="201" y="599"/>
      <point x="187" y="524"/>
      <point x="187" y="524" type="curve"/>
      <point x="187" y="524"/>
      <point x="524" y="524"/>
      <point x="524" y="524" type="curve"/>
      <point x="524" y="524"/>
      <point x="558" y="706"/>
      <point x="558" y="706" type="curve"/>
      <point x="558" y="706"/>
      <point x="221" y="706"/>
    </contour>
    <contour>
      <point x="371" y="786" type="curve"/>
      <point x="371" y="786"/>
      <point x="345" y="651"/>
      <point x="345" y="651" type="curve"/>
      <point x="345" y="651"/>
      <point x="460" y="651"/>
      <point x="460" y="651" type="curve"/>
      <point x="460" y="651"/>
      <point x="486" y="786"/>
      <point x="486" y="786" type="curve"/>
      <point x="486" y="786"/>
      <point x="371" y="786"/>
    </contour>
    <contour>
      <point x="328" y="560" type="curve"/>
      <point x="328" y="560"/>
      <point x="302" y="425"/>
      <point x="302" y="425" type="curve"/>
      <point x="302" y="425"/>
      <point x="417" y="425"/>
      <point x="417" y="425" type="curve"/>
      <point x="417" y="425"/>
      <point x="443" y="560"/>
      <point x="443" y="560" type="curve"/>
      <point x="443" y="560"/>
      <point x="328" y="560"/>
    </contour>
    <contour>
      <point x="744" y="715" type="curve"/>
      <point x="744" y="715"/>
      <point x="628" y="683"/>
      <point x="628" y="683" type="curve"/>
      <point x="668" y="542"/>
      <point x="759" y="438"/>
      <point x="906" y="388" type="curve"/>
      <point x="931" y="421"/>
      <point x="976" y="471"/>
      <point x="1009" y="496" type="curve"/>
      <point x="872" y="531"/>
      <point x="777" y="611"/>
    </contour>
    <contour>
      <point x="902" y="818" type="curve"/>
      <point x="902" y="818"/>
      <point x="898" y="801"/>
      <point x="898" y="801" type="curve"/>
      <point x="831" y="640"/>
      <point x="698" y="535"/>
      <point x="530" y="493" type="curve"/>
      <point x="549" y="469"/>
      <point x="570" y="423"/>
      <point x="578" y="392" type="curve"/>
      <point x="780" y="454"/>
      <point x="930" y="572"/>
      <point x="1024" y="796" type="curve"/>
      <point x="1024" y="796"/>
      <point x="949" y="822"/>
      <point x="949" y="822" type="curve"/>
      <point x="949" y="822"/>
      <point x="926" y="818"/>
      <point x="926" y="818" type="curve"/>
      <point x="926" y="818"/>
      <point x="902" y="818"/>
    </contour>
    <contour>
      <point x="600" y="829" type="curve"/>
      <point x="600" y="829"/>
      <point x="168" y="829"/>
      <point x="168" y="829" type="curve"/>
      <point x="168" y="829"/>
      <point x="86" y="397"/>
      <point x="86" y="397" type="curve"/>
      <point x="86" y="397"/>
      <point x="530" y="397"/>
      <point x="530" y="397" type="curve"/>
      <point x="530" y="397"/>
      <point x="548" y="490"/>
      <point x="548" y="490" type="curve"/>
      <point x="548" y="490"/>
      <point x="235" y="490"/>
      <point x="235" y="490" type="curve"/>
      <point x="235" y="490"/>
      <point x="281" y="736"/>
      <point x="281" y="736" type="curve"/>
      <point x="281" y="736"/>
      <point x="582" y="736"/>
      <point x="582" y="736" type="curve"/>
      <point x="582" y="736"/>
      <point x="600" y="829"/>
    </contour>
    <contour>
      <point x="215" y="94" type="curve"/>
      <point x="162" y="59"/>
      <point x="72" y="29"/>
      <point x="-13" y="10" type="curve"/>
      <point x="12" y="-8"/>
      <point x="53" y="-46"/>
      <point x="73" y="-68" type="curve"/>
      <point x="156" y="-42"/>
      <point x="259" y="3"/>
      <point x="326" y="53" type="curve"/>
      <point x="326" y="53"/>
      <point x="215" y="94"/>
    </contour>
    <contour>
      <point x="571" y="37" type="curve"/>
      <point x="643" y="11"/>
      <point x="734" y="-33"/>
      <point x="784" y="-63" type="curve"/>
      <point x="784" y="-63"/>
      <point x="892" y="13"/>
      <point x="892" y="13" type="curve"/>
      <point x="839" y="41"/>
      <point x="749" y="80"/>
      <point x="677" y="105" type="curve"/>
      <point x="677" y="105"/>
      <point x="571" y="37"/>
    </contour>
    <contour>
      <point x="631" y="236" type="curve"/>
      <point x="696" y="190"/>
      <point x="774" y="122"/>
      <point x="810" y="79" type="curve"/>
      <point x="810" y="79"/>
      <point x="918" y="149"/>
      <point x="918" y="149" type="curve"/>
      <point x="879" y="191"/>
      <point x="803" y="250"/>
      <point x="735" y="292" type="curve"/>
      <point x="735" y="292"/>
      <point x="631" y="236"/>
    </contour>
    <contour>
      <point x="155" y="236" type="curve"/>
      <point x="157" y="248"/>
      <point x="247" y="271"/>
      <point x="247" y="271" type="curve"/>
      <point x="247" y="271"/>
      <point x="248" y="273"/>
      <point x="248" y="273" type="curve"/>
      <point x="340" y="292"/>
      <point x="437" y="322"/>
      <point x="532" y="365" type="curve"/>
      <point x="532" y="365"/>
      <point x="458" y="426"/>
      <point x="458" y="426" type="curve"/>
      <point x="363" y="376"/>
      <point x="263" y="346"/>
      <point x="226" y="338" type="curve" smooth="yes"/>
      <point x="192" y="330"/>
      <point x="167" y="324"/>
      <point x="142" y="322" type="curve"/>
      <point x="142" y="322"/>
      <point x="155" y="236"/>
    </contour>
    <contour>
      <point x="155" y="236" type="curve"/>
      <point x="184" y="239"/>
      <point x="230" y="242"/>
      <point x="585" y="263" type="curve"/>
      <point x="585" y="263"/>
      <point x="590" y="337"/>
      <point x="590" y="337" type="curve"/>
      <point x="590" y="337"/>
      <point x="217" y="320"/>
      <point x="217" y="320" type="curve"/>
      <point x="217" y="320"/>
      <point x="164" y="292"/>
      <point x="164" y="292" type="curve"/>
      <point x="164" y="292"/>
      <point x="155" y="236"/>
    </contour>
    <contour>
      <point x="69" y="89" type="curve"/>
      <point x="70" y="95"/>
      <point x="154" y="113"/>
      <point x="154" y="113" type="curve"/>
      <point x="154" y="113"/>
      <point x="155" y="115"/>
      <point x="155" y="115" type="curve"/>
      <point x="341" y="160"/>
      <point x="539" y="219"/>
      <point x="741" y="315" type="curve"/>
      <point x="741" y="315"/>
      <point x="668" y="387"/>
      <point x="668" y="387" type="curve"/>
      <point x="482" y="292"/>
      <point x="280" y="227"/>
      <point x="205" y="208" type="curve" smooth="yes"/>
      <point x="141" y="190"/>
      <point x="100" y="180"/>
      <point x="58" y="177" type="curve"/>
      <point x="58" y="177"/>
      <point x="69" y="89"/>
    </contour>
    <contour>
      <point x="69" y="89" type="curve"/>
      <point x="119" y="94"/>
      <point x="188" y="98"/>
      <point x="810" y="135" type="curve"/>
      <point x="810" y="135"/>
      <point x="816" y="221"/>
      <point x="816" y="221" type="curve"/>
      <point x="816" y="221"/>
      <point x="154" y="189"/>
      <point x="154" y="189" type="curve"/>
      <point x="154" y="189"/>
      <point x="79" y="153"/>
      <point x="79" y="153" type="curve"/>
      <point x="79" y="153"/>
      <point x="69" y="89"/>
    </contour>
    <contour>
      <point x="418" y="144" type="curve"/>
      <point x="418" y="144"/>
      <point x="396" y="27"/>
      <point x="396" y="27" type="curve"/>
      <point x="394" y="15"/>
      <point x="387" y="12"/>
      <point x="372" y="12" type="curve"/>
      <point x="359" y="11"/>
      <point x="300" y="11"/>
      <point x="263" y="14" type="curve"/>
      <point x="274" y="-16"/>
      <point x="287" y="-59"/>
      <point x="289" y="-93" type="curve"/>
      <point x="357" y="-94"/>
      <point x="413" y="-93"/>
      <point x="462" y="-78" type="curve" smooth="yes"/>
      <point x="511" y="-63"/>
      <point x="530" y="-38"/>
      <point x="541" y="21" type="curve"/>
      <point x="541" y="21"/>
      <point x="564" y="144"/>
      <point x="564" y="144" type="curve"/>
      <point x="564" y="144"/>
      <point x="418" y="144"/>
    </contour>
  </outline>
</glyph>
<glyph name="uni8014" format="2">
  <advance height="1000" width="1000"/>
  <unicode hex="8014"/>
  <outline>
    <contour>
      <point x="597" y="805" type="line"/>
      <point x="572" y="671" type="line"/>
      <point x="919" y="671" type="line"/>
      <point x="944" y="805" type="line"/>
    </contour>
    <contour>
      <point x="496" y="438" type="line"/>
      <point x="470" y="303" type="line"/>
      <point x="970" y="303" type="line"/>
      <point x="996" y="438" type="line"/>
    </contour>
    <contour>
      <point x="908" y="805" type="line"/>
      <point x="903" y="777" type="line"/>
      <point x="863" y="714"/>
      <point x="770" y="617"/>
      <point x="692" y="561" type="curve"/>
      <point x="715" y="539"/>
      <point x="749" y="495"/>
      <point x="764" y="466" type="curve"/>
      <point x="860" y="534"/>
      <point x="973" y="647"/>
      <point x="1052" y="748" type="curve"/>
      <point x="969" y="813" type="line"/>
      <point x="940" y="805" type="line"/>
    </contour>
    <contour>
      <point x="692" y="561" type="line"/>
      <point x="598" y="63" type="line" smooth="yes"/>
      <point x="595" y="48"/>
      <point x="588" y="43"/>
      <point x="570" y="43" type="curve" smooth="yes"/>
      <point x="551" y="43"/>
      <point x="486" y="43"/>
      <point x="436" y="46" type="curve"/>
      <point x="448" y="7"/>
      <point x="458" y="-54"/>
      <point x="456" y="-94" type="curve"/>
      <point x="540" y="-95"/>
      <point x="607" y="-92"/>
      <point x="658" y="-71" type="curve" smooth="yes"/>
      <point x="710" y="-49"/>
      <point x="732" y="-13"/>
      <point x="745" y="60" type="curve" smooth="yes"/>
      <point x="840" y="561" type="line"/>
    </contour>
    <contour>
      <point x="55" y="428" type="line"/>
      <point x="31" y="304" type="line"/>
      <point x="450" y="304" type="line"/>
      <point x="474" y="428" type="line"/>
    </contour>
    <contour>
      <point x="114" y="595" type="line"/>
      <point x="92" y="474" type="line"/>
      <point x="466" y="474" type="line"/>
      <point x="488" y="595" type="line"/>
    </contour>
    <contour>
      <point x="285" y="856" type="line"/>
      <point x="105" y="-94" type="line"/>
      <point x="239" y="-94" type="line"/>
      <point x="419" y="856" type="line"/>
    </contour>
    <contour>
      <point x="205" y="381" type="line"/>
      <point x="154" y="291"/>
      <point x="59" y="176"/>
      <point x="-26" y="109" type="curve"/>
      <point x="-12" y="72"/>
      <point x="7" y="13"/>
      <point x="12" y="-27" type="curve"/>
      <point x="115" y="58"/>
      <point x="219" y="213"/>
      <point x="289" y="340" type="curve"/>
    </contour>
    <contour>
      <point x="301" y="298" type="curve"/>
      <point x="212" y="231" type="line"/>
      <point x="247" y="186"/>
      <point x="309" y="99"/>
      <point x="336" y="44" type="curve"/>
      <point x="443" y="155" type="line"/>
      <point x="422" y="179"/>
      <point x="332" y="274"/>
    </contour>
    <contour>
      <point x="490" y="798" type="line"/>
      <point x="387" y="767"/>
      <point x="236" y="743"/>
      <point x="103" y="730" type="curve"/>
      <point x="111" y="701"/>
      <point x="119" y="655"/>
      <point x="117" y="624" type="curve"/>
      <point x="255" y="633"/>
      <point x="419" y="654"/>
      <point x="548" y="689" type="curve"/>
    </contour>
  </outline>
</glyph>
<glyph name="uni806F" format="2">
  <advance height="1000" width="1000"/>
  <unicode hex="806F"/>
  <outline>
    <contour>
      <point x="592" y="520" type="curve"/>
      <point x="599" y="465"/>
      <point x="602" y="392"/>
      <point x="602" y="347" type="curve"/>
      <point x="602" y="347"/>
      <point x="690" y="372"/>
      <point x="690" y="372" type="curve"/>
      <point x="690" y="414"/>
      <point x="684" y="488"/>
      <point x="677" y="540" type="curve"/>
      <point x="677" y="540"/>
      <point x="592" y="520"/>
    </contour>
    <contour>
      <point x="456" y="545" type="curve"/>
      <point x="459" y="561"/>
      <point x="522" y="602"/>
      <point x="522" y="602" type="curve"/>
      <point x="522" y="602"/>
      <point x="522" y="605"/>
      <point x="522" y="605" type="curve"/>
      <point x="577" y="650"/>
      <point x="647" y="732"/>
      <point x="702" y="811" type="curve"/>
      <point x="702" y="811"/>
      <point x="609" y="854"/>
      <point x="609" y="854" type="curve"/>
      <point x="571" y="781"/>
      <point x="512" y="716"/>
      <point x="496" y="698" type="curve"/>
      <point x="477" y="679"/>
      <point x="461" y="668"/>
      <point x="446" y="663" type="curve"/>
      <point x="446" y="663"/>
      <point x="456" y="545"/>
    </contour>
    <contour>
      <point x="456" y="545" type="curve"/>
      <point x="471" y="548"/>
      <point x="497" y="551"/>
      <point x="610" y="561" type="curve"/>
      <point x="610" y="561"/>
      <point x="639" y="646"/>
      <point x="639" y="646" type="curve"/>
      <point x="639" y="646"/>
      <point x="508" y="639"/>
      <point x="508" y="639" type="curve"/>
      <point x="508" y="639"/>
      <point x="467" y="609"/>
      <point x="467" y="609" type="curve"/>
      <point x="467" y="609"/>
      <point x="456" y="545"/>
    </contour>
    <contour>
      <point x="418" y="363" type="curve"/>
      <point x="420" y="377"/>
      <point x="484" y="415"/>
      <point x="484" y="415" type="curve"/>
      <point x="484" y="415"/>
      <point x="485" y="418"/>
      <point x="485" y="418" type="curve"/>
      <point x="566" y="481"/>
      <point x="663" y="580"/>
      <point x="746" y="683" type="curve"/>
      <point x="746" y="683"/>
      <point x="663" y="733"/>
      <point x="663" y="733" type="curve"/>
      <point x="595" y="637"/>
      <point x="505" y="545"/>
      <point x="477" y="521" type="curve" smooth="yes"/>
      <point x="451" y="497"/>
      <point x="430" y="481"/>
      <point x="410" y="476" type="curve"/>
      <point x="410" y="476"/>
      <point x="418" y="363"/>
    </contour>
    <contour>
      <point x="418" y="363" type="curve"/>
      <point x="437" y="367"/>
      <point x="469" y="371"/>
      <point x="673" y="394" type="curve"/>
      <point x="673" y="394"/>
      <point x="684" y="482"/>
      <point x="684" y="482" type="curve"/>
      <point x="684" y="482"/>
      <point x="472" y="462"/>
      <point x="472" y="462" type="curve"/>
      <point x="472" y="462"/>
      <point x="429" y="431"/>
      <point x="429" y="431" type="curve"/>
      <point x="429" y="431"/>
      <point x="418" y="363"/>
    </contour>
    <contour>
      <point x="893" y="523" type="curve"/>
      <point x="901" y="466"/>
      <point x="910" y="389"/>
      <point x="911" y="341" type="curve"/>
      <point x="911" y="341"/>
      <point x="998" y="373"/>
      <point x="998" y="373" type="curve"/>
      <point x="997" y="419"/>
      <point x="985" y="494"/>
      <point x="976" y="549" type="curve"/>
      <point x="976" y="549"/>
      <point x="893" y="523"/>
    </contour>
    <contour>
      <point x="731" y="553" type="curve"/>
      <point x="733" y="568"/>
      <point x="796" y="605"/>
      <point x="796" y="605" type="curve"/>
      <point x="796" y="605"/>
      <point x="797" y="608"/>
      <point x="797" y="608" type="curve"/>
      <point x="847" y="652"/>
      <point x="914" y="728"/>
      <point x="966" y="804" type="curve"/>
      <point x="966" y="804"/>
      <point x="887" y="851"/>
      <point x="887" y="851" type="curve"/>
      <point x="846" y="777"/>
      <point x="786" y="708"/>
      <point x="769" y="691" type="curve" smooth="yes"/>
      <point x="752" y="673"/>
      <point x="735" y="662"/>
      <point x="721" y="659" type="curve"/>
      <point x="721" y="659"/>
      <point x="731" y="553"/>
    </contour>
    <contour>
      <point x="731" y="553" type="curve"/>
      <point x="744" y="556"/>
      <point x="770" y="558"/>
      <point x="885" y="568" type="curve"/>
      <point x="885" y="568"/>
      <point x="914" y="653"/>
      <point x="914" y="653" type="curve"/>
      <point x="914" y="653"/>
      <point x="782" y="646"/>
      <point x="782" y="646" type="curve"/>
      <point x="782" y="646"/>
      <point x="742" y="617"/>
      <point x="742" y="617" type="curve"/>
      <point x="742" y="617"/>
      <point x="731" y="553"/>
    </contour>
    <contour>
      <point x="712" y="359" type="curve"/>
      <point x="715" y="375"/>
      <point x="786" y="413"/>
      <point x="786" y="413" type="curve"/>
      <point x="786" y="413"/>
      <point x="786" y="414"/>
      <point x="786" y="414" type="curve"/>
      <point x="859" y="480"/>
      <point x="945" y="582"/>
      <point x="1018" y="687" type="curve"/>
      <point x="1018" y="687"/>
      <point x="937" y="735"/>
      <point x="937" y="735" type="curve"/>
      <point x="876" y="636"/>
      <point x="793" y="539"/>
      <point x="767" y="515" type="curve"/>
      <point x="743" y="488"/>
      <point x="722" y="472"/>
      <point x="703" y="468" type="curve"/>
      <point x="703" y="468"/>
      <point x="712" y="359"/>
    </contour>
    <contour>
      <point x="712" y="359" type="curve"/>
      <point x="731" y="364"/>
      <point x="763" y="370"/>
      <point x="969" y="407" type="curve"/>
      <point x="969" y="407"/>
      <point x="977" y="491"/>
      <point x="977" y="491" type="curve"/>
      <point x="977" y="491"/>
      <point x="765" y="461"/>
      <point x="765" y="461" type="curve"/>
      <point x="765" y="461"/>
      <point x="723" y="429"/>
      <point x="723" y="429" type="curve"/>
      <point x="723" y="429"/>
      <point x="712" y="359"/>
    </contour>
    <contour>
      <point x="135" y="820" type="curve"/>
      <point x="135" y="820"/>
      <point x="111" y="691"/>
      <point x="111" y="691" type="curve"/>
      <point x="111" y="691"/>
      <point x="490" y="691"/>
      <point x="490" y="691" type="curve"/>
      <point x="490" y="691"/>
      <point x="514" y="820"/>
      <point x="514" y="820" type="curve"/>
      <point x="514" y="820"/>
      <point x="135" y="820"/>
    </contour>
    <contour>
      <point x="212" y="605" type="curve"/>
      <point x="212" y="605"/>
      <point x="190" y="488"/>
      <point x="190" y="488" type="curve"/>
      <point x="190" y="488"/>
      <point x="362" y="488"/>
      <point x="362" y="488" type="curve"/>
      <point x="362" y="488"/>
      <point x="384" y="605"/>
      <point x="384" y="605" type="curve"/>
      <point x="384" y="605"/>
      <point x="212" y="605"/>
    </contour>
    <contour>
      <point x="421" y="194" type="curve"/>
      <point x="421" y="194"/>
      <point x="401" y="89"/>
      <point x="401" y="89" type="curve"/>
      <point x="401" y="89"/>
      <point x="550" y="89"/>
      <point x="550" y="89" type="curve"/>
      <point x="550" y="89"/>
      <point x="570" y="194"/>
      <point x="570" y="194" type="curve"/>
      <point x="570" y="194"/>
      <point x="421" y="194"/>
    </contour>
    <contour>
      <point x="737" y="194" type="curve"/>
      <point x="737" y="194"/>
      <point x="717" y="89"/>
      <point x="717" y="89" type="curve"/>
      <point x="717" y="89"/>
      <point x="866" y="89"/>
      <point x="866" y="89" type="curve"/>
      <point x="866" y="89"/>
      <point x="886" y="194"/>
      <point x="886" y="194" type="curve"/>
      <point x="886" y="194"/>
      <point x="737" y="194"/>
    </contour>
    <contour>
      <point x="174" y="403" type="curve"/>
      <point x="174" y="403"/>
      <point x="152" y="286"/>
      <point x="152" y="286" type="curve"/>
      <point x="152" y="286"/>
      <point x="324" y="286"/>
      <point x="324" y="286" type="curve"/>
      <point x="324" y="286"/>
      <point x="346" y="403"/>
      <point x="346" y="403" type="curve"/>
      <point x="346" y="403"/>
      <point x="174" y="403"/>
    </contour>
    <contour>
      <point x="163" y="750" type="curve"/>
      <point x="163" y="750"/>
      <point x="45" y="129"/>
      <point x="45" y="129" type="curve"/>
      <point x="45" y="129"/>
      <point x="163" y="129"/>
      <point x="163" y="129" type="curve"/>
      <point x="163" y="129"/>
      <point x="281" y="750"/>
      <point x="281" y="750" type="curve"/>
      <point x="281" y="750"/>
      <point x="163" y="750"/>
    </contour>
    <contour>
      <point x="337" y="751" type="curve"/>
      <point x="337" y="751"/>
      <point x="177" y="-95"/>
      <point x="177" y="-95" type="curve"/>
      <point x="177" y="-95"/>
      <point x="297" y="-95"/>
      <point x="297" y="-95" type="curve"/>
      <point x="297" y="-95"/>
      <point x="457" y="751"/>
      <point x="457" y="751" type="curve"/>
      <point x="457" y="751"/>
      <point x="337" y="751"/>
    </contour>
    <contour>
      <point x="694" y="351" type="curve"/>
      <point x="694" y="351"/>
      <point x="610" y="-95"/>
      <point x="610" y="-95" type="curve"/>
      <point x="610" y="-95"/>
      <point x="726" y="-95"/>
      <point x="726" y="-95" type="curve"/>
      <point x="726" y="-95"/>
      <point x="810" y="351"/>
      <point x="810" y="351" type="curve"/>
      <point x="810" y="351"/>
      <point x="694" y="351"/>
    </contour>
    <contour>
      <point x="408" y="324" type="curve"/>
      <point x="408" y="324"/>
      <point x="364" y="89"/>
      <point x="364" y="89" type="curve"/>
      <point x="364" y="89"/>
      <point x="467" y="89"/>
      <point x="467" y="89" type="curve"/>
      <point x="467" y="89"/>
      <point x="511" y="324"/>
      <point x="511" y="324" type="curve"/>
      <point x="511" y="324"/>
      <point x="408" y="324"/>
    </contour>
    <contour>
      <point x="841" y="324" type="curve"/>
      <point x="841" y="324"/>
      <point x="797" y="89"/>
      <point x="797" y="89" type="curve"/>
      <point x="797" y="89"/>
      <point x="904" y="89"/>
      <point x="904" y="89" type="curve"/>
      <point x="904" y="89"/>
      <point x="948" y="324"/>
      <point x="948" y="324" type="curve"/>
      <point x="948" y="324"/>
      <point x="841" y="324"/>
    </contour>
    <contour>
      <point x="-10" y="162" type="curve"/>
      <point x="-10" y="162"/>
      <point x="-13" y="28"/>
      <point x="-13" y="28" type="curve"/>
      <point x="74" y="43"/>
      <point x="179" y="62"/>
      <point x="277" y="81" type="curve"/>
      <point x="277" y="81"/>
      <point x="291" y="205"/>
      <point x="291" y="205" type="curve"/>
      <point x="181" y="188"/>
      <point x="67" y="171"/>
    </contour>
    <contour>
      <point x="550" y="350" type="curve"/>
      <point x="550" y="350"/>
      <point x="517" y="175"/>
      <point x="517" y="175" type="curve"/>
      <point x="503" y="99"/>
      <point x="475" y="33"/>
      <point x="366" y="-7" type="curve"/>
      <point x="385" y="-27"/>
      <point x="410" y="-74"/>
      <point x="417" y="-101" type="curve"/>
      <point x="568" y="-47"/>
      <point x="608" y="50"/>
      <point x="630" y="163" type="curve"/>
      <point x="630" y="163"/>
      <point x="665" y="350"/>
      <point x="665" y="350" type="curve"/>
      <point x="665" y="350"/>
      <point x="550" y="350"/>
    </contour>
  </outline>
</glyph>
<glyph name="uni896F" format="2">
  <advance height="1000" width="1000"/>
  <unicode hex="896F"/>
  <outline>
    <contour>
      <point x="791" y="553" type="line"/>
      <point x="870" y="553" type="line"/>
      <point x="861" y="510" type="line"/>
      <point x="782" y="510" type="line"/>
    </contour>
    <contour>
      <point x="762" y="404" type="line"/>
      <point x="841" y="404" type="line"/>
      <point x="833" y="360" type="line"/>
      <point x="754" y="360" type="line"/>
    </contour>
    <contour>
      <point x="818" y="701" type="line"/>
      <point x="897" y="701" type="line"/>
      <point x="889" y="658" type="line"/>
      <point x="810" y="658" type="line"/>
    </contour>
    <contour>
      <point x="729" y="820" type="line"/>
      <point x="620" y="242" type="line"/>
      <point x="929" y="242" type="line"/>
      <point x="1038" y="820" type="line"/>
    </contour>
    <contour>
      <point x="648" y="258" type="line"/>
      <point x="619" y="112"/>
      <point x="599" y="48"/>
      <point x="493" y="4" type="curve"/>
      <point x="514" y="-19"/>
      <point x="538" y="-66"/>
      <point x="543" y="-96" type="curve"/>
      <point x="683" y="-33"/>
      <point x="720" y="72"/>
      <point x="757" y="258" type="curve"/>
    </contour>
    <contour>
      <point x="393" y="755" type="line"/>
      <point x="372" y="644" type="line"/>
      <point x="674" y="644" type="line"/>
      <point x="695" y="755" type="line"/>
    </contour>
    <contour>
      <point x="359" y="508" type="line"/>
      <point x="338" y="395" type="line"/>
      <point x="627" y="395" type="line"/>
      <point x="648" y="508" type="line"/>
    </contour>
    <contour>
      <point x="322" y="354" type="line"/>
      <point x="301" y="243" type="line"/>
      <point x="599" y="243" type="line"/>
      <point x="620" y="354" type="line"/>
    </contour>
    <contour>
      <point x="376" y="620" type="line"/>
      <point x="386" y="581"/>
      <point x="392" y="528"/>
      <point x="389" y="494" type="curve"/>
      <point x="497" y="532" type="line"/>
      <point x="497" y="565"/>
      <point x="489" y="616"/>
      <point x="477" y="653" type="curve"/>
    </contour>
    <contour>
      <point x="567" y="652" type="line"/>
      <point x="548" y="602"/>
      <point x="514" y="532"/>
      <point x="488" y="486" type="curve"/>
      <point x="569" y="455" type="line"/>
      <point x="597" y="497"/>
      <point x="633" y="559"/>
      <point x="670" y="618" type="curve"/>
    </contour>
    <contour>
      <point x="775" y="256" type="line"/>
      <point x="734" y="35" type="line" smooth="yes"/>
      <point x="723" y="-23"/>
      <point x="724" y="-39"/>
      <point x="735" y="-57" type="curve"/>
      <point x="747" y="-74"/>
      <point x="769" y="-82"/>
      <point x="793" y="-82" type="curve" smooth="yes"/>
      <point x="805" y="-82"/>
      <point x="820" y="-82"/>
      <point x="834" y="-82" type="curve" smooth="yes"/>
      <point x="851" y="-82"/>
      <point x="869" y="-77"/>
      <point x="883" y="-67" type="curve" smooth="yes"/>
      <point x="898" y="-57"/>
      <point x="910" y="-44"/>
      <point x="919" y="-25" type="curve" smooth="yes"/>
      <point x="929" y="-5"/>
      <point x="941" y="39"/>
      <point x="951" y="80" type="curve"/>
      <point x="928" y="88"/>
      <point x="900" y="106"/>
      <point x="886" y="121" type="curve"/>
      <point x="880" y="89"/>
      <point x="873" y="63"/>
      <point x="870" y="51" type="curve"/>
      <point x="866" y="44"/>
      <point x="864" y="39"/>
      <point x="862" y="36" type="curve"/>
      <point x="860" y="34"/>
      <point x="857" y="32"/>
      <point x="854" y="32" type="curve" smooth="yes"/>
      <point x="852" y="32"/>
      <point x="851" y="32"/>
      <point x="850" y="32" type="curve" smooth="yes"/>
      <point x="847" y="32"/>
      <point x="844" y="34"/>
      <point x="844" y="38" type="curve" smooth="yes"/>
      <point x="844" y="41"/>
      <point x="845" y="46"/>
      <point x="845" y="50" type="curve"/>
      <point x="884" y="256" type="line"/>
    </contour>
    <contour>
      <point x="470" y="827" type="line"/>
      <point x="487" y="796"/>
      <point x="503" y="752"/>
      <point x="507" y="723" type="curve"/>
      <point x="624" y="769" type="line"/>
      <point x="619" y="797"/>
      <point x="601" y="836"/>
      <point x="582" y="865" type="curve"/>
    </contour>
    <contour>
      <point x="419" y="234" type="line"/>
      <point x="463" y="179"/>
      <point x="508" y="100"/>
      <point x="525" y="49" type="curve"/>
      <point x="619" y="128" type="line"/>
      <point x="600" y="178"/>
      <point x="552" y="250"/>
      <point x="506" y="304" type="curve"/>
    </contour>
    <contour>
      <point x="387" y="290" type="line"/>
      <point x="338" y="207"/>
      <point x="265" y="122"/>
      <point x="193" y="68" type="curve"/>
      <point x="215" y="49"/>
      <point x="250" y="5"/>
      <point x="264" y="-17" type="curve"/>
      <point x="343" y="49"/>
      <point x="432" y="155"/>
      <point x="494" y="257" type="curve"/>
    </contour>
    <contour>
      <point x="433" y="440" type="line"/>
      <point x="334" y="-87" type="line"/>
      <point x="447" y="-87" type="line"/>
      <point x="546" y="440" type="line"/>
    </contour>
    <contour>
      <point x="120" y="339" type="line"/>
      <point x="38" y="-93" type="line"/>
      <point x="155" y="-93" type="line"/>
      <point x="263" y="478" type="line"/>
    </contour>
    <contour>
      <point x="112" y="700" type="line"/>
      <point x="89" y="575" type="line"/>
      <point x="265" y="575" type="line"/>
      <point x="288" y="700" type="line"/>
    </contour>
    <contour>
      <point x="247" y="467" type="curve"/>
      <point x="175" y="410" type="line"/>
      <point x="196" y="366"/>
      <point x="235" y="266"/>
      <point x="250" y="211" type="curve"/>
      <point x="336" y="306" type="line"/>
      <point x="324" y="331"/>
      <point x="266" y="442"/>
    </contour>
    <contour>
      <point x="263" y="700" type="line"/>
      <point x="259" y="675" type="line"/>
      <point x="204" y="552"/>
      <point x="102" y="396"/>
      <point x="11" y="312" type="curve"/>
      <point x="25" y="288"/>
      <point x="45" y="219"/>
      <point x="50" y="183" type="curve"/>
      <point x="158" y="292"/>
      <point x="287" y="483"/>
      <point x="369" y="658" type="curve"/>
      <point x="311" y="705" type="line"/>
      <point x="288" y="700" type="line"/>
    </contour>
    <contour>
      <point x="316" y="525" type="line"/>
      <point x="296" y="490"/>
      <point x="258" y="438"/>
      <point x="233" y="407" type="curve"/>
      <point x="280" y="360" type="line"/>
      <point x="308" y="386"/>
      <point x="342" y="428"/>
      <point x="382" y="465" type="curve"/>
    </contour>
    <contour>
      <point x="183" y="826" type="line"/>
      <point x="192" y="782"/>
      <point x="200" y="722"/>
      <point x="201" y="684" type="curve"/>
      <point x="321" y="722" type="line"/>
      <point x="318" y="759"/>
      <point x="308" y="815"/>
      <point x="297" y="859" type="curve"/>
    </contour>
  </outline>
</glyph>
<glyph name="uni917C" format="2">
  <advance height="1000" width="1000"/>
  <unicode hex="917C"/>
  <outline>
    <contour>
      <point x="105" y="625" type="curve"/>
      <point x="105" y="625"/>
      <point x="-29" y="-87"/>
      <point x="-29" y="-87" type="curve"/>
      <point x="-29" y="-87"/>
      <point x="69" y="-87"/>
      <point x="69" y="-87" type="curve"/>
      <point x="69" y="-87"/>
      <point x="181" y="509"/>
      <point x="181" y="509" type="curve"/>
      <point x="181" y="509"/>
      <point x="374" y="509"/>
      <point x="374" y="509" type="curve"/>
      <point x="374" y="509"/>
      <point x="264" y="-73"/>
      <point x="264" y="-73" type="curve"/>
      <point x="264" y="-73"/>
      <point x="367" y="-73"/>
      <point x="367" y="-73" type="curve"/>
      <point x="367" y="-73"/>
      <point x="499" y="625"/>
      <point x="499" y="625" type="curve"/>
      <point x="499" y="625"/>
      <point x="105" y="625"/>
    </contour>
    <contour>
      <point x="154" y="227" type="curve"/>
      <point x="154" y="227"/>
      <point x="135" y="127"/>
      <point x="135" y="127" type="curve"/>
      <point x="135" y="127"/>
      <point x="276" y="127"/>
      <point x="276" y="127" type="curve"/>
      <point x="276" y="127"/>
      <point x="295" y="227"/>
      <point x="295" y="227" type="curve"/>
      <point x="295" y="227"/>
      <point x="154" y="227"/>
    </contour>
    <contour>
      <point x="48" y="78" type="curve"/>
      <point x="48" y="78"/>
      <point x="27" y="-31"/>
      <point x="27" y="-31" type="curve"/>
      <point x="27" y="-31"/>
      <point x="316" y="-31"/>
      <point x="316" y="-31" type="curve"/>
      <point x="316" y="-31"/>
      <point x="337" y="78"/>
      <point x="337" y="78" type="curve"/>
      <point x="337" y="78"/>
      <point x="48" y="78"/>
    </contour>
    <contour>
      <point x="134" y="817" type="curve"/>
      <point x="134" y="817"/>
      <point x="113" y="706"/>
      <point x="113" y="706" type="curve"/>
      <point x="113" y="706"/>
      <point x="523" y="706"/>
      <point x="523" y="706" type="curve"/>
      <point x="523" y="706"/>
      <point x="544" y="817"/>
      <point x="544" y="817" type="curve"/>
      <point x="544" y="817"/>
      <point x="134" y="817"/>
    </contour>
    <contour>
      <point x="229" y="780" type="curve"/>
      <point x="229" y="780"/>
      <point x="181" y="523"/>
      <point x="181" y="523" type="curve"/>
      <point x="181" y="523"/>
      <point x="267" y="523"/>
      <point x="267" y="523" type="curve"/>
      <point x="267" y="523"/>
      <point x="315" y="780"/>
      <point x="315" y="780" type="curve"/>
      <point x="315" y="780"/>
      <point x="229" y="780"/>
    </contour>
    <contour>
      <point x="338" y="780" type="curve"/>
      <point x="338" y="780"/>
      <point x="290" y="523"/>
      <point x="290" y="523" type="curve"/>
      <point x="290" y="523"/>
      <point x="380" y="523"/>
      <point x="380" y="523" type="curve"/>
      <point x="380" y="523"/>
      <point x="428" y="780"/>
      <point x="428" y="780" type="curve"/>
      <point x="428" y="780"/>
      <point x="338" y="780"/>
    </contour>
    <contour>
      <point x="205" y="524" type="curve"/>
      <point x="205" y="524"/>
      <point x="186" y="422"/>
      <point x="186" y="422" type="curve"/>
      <point x="178" y="381"/>
      <point x="167" y="333"/>
      <point x="129" y="294" type="curve"/>
      <point x="141" y="286"/>
      <point x="163" y="264"/>
      <point x="171" y="252" type="curve"/>
      <point x="217" y="298"/>
      <point x="239" y="368"/>
      <point x="249" y="421" type="curve"/>
      <point x="249" y="421"/>
      <point x="268" y="524"/>
      <point x="268" y="524" type="curve"/>
      <point x="268" y="524"/>
      <point x="205" y="524"/>
    </contour>
    <contour>
      <point x="290" y="524" type="curve"/>
      <point x="290" y="524"/>
      <point x="263" y="380"/>
      <point x="263" y="380" type="curve"/>
      <point x="250" y="314"/>
      <point x="261" y="298"/>
      <point x="315" y="298" type="curve" smooth="yes"/>
      <point x="325" y="298"/>
      <point x="351" y="298"/>
      <point x="361" y="298" type="curve" smooth="yes"/>
      <point x="398" y="298"/>
      <point x="421" y="311"/>
      <point x="435" y="344" type="curve"/>
      <point x="416" y="349"/>
      <point x="391" y="359"/>
      <point x="381" y="370" type="curve"/>
      <point x="378" y="367"/>
      <point x="375" y="366"/>
      <point x="364" y="366" type="curve" smooth="yes"/>
      <point x="358" y="366"/>
      <point x="341" y="366"/>
      <point x="336" y="366" type="curve" smooth="yes"/>
      <point x="325" y="366"/>
      <point x="324" y="367"/>
      <point x="327" y="382" type="curve"/>
      <point x="327" y="382"/>
      <point x="354" y="524"/>
      <point x="354" y="524" type="curve"/>
      <point x="354" y="524"/>
      <point x="290" y="524"/>
    </contour>
    <contour>
      <point x="537" y="751" type="curve"/>
      <point x="537" y="751"/>
      <point x="514" y="631"/>
      <point x="514" y="631" type="curve"/>
      <point x="514" y="631"/>
      <point x="1032" y="631"/>
      <point x="1032" y="631" type="curve"/>
      <point x="1032" y="631"/>
      <point x="1055" y="751"/>
      <point x="1055" y="751" type="curve"/>
      <point x="1055" y="751"/>
      <point x="537" y="751"/>
    </contour>
    <contour>
      <point x="790" y="585" type="curve"/>
      <point x="825" y="521"/>
      <point x="864" y="434"/>
      <point x="874" y="378" type="curve"/>
      <point x="874" y="378"/>
      <point x="1003" y="432"/>
      <point x="1003" y="432" type="curve"/>
      <point x="988" y="489"/>
      <point x="946" y="572"/>
      <point x="909" y="633" type="curve"/>
      <point x="909" y="633"/>
      <point x="790" y="585"/>
    </contour>
    <contour>
      <point x="689" y="826" type="curve"/>
      <point x="701" y="782"/>
      <point x="712" y="723"/>
      <point x="712" y="687" type="curve"/>
      <point x="712" y="687"/>
      <point x="854" y="726"/>
      <point x="854" y="726" type="curve"/>
      <point x="852" y="763"/>
      <point x="838" y="819"/>
      <point x="824" y="861" type="curve"/>
      <point x="824" y="861"/>
      <point x="689" y="826"/>
    </contour>
    <contour>
      <point x="488" y="407" type="curve"/>
      <point x="524" y="411"/>
      <point x="576" y="415"/>
      <point x="915" y="437" type="curve"/>
      <point x="915" y="437"/>
      <point x="923" y="545"/>
      <point x="923" y="545" type="curve"/>
      <point x="923" y="545"/>
      <point x="573" y="528"/>
      <point x="573" y="528" type="curve"/>
      <point x="573" y="528"/>
      <point x="502" y="490"/>
      <point x="502" y="490" type="curve"/>
      <point x="502" y="490"/>
      <point x="488" y="407"/>
    </contour>
    <contour>
      <point x="488" y="407" type="curve"/>
      <point x="492" y="429"/>
      <point x="637" y="475"/>
      <point x="637" y="475" type="curve"/>
      <point x="691" y="534"/>
      <point x="775" y="641"/>
      <point x="827" y="706" type="curve"/>
      <point x="827" y="706"/>
      <point x="681" y="706"/>
      <point x="681" y="706" type="curve"/>
      <point x="651" y="665"/>
      <point x="576" y="573"/>
      <point x="552" y="552" type="curve" smooth="yes"/>
      <point x="530" y="533"/>
      <point x="495" y="524"/>
      <point x="471" y="520" type="curve"/>
      <point x="471" y="520"/>
      <point x="488" y="407"/>
    </contour>
    <contour>
      <point x="639" y="372" type="curve"/>
      <point x="639" y="372"/>
      <point x="559" y="-51"/>
      <point x="559" y="-51" type="curve"/>
      <point x="559" y="-51"/>
      <point x="672" y="-51"/>
      <point x="672" y="-51" type="curve"/>
      <point x="672" y="-51"/>
      <point x="752" y="372"/>
      <point x="752" y="372" type="curve"/>
      <point x="752" y="372"/>
      <point x="639" y="372"/>
    </contour>
    <contour>
      <point x="775" y="376" type="curve"/>
      <point x="775" y="376"/>
      <point x="715" y="56"/>
      <point x="715" y="56" type="curve"/>
      <point x="702" y="-13"/>
      <point x="703" y="-35"/>
      <point x="717" y="-53" type="curve"/>
      <point x="729" y="-71"/>
      <point x="753" y="-79"/>
      <point x="777" y="-79" type="curve" smooth="yes"/>
      <point x="790" y="-79"/>
      <point x="806" y="-79"/>
      <point x="820" y="-79" type="curve" smooth="yes"/>
      <point x="838" y="-79"/>
      <point x="860" y="-75"/>
      <point x="875" y="-65" type="curve" smooth="yes"/>
      <point x="890" y="-56"/>
      <point x="902" y="-41"/>
      <point x="913" y="-21" type="curve" smooth="yes"/>
      <point x="923" y="-2"/>
      <point x="936" y="46"/>
      <point x="946" y="88" type="curve"/>
      <point x="921" y="97"/>
      <point x="891" y="114"/>
      <point x="875" y="130" type="curve"/>
      <point x="868" y="93"/>
      <point x="861" y="63"/>
      <point x="856" y="49" type="curve"/>
      <point x="853" y="36"/>
      <point x="850" y="30"/>
      <point x="847" y="27" type="curve"/>
      <point x="845" y="24"/>
      <point x="842" y="23"/>
      <point x="839" y="23" type="curve" smooth="yes"/>
      <point x="837" y="23"/>
      <point x="836" y="23"/>
      <point x="834" y="23" type="curve" smooth="yes"/>
      <point x="831" y="23"/>
      <point x="830" y="25"/>
      <point x="829" y="29" type="curve"/>
      <point x="829" y="32"/>
      <point x="831" y="41"/>
      <point x="834" y="56" type="curve"/>
      <point x="834" y="56"/>
      <point x="894" y="376"/>
      <point x="894" y="376" type="curve"/>
      <point x="894" y="376"/>
      <point x="775" y="376"/>
    </contour>
    <contour>
      <point x="501" y="372" type="curve"/>
      <point x="501" y="372"/>
      <point x="472" y="219"/>
      <point x="472" y="219" type="curve"/>
      <point x="458" y="141"/>
      <point x="432" y="57"/>
      <point x="350" y="-5" type="curve"/>
      <point x="374" y="-24"/>
      <point x="411" y="-65"/>
      <point x="426" y="-91" type="curve"/>
      <point x="533" y="-10"/>
      <point x="567" y="107"/>
      <point x="588" y="216" type="curve"/>
      <point x="588" y="216"/>
      <point x="617" y="372"/>
      <point x="617" y="372" type="curve"/>
      <point x="617" y="372"/>
      <point x="501" y="372"/>
    </contour>
  </outline>
</glyph>
<glyph name="uni9181" format="2">
  <advance height="1000" width="1000"/>
  <unicode hex="9181"/>
  <outline>
    <contour>
      <point x="113" y="632" type="curve"/>
      <point x="113" y="632"/>
      <point x="-24" y="-93"/>
      <point x="-24" y="-93" type="curve"/>
      <point x="-24" y="-93"/>
      <point x="72" y="-93"/>
      <point x="72" y="-93" type="curve"/>
      <point x="72" y="-93"/>
      <point x="188" y="516"/>
      <point x="188" y="516" type="curve"/>
      <point x="188" y="516"/>
      <point x="378" y="516"/>
      <point x="378" y="516" type="curve"/>
      <point x="378" y="516"/>
      <point x="265" y="-78"/>
      <point x="265" y="-78" type="curve"/>
      <point x="265" y="-78"/>
      <point x="365" y="-78"/>
      <point x="365" y="-78" type="curve"/>
      <point x="365" y="-78"/>
      <point x="499" y="632"/>
      <point x="499" y="632" type="curve"/>
      <point x="499" y="632"/>
      <point x="113" y="632"/>
    </contour>
    <contour>
      <point x="150" y="235" type="curve"/>
      <point x="150" y="235"/>
      <point x="131" y="134"/>
      <point x="131" y="134" type="curve"/>
      <point x="131" y="134"/>
      <point x="289" y="134"/>
      <point x="289" y="134" type="curve"/>
      <point x="289" y="134"/>
      <point x="308" y="235"/>
      <point x="308" y="235" type="curve"/>
      <point x="308" y="235"/>
      <point x="150" y="235"/>
    </contour>
    <contour>
      <point x="48" y="83" type="curve"/>
      <point x="48" y="83"/>
      <point x="27" y="-28"/>
      <point x="27" y="-28" type="curve"/>
      <point x="27" y="-28"/>
      <point x="316" y="-28"/>
      <point x="316" y="-28" type="curve"/>
      <point x="316" y="-28"/>
      <point x="337" y="83"/>
      <point x="337" y="83" type="curve"/>
      <point x="337" y="83"/>
      <point x="48" y="83"/>
    </contour>
    <contour>
      <point x="137" y="818" type="curve"/>
      <point x="137" y="818"/>
      <point x="115" y="706"/>
      <point x="115" y="706" type="curve"/>
      <point x="115" y="706"/>
      <point x="516" y="706"/>
      <point x="516" y="706" type="curve"/>
      <point x="516" y="706"/>
      <point x="538" y="818"/>
      <point x="538" y="818" type="curve"/>
      <point x="538" y="818"/>
      <point x="137" y="818"/>
    </contour>
    <contour>
      <point x="232" y="781" type="curve"/>
      <point x="232" y="781"/>
      <point x="183" y="524"/>
      <point x="183" y="524" type="curve"/>
      <point x="183" y="524"/>
      <point x="275" y="524"/>
      <point x="275" y="524" type="curve"/>
      <point x="275" y="524"/>
      <point x="324" y="781"/>
      <point x="324" y="781" type="curve"/>
      <point x="324" y="781"/>
      <point x="232" y="781"/>
    </contour>
    <contour>
      <point x="343" y="781" type="curve"/>
      <point x="343" y="781"/>
      <point x="294" y="524"/>
      <point x="294" y="524" type="curve"/>
      <point x="294" y="524"/>
      <point x="386" y="524"/>
      <point x="386" y="524" type="curve"/>
      <point x="386" y="524"/>
      <point x="435" y="781"/>
      <point x="435" y="781" type="curve"/>
      <point x="435" y="781"/>
      <point x="343" y="781"/>
    </contour>
    <contour>
      <point x="207" y="525" type="curve"/>
      <point x="207" y="525"/>
      <point x="188" y="423"/>
      <point x="188" y="423" type="curve"/>
      <point x="180" y="381"/>
      <point x="169" y="334"/>
      <point x="131" y="295" type="curve"/>
      <point x="144" y="287"/>
      <point x="169" y="262"/>
      <point x="177" y="249" type="curve"/>
      <point x="226" y="296"/>
      <point x="246" y="366"/>
      <point x="257" y="421" type="curve"/>
      <point x="257" y="421"/>
      <point x="276" y="525"/>
      <point x="276" y="525" type="curve"/>
      <point x="276" y="525"/>
      <point x="207" y="525"/>
    </contour>
    <contour>
      <point x="294" y="525" type="curve"/>
      <point x="294" y="525"/>
      <point x="267" y="381"/>
      <point x="267" y="381" type="curve"/>
      <point x="254" y="312"/>
      <point x="265" y="294"/>
      <point x="317" y="294" type="curve" smooth="yes"/>
      <point x="326" y="294"/>
      <point x="339" y="294"/>
      <point x="348" y="294" type="curve" smooth="yes"/>
      <point x="384" y="294"/>
      <point x="407" y="308"/>
      <point x="423" y="343" type="curve"/>
      <point x="403" y="348"/>
      <point x="376" y="359"/>
      <point x="365" y="371" type="curve"/>
      <point x="363" y="368"/>
      <point x="360" y="367"/>
      <point x="350" y="367" type="curve" smooth="yes"/>
      <point x="347" y="367"/>
      <point x="342" y="367"/>
      <point x="340" y="367" type="curve" smooth="yes"/>
      <point x="333" y="367"/>
      <point x="333" y="368"/>
      <point x="335" y="383" type="curve"/>
      <point x="335" y="383"/>
      <point x="362" y="525"/>
      <point x="362" y="525" type="curve"/>
      <point x="362" y="525"/>
      <point x="294" y="525"/>
    </contour>
    <contour>
      <point x="491" y="519" type="curve"/>
      <point x="491" y="519"/>
      <point x="468" y="399"/>
      <point x="468" y="399" type="curve"/>
      <point x="468" y="399"/>
      <point x="982" y="399"/>
      <point x="982" y="399" type="curve"/>
      <point x="982" y="399"/>
      <point x="1005" y="519"/>
      <point x="1005" y="519" type="curve"/>
      <point x="1005" y="519"/>
      <point x="491" y="519"/>
    </contour>
    <contour>
      <point x="669" y="451" type="curve"/>
      <point x="669" y="451"/>
      <point x="591" y="38"/>
      <point x="591" y="38" type="curve"/>
      <point x="589" y="27"/>
      <point x="585" y="24"/>
      <point x="574" y="24" type="curve" smooth="yes"/>
      <point x="562" y="24"/>
      <point x="526" y="24"/>
      <point x="494" y="25" type="curve"/>
      <point x="503" y="-8"/>
      <point x="512" y="-59"/>
      <point x="509" y="-94" type="curve"/>
      <point x="569" y="-94"/>
      <point x="615" y="-91"/>
      <point x="653" y="-72" type="curve" smooth="yes"/>
      <point x="693" y="-53"/>
      <point x="708" y="-21"/>
      <point x="719" y="36" type="curve"/>
      <point x="719" y="36"/>
      <point x="797" y="451"/>
      <point x="797" y="451" type="curve"/>
      <point x="797" y="451"/>
      <point x="669" y="451"/>
    </contour>
    <contour>
      <point x="672" y="803" type="curve"/>
      <point x="672" y="803"/>
      <point x="651" y="695"/>
      <point x="651" y="695" type="curve"/>
      <point x="651" y="695"/>
      <point x="904" y="695"/>
      <point x="904" y="695" type="curve"/>
      <point x="904" y="695"/>
      <point x="925" y="803"/>
      <point x="925" y="803" type="curve"/>
      <point x="925" y="803"/>
      <point x="672" y="803"/>
    </contour>
    <contour>
      <point x="624" y="660" type="curve"/>
      <point x="624" y="660"/>
      <point x="604" y="555"/>
      <point x="604" y="555" type="curve"/>
      <point x="604" y="555"/>
      <point x="852" y="555"/>
      <point x="852" y="555" type="curve"/>
      <point x="852" y="555"/>
      <point x="872" y="660"/>
      <point x="872" y="660" type="curve"/>
      <point x="872" y="660"/>
      <point x="624" y="660"/>
    </contour>
    <contour>
      <point x="656" y="855" type="curve"/>
      <point x="618" y="758"/>
      <point x="564" y="634"/>
      <point x="523" y="555" type="curve"/>
      <point x="523" y="555"/>
      <point x="649" y="555"/>
      <point x="649" y="555" type="curve"/>
      <point x="685" y="628"/>
      <point x="737" y="746"/>
      <point x="776" y="842" type="curve"/>
      <point x="776" y="842"/>
      <point x="656" y="855"/>
    </contour>
    <contour>
      <point x="891" y="803" type="curve"/>
      <point x="891" y="803"/>
      <point x="888" y="790"/>
      <point x="888" y="790" type="curve"/>
      <point x="862" y="718"/>
      <point x="809" y="586"/>
      <point x="764" y="486" type="curve"/>
      <point x="764" y="486"/>
      <point x="883" y="469"/>
      <point x="883" y="469" type="curve"/>
      <point x="926" y="568"/>
      <point x="977" y="690"/>
      <point x="1015" y="794" type="curve"/>
      <point x="1015" y="794"/>
      <point x="927" y="808"/>
      <point x="927" y="808" type="curve"/>
      <point x="927" y="808"/>
      <point x="905" y="803"/>
      <point x="905" y="803" type="curve"/>
      <point x="905" y="803"/>
      <point x="891" y="803"/>
    </contour>
    <contour>
      <point x="887" y="391" type="curve"/>
      <point x="858" y="352"/>
      <point x="805" y="297"/>
      <point x="769" y="264" type="curve"/>
      <point x="769" y="264"/>
      <point x="844" y="212"/>
      <point x="844" y="212" type="curve"/>
      <point x="883" y="242"/>
      <point x="932" y="287"/>
      <point x="982" y="332" type="curve"/>
      <point x="982" y="332"/>
      <point x="887" y="391"/>
    </contour>
    <contour>
      <point x="447" y="323" type="curve"/>
      <point x="474" y="287"/>
      <point x="510" y="236"/>
      <point x="524" y="204" type="curve"/>
      <point x="524" y="204"/>
      <point x="624" y="277"/>
      <point x="624" y="277" type="curve"/>
      <point x="608" y="308"/>
      <point x="570" y="355"/>
      <point x="543" y="389" type="curve"/>
      <point x="543" y="389"/>
      <point x="447" y="323"/>
    </contour>
    <contour>
      <point x="377" y="92" type="curve"/>
      <point x="377" y="92"/>
      <point x="428" y="-7"/>
      <point x="428" y="-7" type="curve"/>
      <point x="480" y="27"/>
      <point x="542" y="69"/>
      <point x="595" y="108" type="curve"/>
      <point x="595" y="108"/>
      <point x="569" y="207"/>
      <point x="569" y="207" type="curve"/>
      <point x="497" y="162"/>
      <point x="425" y="118"/>
    </contour>
    <contour>
      <point x="732" y="129" type="curve"/>
      <point x="772" y="87"/>
      <point x="830" y="28"/>
      <point x="855" y="-8" type="curve"/>
      <point x="855" y="-8"/>
      <point x="951" y="82"/>
      <point x="951" y="82" type="curve"/>
      <point x="923" y="116"/>
      <point x="862" y="171"/>
      <point x="822" y="208" type="curve"/>
      <point x="822" y="208"/>
      <point x="732" y="129"/>
    </contour>
  </outline>
</glyph>
